<svg id="Layer_1" data-name="Layer 1" xmlns="http://www.w3.org/2000/svg" width="1920" height="1080" viewBox="0 0 1920 1080"><defs><style>.cls-1{fill:#ae1f24;}.cls-2{fill:#fff;}</style></defs><title>allert-banner</title><rect class="cls-1" width="1920" height="1080"/><path class="cls-2" d="M1116.3,613.1l-39.8-42.8c26.3-9.5,32.7-39.1,15.9-64.8L988.8,350.4c-15.4-24.1-43.7-23.8-60,1.4L815.8,521.9c-23,36.6,9.4,54.6,30.8,42.6,2.9-1.7,176.1-132.5,176.1-132.5l29.3,42.6L866.5,609.3a70.9,70.9,0,0,1-34.9,9.3h-3.5a72.2,72.2,0,0,1-48.3-22.3l-.7-.7a72.3,72.3,0,0,1-18.8-48h0c0-1.5.1-3.1.2-4.7v-1.7a70.9,70.9,0,0,1,11.4-32.6l17.4-26.7L900.3,311.5a71.7,71.7,0,0,1,13.9-15.8,70.4,70.4,0,0,1,27.1-14.1,71.1,71.1,0,0,1,78.4,29.9l10.7,16.4,29.2,44.8,18.3,28.1,37.8,58,32.4,49.7C1173.4,547.4,1155,596.7,1116.3,613.1Z"/><path class="cls-2" d="M798.5,764.2l26.2-109.9h27.7l24.9,109.9h-22l-5.4-27.8h-24l-5.4,27.8Zm30.6-43.9h17.6l-5.6-31.2c-1-5.1-1.5-10.1-2.1-15.2-.1-2.5-.4-5-.7-7.3h-.3c-.3,2.3-.6,4.8-.7,7.3-.6,5.1-1,10.1-2.1,15.2Z"/><path class="cls-2" d="M889.5,764.2V654.4h19V764.2Z"/><path class="cls-2" d="M930.2,764.2V654.4h19V764.2Z"/><path class="cls-2" d="M967.8,710c-.9-19.5,9.1-30.6,27.8-30.6,26.5,0,29.3,13.8,29.3,36.3v11.1H986.9v12c.1,10.8,4.2,12.9,10,12.9s9.1-5.1,8.8-15.5h19c.7,18.5-6.9,30.2-26.4,30.2-22,0-30.9-10.4-30.5-34.7Zm38.1,2.2v-7.2c-.1-8.3-2.3-11-10-11-9.5,0-9.1,7.3-9.1,14.8v3.4Z"/><path class="cls-2" d="M1060.4,696.3h.3c2.3-6,4.7-9.4,7.5-11.7,5.4-4.5,9.1-4.2,11.9-4.4v22.6c-10.5-1-18.6,1.6-18.9,13.8v47.7h-19V681.6h18.3Z"/><path class="cls-2" d="M1119,764.5c-11.3,1.3-27.1,2.3-27.1-13v-56h-7.8V681.6h7.6V658.9h19.2v22.7h8.1v13.9h-8.1v51.3c.4,3.5,5.7,3.1,8.1,2.8Z"/></svg>