<svg xmlns="http://www.w3.org/2000/svg" width="1920" height="867.4" viewBox="0 0 1920 867.4"><style type="text/css">.st0{fill:#0C0C0C;} .st1{fill:#DEB888;}</style><path class="st0" d="M-9-8.7h1932.8v880.6h-1932.8z"/><path class="st1" d="M377.7 758.8c2.5 2.5 36.4 0 36.4 4.9l-12.6 3s-272.3 3.1-277.7 1.6c-5.3-1.4.8-4.9.8-4.9s17.8-8.8 20.7-10.6c2.9-1.6.9-8.4-3.3-4.2-4.2 4.1-21.7 14.3-48.9 27.8-27.3 13.6-26.5-3.6-17.6-6.6 8.9-2.9 18.3-10.5 21.6-12.5 3.3-1.9 2-5.1-.6-5.1l-4.9 2s-4.9 5.1-17.1 8.2c-12.3 2.9-31.2 3.4-34.7 0-3.4-3.5 10.4-2.9 12.7-7.4 2.4-4.6-11.9-1-22.8-9.2-10.9-8.3 1.9-13 22.6-11.6 20.7 1.3 84.9-12.2 41.8-10-43.2 2.1-61.9-13.9-66.8-18.6-4.8-4.9-1-12.5 10.4-8.8 11.3 3.6 39.2 5 40.4 2.4 1.3-2.6-4.1-5.7-7.3-7.6-3.2-1.9-10-10.8 13.4-5.5 23.3 5.1 42.4 1.9 57 1.2 14.5-.7 27.3-10.9 23.9-14.3-3.4-3.4-12.6.6-19.1 1.4-6.6 1-4.4-1.5-3.2-2.2 1.1-.6 1.8-2.4 1.8-2.4s3.7-8.8-4.5-3.1c-8.2 5.6-20.4 5.5-25.6 5.5-5.2 0-4.4-4.7-.1-4.7 4.4 0 8.4-4.9 8.4-4.9s2-4.7-6.1-2.6-25 3.9-26.5 1.2c-1.3-2.7 4.9-1.2 4.9-3.5s-21.2-.2-23.2-4.4c-2.1-4.1 11.4-1.2 16.1-2.2 4.8-1-2.9-4.4-2.9-4.4s-103-54-31.2-33.3c71.7 20.7 92.9 12.8 92.9 12.8s6.5-2.6-1.2-4.1c-7.6-1.5-27.1-11-.7-5.4 26.5 5.6 27.4-1.6 27.4-3.4 0-1.7-36.2-12.8-50.2-18.8-14.2-6-38.1-19.8-38.1-21.9 0-2.1 4.1-2.1 4.1-2.1 44.1-6.7 97.3 24.7 95.7 18-1.5-6.9-13.7-14.6-18.6-19.3-4.8-4.9-26-.9-26-3.7s8.2-1.9 10.9-4.7c2.9-2.9-4.3-2.5-4.3-2.5s-13.9 1.6-13.9-6c0-7.7 8.5-6.2 8.5-6.2 11.6 1.5 4.6-4.3 4.6-4.3s-64-65.9-26.2-37.6c38 28.4 75 34 75 34s-3-6.9-9.8-9.9c-6.7-2.9.8-3.5.8-3.5s13.2-4.1-2.9-4.1-19.9-4.4-14-4.4c5.9 0 9.8-2.2 9.8-2.2s-7.6-7.1-27-9.7c-19.4-2.5-16.9-8-16.9-8s25.3 4 12.1-2.3c-13.3-6.4-31-35-35.7-44.7-4.7-9.7-2-14.1 0-15.2 1.9-1.1 5 4.7 5 4.7 59.9 51.3 96.5 38.6 96.5 38.6l1-9.3s-9.6 2.7-12.3 0c-2.7-2.7 9.9-1.5 9.9-3.6l-2.9-2.3s-8.8 2.3-16.5 2.3c-7.5 0-2.7-5.2-2.7-5.2s15.8-2.9 7.8-5.6c-8-2.8-16-2.2-28.2-2.2-12.1 0-6.3-4.2-6.3-4.2s24 0 6.9-6.6c-17-6.7-40.8-48.1-21.8-32.5 18.2 14.7 40.8 27 42.7 28-1.4-1.8-17-21.4-4.7-12.3 13 9.7 26.7 7.7 26.7 7.7v-7.7s-55.4-37.8-26.5-27.6c29 10.2 29.3 4.6 29.3 4.6s-1.1-12.2-10.4-12.2-12.4 0-12.4-1.6l8.2-3-2.9-2.6s-20-4.1-20-7.4c0-3.3 5.9-3 5.9-3s-15.6-16.4-12.7-19.3c2.9-2.9 41.5 26.2 41.5 26.2l1.2-4.8s-16.3-18.2-13.2-19.9c2.9-1.7 14.5 13.1 14.5 13.1v-9.3s-11.8-12.6-6.9-12.6l8.1 4.7v-15s-20-15.3-25.5-18.5c-5.5-3.2-3.7-6.2-1.9-8 1.8-1.8 3.3.5 3.3.5l20.5 16.3v-4.5s-12.6-21.3-9.6-23c2.9-1.7 4.1 1.6 4.1 1.6l7.9 16.8v-70.5s0-9.6 7.6-9.6c7.5 0 6.6 8.5 6.6 8.5v80.8l13.3-9.2s2.5-1.1 3.5 0c1.1 1.1-2 4.4-2 4.4l-14.3 9.8-1.1.8v11l2.4-2 20.8-18.1s4.4-2.4 5.9 0c1.4 2.4-4.2 8-5.7 9.6-1.1 1.1-13.6 12.2-19.9 17.7-2.1 1.9-3.5 3.1-3.5 3.1v6l4.3-3.4 6.8-5.6s3.1-1.6 3.6.7c.6 2.4-2.9 5.9-4.9 7.9-.9.9-2.8 2.6-4.7 4.2-2.6 2.1-5.1 4.2-5.1 4.2v12.8s2.9-3.4 6.4-7.5c4.9-5.5 11-12.1 13-12.4 3.6-.4 5.4 2.3 3.6 4.2-1 1-9.2 10.8-15.5 18.3-4.1 4.9-7.5 9-7.5 9s-2.9 14.7 4.4 10.4c1.7-1 3.3-2.4 5-4 5.7-5.5 11.2-13.7 14.7-14.4 4.5-.8 5.1 2.6 5.1 5.1 0 2.7-7.8 11.1-7.8 11.1s17.4-.5 39.7-25.7c22.3-25.3 3.3 4.5 3.3 4.5s-22.2 23.7-27.9 25c-5.8 1.4-3.3 4.5.3 3.1 3.5-1.4 4.8-2.9 6-2.1 1.2.7-1.7 7.8-9 10.5-5.1 1.9-15.1 2.2-22 1.7-2.9-.1-5.2-.5-6.5-.9l.2 5.1s2.4 1.6 6.9.7c.8-.1 1.6-.3 2.6-.7 6.1-2.4 7.6 1.4 4.4 3.2-1.5 1-3.9 1.8-6.3 2.4-2.5.7-4.9 1-6.3.5-2.6-1-1 18.9 8.3 14.8 9.3-4.2 23.2-20.8 23.2-20.8s2.6-2.3 4.7-.2c2.1 2.2-7.5 16.1-9.7 17.4-2.2 1.2 16.3-1 31.7-15 15.4-13.9 18.6-10.6 19.8-9.5 1 1.1-6.7 12.5-17.4 19.8-10.8 7.3-33.9 23.6-50.1 24.5l1.6 12.2s20.6 1.9 48.1-20.6c0 0 2.7-1.9 4.2-1 1.4.9 2.3 2.9.1 5-2.3 2.2-10 11.1-17 15.2-7.1 4.1 8.2 1.3 8.2 1.3s3-.2 2.7 1.9c-.4 2-4 3.8-7.1 3.8-3 0-11.8-.4-13.7-.4-1.8 0-3 4.5 2.6 4.1 5.6-.4 7.8-1.4 8.8-1 1 .6 2.3 2.6-.3 4.1-2.6 1.4-12.5 2.1-14 2.1-1.6 0 .1 2.7 4.8 2.1 4.7-.5 3.3 4.2-2.7 3.7-4.5-.5-13.6-.4-22-1.3-2.5-.2-4.9-.6-7.2-1 0 0-1.4-.4-1.4 4.1 0 1.8 3.4 5 10 7.1h.1c9.2 2.9 24.5 3.8 45.2-3.7 35.6-12.9 32.1-5.2 28.4-3.1-3.6 2.1-15.5 6.6-16.3 6.6-.7 0-4.5 3.5-.7 3.5s9.9-1.4 11.2 0c1.4 1.3-1 4.9-4.9 4.9-3.8 0-38.6 17.2-52.8 18.7-4 .5-5.9 1.8-6.2 3.3 0 .4 0 .8.2 1.1v.1c1.4 3.4 10.4 6.8 21 1.9 16.8-7.6 25.5-10.8 34.4-13.2 8.8-2.4 19.4-2.9 13.5 4.7-5.9 7.4-19.2 12.3-21.5 17.1-2.3 4.9 14.6 2.4 14.6 2.4s6.6 1.1 1 4.4c-5.5 3.1-27.1-1.1-29.3 1-2.2 2.1-.8 13.1 6.6 13.8 7.4.7 8.8 6.6 3.1 6-5.5-.7-8.7 3.8-3.8 4.9 4.9 1.2 11.5 1.1 9.8 4-1.7 2.9-23.6 5.2-36.3 2.9-12.7-2.4 6.1 31 46.1 8 39.9-23 46.2-32.4 50-32.4 3.7 0 10 4 3.7 10.3-6.2 6.2-22 24.5-37.3 33.3-15.3 8.8 16.8 13.3 16.8 13.3s5-1.1 5 2.9c0 4.1-20.6 3.1-30.5 3.1-9.9 0-4.9 2.6.6 3.9 5.6 1.4 10.2 3.2 10.2 6.4s-34.8 1.3-49.5-4.4c-8.8-3.4-10.3 5.6-10 13.2l.3.3c7.5 4.4 77.3 11.1 87.8 8.8 10.6-2.4 25.8-3.8 21.8 1.4-4 5.3-22 8.1-22 8.1s-10.8 2.4-5.3 7.8c5.5 5.4 57 .1 43.6 7.9-13.5 7.7-41.5 2.9-41.5 6 0 2.9 18.4 10.2 7.7 8.8-10.7-1.4-25.2-6.9-27-2.9-1.8 4.2 13.3 6.9 11.1 11.4-2.1 4.7-23.3-1-24 1.2-.7 2.2 13.7 6.5 11.7 10.9-2.1 4.5-51.6-15.2-54.4-9.3-2.9 5.8 5.6 25.9 34.8 18.7 29.3-7.2 70-5.8 67.8-.8-2.2 5-36.1 8.3-36.1 14.1 0 5.7 9.7 2.9 9.7 2.9s84.2-13.2 79.6-1.3c-4.7 11.9-41.1 14.7-46.7 17.9-5.4 3.5-16.5 7.4-14 9.9z"/></svg>