<?xml version="1.0" encoding="utf-8"?>
<!-- Generator: Adobe Illustrator 20.1.0, SVG Export Plug-In . SVG Version: 6.00 Build 0)  -->
<!DOCTYPE svg PUBLIC "-//W3C//DTD SVG 1.1//EN" "http://www.w3.org/Graphics/SVG/1.1/DTD/svg11.dtd">
<svg version="1.1" id="Layer_1" xmlns="http://www.w3.org/2000/svg" xmlns:xlink="http://www.w3.org/1999/xlink" x="0px" y="0px"
	 width="1920px" height="867.4px" viewBox="0 0 1920 867.4" style="enable-background:new 0 0 1920 867.4;" xml:space="preserve">
<style type="text/css">
	.st0{fill:#0C0C0C;}
	.st1{fill:#DEB888;}
</style>
<rect x="-9" y="-8.7" class="st0" width="1932.8" height="880.6"/>
<path class="st1" d="M377.7,758.8c2.5,2.5,36.4,0,36.4,4.9s-12.6,3-12.6,3s-272.3,3.1-277.7,1.6c-5.3-1.4,0.8-4.9,0.8-4.9
	s17.8-8.8,20.7-10.6c2.9-1.6,0.9-8.4-3.3-4.2c-4.2,4.1-21.7,14.3-48.9,27.8c-27.3,13.6-26.5-3.6-17.6-6.6
	c8.9-2.9,18.3-10.5,21.6-12.5c3.3-1.9,2-5.1-0.6-5.1c-2.6,0-4.9,2-4.9,2s-4.9,5.1-17.1,8.2c-12.3,2.9-31.2,3.4-34.7,0
	c-3.4-3.5,10.4-2.9,12.7-7.4c2.4-4.6-11.9-1-22.8-9.2c-10.9-8.3,1.9-13,22.6-11.6c20.7,1.3,84.9-12.2,41.8-10
	c-43.2,2.1-61.9-13.9-66.8-18.6c-4.8-4.9-1-12.5,10.4-8.8c11.3,3.6,39.2,5,40.4,2.4c1.3-2.6-4.1-5.7-7.3-7.6
	c-3.2-1.9-10-10.8,13.4-5.5c23.3,5.1,42.4,1.9,57,1.2c14.5-0.7,27.3-10.9,23.9-14.3c-3.4-3.4-12.6,0.6-19.1,1.4
	c-6.6,1-4.4-1.5-3.2-2.2c1.1-0.6,1.8-2.4,1.8-2.4s3.7-8.8-4.5-3.1c-8.2,5.6-20.4,5.5-25.6,5.5c-5.2,0-4.4-4.7-0.1-4.7
	c4.4,0,8.4-4.9,8.4-4.9s2-4.7-6.1-2.6c-8.1,2.1-25,3.9-26.5,1.2c-1.3-2.7,4.9-1.2,4.9-3.5c0-2.3-21.2-0.2-23.2-4.4
	c-2.1-4.1,11.4-1.2,16.1-2.2c4.8-1-2.9-4.4-2.9-4.4s-103-54-31.2-33.3c71.7,20.7,92.9,12.8,92.9,12.8s6.5-2.6-1.2-4.1
	c-7.6-1.5-27.1-11-0.7-5.4c26.5,5.6,27.4-1.6,27.4-3.4c0-1.7-36.2-12.8-50.2-18.8c-14.2-6-38.1-19.8-38.1-21.9
	c0-2.1,4.1-2.1,4.1-2.1c44.1-6.7,97.3,24.7,95.7,18c-1.5-6.9-13.7-14.6-18.6-19.3c-4.8-4.9-26-0.9-26-3.7s8.2-1.9,10.9-4.7
	c2.9-2.9-4.3-2.5-4.3-2.5s-13.9,1.6-13.9-6c0-7.7,8.5-6.2,8.5-6.2c11.6,1.5,4.6-4.3,4.6-4.3s-64-65.9-26.2-37.6c38,28.4,75,34,75,34
	s-3-6.9-9.8-9.9c-6.7-2.9,0.8-3.5,0.8-3.5s13.2-4.1-2.9-4.1s-19.9-4.4-14-4.4c5.9,0,9.8-2.2,9.8-2.2s-7.6-7.1-27-9.7
	c-19.4-2.5-16.9-8-16.9-8s25.3,4,12.1-2.3c-13.3-6.4-31-35-35.7-44.7c-4.7-9.7-2-14.1,0-15.2c1.9-1.1,5,4.7,5,4.7
	c59.9,51.3,96.5,38.6,96.5,38.6l1-9.3c0,0-9.6,2.7-12.3,0c-2.7-2.7,9.9-1.5,9.9-3.6c0-2.1-2.9-2.3-2.9-2.3s-8.8,2.3-16.5,2.3
	c-7.5,0-2.7-5.2-2.7-5.2s15.8-2.9,7.8-5.6c-8-2.8-16-2.2-28.2-2.2c-12.1,0-6.3-4.2-6.3-4.2s24,0,6.9-6.6
	c-17-6.7-40.8-48.1-21.8-32.5c18.2,14.7,40.8,27,42.7,28c-1.4-1.8-17-21.4-4.7-12.3c13,9.7,26.7,7.7,26.7,7.7v-7.7
	c0,0-55.4-37.8-26.5-27.6c29,10.2,29.3,4.6,29.3,4.6s-1.1-12.2-10.4-12.2c-9.3,0-12.4,0-12.4-1.6s8.2-3,8.2-3l-2.9-2.6
	c0,0-20-4.1-20-7.4c0-3.3,5.9-3,5.9-3s-15.6-16.4-12.7-19.3c2.9-2.9,41.5,26.2,41.5,26.2l1.2-4.8c0,0-16.3-18.2-13.2-19.9
	c2.9-1.7,14.5,13.1,14.5,13.1v-9.3c0,0-11.8-12.6-6.9-12.6c4.9,0,8.1,4.7,8.1,4.7v-15c0,0-20-15.3-25.5-18.5c-5.5-3.2-3.7-6.2-1.9-8
	c1.8-1.8,3.3,0.5,3.3,0.5l20.5,16.3v-4.5c0,0-12.6-21.3-9.6-23c2.9-1.7,4.1,1.6,4.1,1.6l7.9,16.8V245c0,0,0-9.6,7.6-9.6
	c7.5,0,6.6,8.5,6.6,8.5v80.8l13.3-9.2c0,0,2.5-1.1,3.5,0c1.1,1.1-2,4.4-2,4.4l-14.3,9.8l-1.1,0.8v11l2.4-2l20.8-18.1
	c0,0,4.4-2.4,5.9,0c1.4,2.4-4.2,8-5.7,9.6c-1.1,1.1-13.6,12.2-19.9,17.7c-2.1,1.9-3.5,3.1-3.5,3.1v6l4.3-3.4l6.8-5.6
	c0,0,3.1-1.6,3.6,0.7c0.6,2.4-2.9,5.9-4.9,7.9c-0.9,0.9-2.8,2.6-4.7,4.2c-2.6,2.1-5.1,4.2-5.1,4.2v12.8c0,0,2.9-3.4,6.4-7.5
	c4.9-5.5,11-12.1,13-12.4c3.6-0.4,5.4,2.3,3.6,4.2c-1,1-9.2,10.8-15.5,18.3c-4.1,4.9-7.5,9-7.5,9s-2.9,14.7,4.4,10.4
	c1.7-1,3.3-2.4,5-4c5.7-5.5,11.2-13.7,14.7-14.4c4.5-0.8,5.1,2.6,5.1,5.1c0,2.7-7.8,11.1-7.8,11.1s17.4-0.5,39.7-25.7
	c22.3-25.3,3.3,4.5,3.3,4.5s-22.2,23.7-27.9,25c-5.8,1.4-3.3,4.5,0.3,3.1c3.5-1.4,4.8-2.9,6-2.1c1.2,0.7-1.7,7.8-9,10.5
	c-5.1,1.9-15.1,2.2-22,1.7c-2.9-0.1-5.2-0.5-6.5-0.9l0.2,5.1c0,0,2.4,1.6,6.9,0.7c0.8-0.1,1.6-0.3,2.6-0.7c6.1-2.4,7.6,1.4,4.4,3.2
	c-1.5,1-3.9,1.8-6.3,2.4c-2.5,0.7-4.9,1-6.3,0.5c-2.6-1-1,18.9,8.3,14.8c9.3-4.2,23.2-20.8,23.2-20.8s2.6-2.3,4.7-0.2
	c2.1,2.2-7.5,16.1-9.7,17.4c-2.2,1.2,16.3-1,31.7-15c15.4-13.9,18.6-10.6,19.8-9.5c1,1.1-6.7,12.5-17.4,19.8
	c-10.8,7.3-33.9,23.6-50.1,24.5l1.6,12.2c0,0,20.6,1.9,48.1-20.6c0,0,2.7-1.9,4.2-1c1.4,0.9,2.3,2.9,0.1,5c-2.3,2.2-10,11.1-17,15.2
	c-7.1,4.1,8.2,1.3,8.2,1.3s3-0.2,2.7,1.9c-0.4,2-4,3.8-7.1,3.8c-3,0-11.8-0.4-13.7-0.4c-1.8,0-3,4.5,2.6,4.1c5.6-0.4,7.8-1.4,8.8-1
	c1,0.6,2.3,2.6-0.3,4.1c-2.6,1.4-12.5,2.1-14,2.1c-1.6,0,0.1,2.7,4.8,2.1c4.7-0.5,3.3,4.2-2.7,3.7c-4.5-0.5-13.6-0.4-22-1.3
	c-2.5-0.2-4.9-0.6-7.2-1c0,0-1.4-0.4-1.4,4.1c0,1.8,3.4,5,10,7.1h0.1c9.2,2.9,24.5,3.8,45.2-3.7c35.6-12.9,32.1-5.2,28.4-3.1
	c-3.6,2.1-15.5,6.6-16.3,6.6c-0.7,0-4.5,3.5-0.7,3.5c3.8,0,9.9-1.4,11.2,0c1.4,1.3-1,4.9-4.9,4.9c-3.8,0-38.6,17.2-52.8,18.7
	c-4,0.5-5.9,1.8-6.2,3.3c0,0.4,0,0.8,0.2,1.1v0.1c1.4,3.4,10.4,6.8,21,1.9c16.8-7.6,25.5-10.8,34.4-13.2c8.8-2.4,19.4-2.9,13.5,4.7
	c-5.9,7.4-19.2,12.3-21.5,17.1c-2.3,4.9,14.6,2.4,14.6,2.4s6.6,1.1,1,4.4c-5.5,3.1-27.1-1.1-29.3,1c-2.2,2.1-0.8,13.1,6.6,13.8
	c7.4,0.7,8.8,6.6,3.1,6c-5.5-0.7-8.7,3.8-3.8,4.9c4.9,1.2,11.5,1.1,9.8,4c-1.7,2.9-23.6,5.2-36.3,2.9c-12.7-2.4,6.1,31,46.1,8
	c39.9-23,46.2-32.4,50-32.4c3.7,0,10,4,3.7,10.3c-6.2,6.2-22,24.5-37.3,33.3c-15.3,8.8,16.8,13.3,16.8,13.3s5-1.1,5,2.9
	c0,4.1-20.6,3.1-30.5,3.1c-9.9,0-4.9,2.6,0.6,3.9c5.6,1.4,10.2,3.2,10.2,6.4c0,3.2-34.8,1.3-49.5-4.4c-8.8-3.4-10.3,5.6-10,13.2
	c0.1,0.1,0.2,0.2,0.3,0.3c7.5,4.4,77.3,11.1,87.8,8.8c10.6-2.4,25.8-3.8,21.8,1.4c-4,5.3-22,8.1-22,8.1s-10.8,2.4-5.3,7.8
	c5.5,5.4,57,0.1,43.6,7.9c-13.5,7.7-41.5,2.9-41.5,6c0,2.9,18.4,10.2,7.7,8.8c-10.7-1.4-25.2-6.9-27-2.9
	c-1.8,4.2,13.3,6.9,11.1,11.4c-2.1,4.7-23.3-1-24,1.2c-0.7,2.2,13.7,6.5,11.7,10.9c-2.1,4.5-51.6-15.2-54.4-9.3
	c-2.9,5.8,5.6,25.9,34.8,18.7c29.3-7.2,70-5.8,67.8-0.8c-2.2,5-36.1,8.3-36.1,14.1c0,5.7,9.7,2.9,9.7,2.9s84.2-13.2,79.6-1.3
	c-4.7,11.9-41.1,14.7-46.7,17.9C386.3,752.4,375.2,756.3,377.7,758.8z"/>
</svg>
