<?xml version="1.0" encoding="utf-8"?>
<!-- Generator: Adobe Illustrator 20.1.0, SVG Export Plug-In . SVG Version: 6.00 Build 0)  -->
<!DOCTYPE svg PUBLIC "-//W3C//DTD SVG 1.1//EN" "http://www.w3.org/Graphics/SVG/1.1/DTD/svg11.dtd">
<svg version="1.1" id="Layer_1" xmlns="http://www.w3.org/2000/svg" xmlns:xlink="http://www.w3.org/1999/xlink" x="0px" y="0px"
	 width="1920px" height="900px" viewBox="0 0 1920 900" style="enable-background:new 0 0 1920 900;" xml:space="preserve">
<style type="text/css">
	.st0{fill:#006E2B;}
	.st1{fill:#FFFFFF;}
</style>
<rect class="st0" width="1920" height="899.2"/>
<g>
	<g>
		<path class="st1" d="M1538.1,448c-8.5,2-15.2,4-15,17.5c0.2,13.5,1.7,21.3,3.7,27.6c2.3,6.8,7.2,8.7,12.4,8.8
			c0.2-0.9,6.1-16.2,6.1-16.2l1.5,15.6l2,11.6c0.3,1.4,1.9,2.1,3.1,1.3c4.4-2.8,13.3-10.3,16.1-26.4c3.8-21.8-3.6-35.5-7.8-38.3
			C1556,446.6,1549.4,445.4,1538.1,448z"/>
		<path class="st1" d="M1561.6,336.7l-0.9,25.4c0,0,2.9-7.3,9.4-10.1c3.6-1.6,10.5,0.2,11.2,0.3l-16.8-16.6
			C1563.5,334.7,1561.8,335.3,1561.6,336.7z"/>
		<path class="st1" d="M1450,468.9c-13.8,3.3-27.7,16.2-34.5,23.2c-6.8,7-6.7,8.7-6.4,12.6c0.3,3.8,8.1,10.9,11.9,13.7
			c3.7,2.8,17,2.8,24.2-5.6c5.1-5.3,14.3-14,20-25.9l-11.2,3.7l10.9-11.4C1465.5,472.4,1462.1,466,1450,468.9z"/>
		<path class="st1" d="M1644.7,468c4.7-0.8,17.4-2.6,27.7-12c-2.4-2.4-7.9-6-11.2-8.2c-9.8,2.7-16.8,8.4-20.3,15.4
			C1639.2,467.3,1640,468.8,1644.7,468z"/>
		<path class="st1" d="M1752.3,552.2c-8.4-1.5-17.8-3.7-24.4-9.6c-0.4,2-0.1,4,0.7,5.9c0.9,2,2.2,4.1,4.1,5.3c2.3,1.5,5.4,2,8,2.6
			c2.9,0.6,5.8,1,8.7,1.4c10.1,1.5,20.6,1.6,30.7-0.2c2.8-0.5,5.5-1.1,8.2-2c0.8-0.3,2-1,2.8-1c-3.8,0.2-7.7,0.1-11.5,0
			C1770.5,554.5,1761.3,553.9,1752.3,552.2z"/>
	</g>
	<path class="st1" d="M1813.2,610.6c-2.1-6.4-2.2-44.4-2.2-44.4s-1.3-13.3-9.5-9.8c-8.1,3.6-20.4,5.4-24.9,6.3
		c-4.5,0.8-32.8,2.5-44.4-4c2,29.6,37.8,31.4,43,31.5c0.2,0,0.4,0,0.4,0s0,0,0.1,0c0.8,0.1,5,0.4,16.8-2c-7.1,4.5-23.2,4.9-24.6,5
		c-0.1,0.4-0.2,0.8-0.2,1.3c0,0.8,0.1,1.8,0.4,2.6c0.1,0.4,0.2,0.6,0.5,0.9c0.2,0,0.2,0.1,0.5,0.2c1.7,0.9,3.4,1.7,5.2,2.2
		c4.4,1.4,8.9,2.2,13.5,2.5c-0.6,0.4-1.3,0.6-1.9,0.6c-0.5,0.1-1.1,0.1-1.5,0.2c-1.1,0-2.1,0.2-3.3,0.2c-2.2,0-4.5,0.1-6.9,0
		c-1.7-0.1-3.3-0.2-5-0.4c-1.7-0.1-3.4-0.5-5-0.4c-0.5,0-0.8,0.1-1.1,0.2c-12,3.8-23.9,7.6-36,11.4c-3.8,1.3-7.6,2.5-11.5,3.7
		c-0.7,0.2-3.3-2.1-3.9-2.5c-3-2.2-5.4-5-7.6-8.2c-4.7-6.9-5.4-16.1-2.4-23.8c5.4-13.4,12.8-25.6,21-37.5c0.4-0.5,0.7-1.1,1.1-1.5
		c6.4-7.6,15-18.2,31.1-19.9c7.2-1.4,14.2-4.7,12-14.7c-1.4-6.9-2.7-15-3.9-21.6c-1.2-6-6.7-4.6-10.8-7.5
		c-4.1-2.8-17.6-16.5-14.8-39.4c0.9-7.2,3-10.8-2.7-14.9c-3.3-2.8-9.1-8.1-12.6-16.1c-3.4-7.9-12-9.2-15.7-1.3
		c-14.1,20.6-27.2,23.8-27.2,23.8s-6.4-1.5-8.2,0.6c-1.8,2.2,0.6,6.2,0.6,6.2s-6.2-2-7.7,0.8c-1.5,2.8,2.4,5.9,2.4,5.9l10.7,6.7
		c1.4,0.9,1.5,3.1,0.1,4.1c-3.3,2.5-9.1,6.4-15.2,8.6c5.6,5.4,13,9.5,21.1,7.8c2.7-0.6,5.3-1.7,7.7-3.2c2.7-1.7,4.6-4,7.1-6
		c1.4-1.2,3-2.1,4.5-3c0.8-0.4,1.7-0.8,2.4-1.1c0.6-0.2,1.9-0.1,2.4-0.5c-3.9,2.5-6.7,7.1-9.2,10.9c-0.8,1.3-1.9,2.6-2.6,4.1
		c-1.5,3.6-1.4,8.1-1.3,12c0.2,8.4,0.8,17.4,10.4,20.7c6.9,2.6,17.4,4.6,24.7,1.7c-8.5,7.9-22,3.2-32.1,3.4
		c-7.7,0.2-11,5.6-11.7,12.6c-0.6,5.8-0.6,11.4-4.1,21.8c-3.6,10.5-15.7,27.6-22,31.3c-6.3,3.8-16.3,7.1-27.1-2.8
		c-13.7-12.3-10.9-25.1-9.2-31.9c1.5-6.7,5.8-23.7,19.8-39c7.7-7.8,5.3-16.3-0.1-24.4c-6.3-9.5-9.9-21.4-12-32.4
		c-2-12.1-0.8-22.6,2.8-34.2c1.9-8.8,4.1-15.9-17.4-22.3c-11.2-3.8-23.6-29.1-29.8-32.9c-6.3-3.9-15.9-7.6-22.1,7.9
		c-5.1,13-3.4,31.3,3.8,43.1c6.2,10.2,16,15,27.6,15.6c-4.4,2.6-16,1.8-16,1.8c0.2,5.3-2,10.8-2,10.8l7.1-0.7c2.5-0.4,4.9,1.5,5.1,4
		c0.7,5.6-2.4,11-7.3,13.4c-2.7,1.2-5,2.4-5.4,3.3c-0.5,0.8-0.4,2-0.2,2.8c0.1,1.7,0.4,3.2,0.6,4.9c0.7,3.7,1.5,7.2,2.6,10.9
		c0.4,0.9,0.6,2,0.9,3.1c0.2,0.8,1.4,1.4,2.2,1.9c1.2,0.7,2.4,1.4,3.6,2c3.4,1.7,7.1,3,10.9,3.6c3.3,0.6,6.6,0.5,9.9-0.2
		c-7.5,7-25.8,3-25.8,3c-4.1,4.4-4.1,10.5,0,16.8c-0.5,4-4.1,35.8-9.1,45.1c-5,9.4-38.7,16.1-38.8,16.1c0.2-0.1,1.7-6.7,1.9-7.2
		c1.2-3.3,3.8-6,4.9-9.5c0.9-3.3,0.1-7-1.7-10.1c-2.4-4-5.9-6.9-9.1-10.1c-6.2-6.2-4.7-32.2-4.7-32.2c-7.9-14-10.4-30.7-6-46.2
		c0.6-2.1,1.3-4.1,2.7-5.8c3.7-4.5,13.9-4.5,19.2-5.4c2.4-0.5,5.4-0.5,7.3-2c2.7-2.4,3.9-7.6,2-10.7c-2.1-3.4-6.3-4.6-10.1-4.5
		c-5.8,0.2-11.5,0.5-17.2,1.5c10.3-7,16.9-5.7,17.3-5.6c-1.5-3.2-3.1-7.8-2-16.3c0.5-4.7-1.9-9.8-12-8.5c-10.1,1.3-22.1,4.4-33,7.8
		c-11,3.7-9.9,10.3-8.8,16.3c1.3,6,3.3,15,3,22.6c-0.4,7.5-7,20.2-7.5,29.5c-0.5,9.4,10.2,23.4,10.1,30.8c0,7.3-7.9,17.3-9.6,25.9
		c-1.7,8.6,4.7,18.1,3.1,28.8c-1.3,8.2-7.2,13.6-14.3,17.3c-13.6,7.2-28.1,9.9-43.3,9.7c-7-0.1-14.1-0.4-21.1-0.7
		c-3.4-0.2-6.9-0.5-10.2-0.6c-2.4-0.2-6.5-1.4-8.8-0.7c62.8-19.1,59.8-63.2,59.8-63.2s-2.2,1.4-2.6,1.5c-1.8,1.1-3.8,2.1-5.8,2.8
		c-4.6,1.4-10.4,2-15,0.9c-6.9-1.4-11.2-6.6-14.8-12.3c-3.8-2-8.8-0.6-11.6,1.8c-2.8,2.4-4.1,8.9-4.1,8.9l-2.1,24.4
		c0,0-2.5-22.7-2.6-24.7c-1.7,0.1-3.6,0.5-5.2,1.5c-4.1,2.7-3.3,9.7-4.3,13.9c0,1.7,1.1,18.9,1.1,18.9l-5-12.6
		c-2.5,2.8-5.6,5.3-8.1,7.5c-5.4,4.6-11,8.6-17.1,12.1c-3.4,1.9-6.2,5.2-6,9.2c0.1,4.1,3.8,8.1,5.8,11.5c4.7,8.5,8.8,17.4,11.1,26.9
		c2.6,6.4,7.1,5.1,10.3,4.6c3.1-0.5,7.9-1.1,8.4-1.2c0,0,7.9-1.4,16.8-6.3c-3.7,7.6-11.6,12.3-12.7,12.7c3.3,4.7,6.9,10.2,8.5,12.7
		c2.5,3.8,3.3,7.1,17.6,5.7c4.7-1.2,9-1.8,13.3,6c1.3,2.2,2.8,4.6,4.5,6.7c1.5,2,3.8,3.8,6.4,4c2.6,0.4,5.1-0.7,7.5-1.8
		c5.7-2.5,11.5-4.9,17.1-7.8c-3.9,7.9-17.9,18.1-17.9,18.1c4,7.6,10.4,20.2,13.7,37.2c3.2,17.8-3.2,34.6-4.3,45.7
		c-2.1,16.6,11.7,13.5,15,27.2c0.7,3.3,4.1,4.7,7.2,4.7c6.5,0,12.3-3.2,18.7-0.9c7.1,2.4,13.4,10.2,21.4,7.7c3-0.9,5.6-2.8,8.1-4.6
		c10.8-8.1,21.1-16.8,31.4-25.6c-5.2,5.8-9.6,12.6-14.9,18.1c-5,5-9.8,9.9-15.7,13.9c-3.3,2.2-8.6,4.5-12.8,4
		c-4.9-0.4-9-2.8-13.1-5.2c-2.1-1.2-4.1-1.8-6.6-1.8c0.6,0,0.2,3.8,0.2,4.4c-0.1,1.8-0.5,3.6-1.1,5.3c-2.1,5.7-6.6,10.5-10.8,14.4
		c-1.9,1.8-3.9,3.3-6,4.7c-0.1,0.1-0.2,0.1-0.4,0.2l19.9,7.9c0,0-7.7,4.4-13.4,6.4c3.6,4.1,12,3.6,12,3.6l1.1,30.7l14.3-16.8
		l-16.3,53.8h173h-0.5v-29.6c0.1-5.3,0.1-23.1,6.4-37.4c-3.2,0.8-6.8,0.8-6.8,0.8c-7.2,0.9-14-4.3-14.8-11.6l-0.6-4
		c-0.2-1.4,0.8-2.6,2.2-2.8l23.9-3.1c-12.6-5.2-18-19.4-18.9-25.7c19.1-7.9,20-8.5,20.6-22.7c0.6-14.2,2.2-25.9,10.3-39.3
		c7.9-13.4,17.5-17.2,27.8-20.7c7.3-2.5,7.9-0.9,10.7-10.8c2.6-9.7,8.2-16.8,11.8-24.4c3.7-7.5,4.3-9.4,16.2-16.7
		c12-7.3,25.5-14.8,60.7-22C1816.7,629.2,1818.6,625.3,1813.2,610.6z M1737.3,510.8c1.8,9-18.5,18.5-29.7,9.7
		C1719.2,520.8,1728.3,518.7,1737.3,510.8z M1525.7,406.2c-11.5-0.4-20.6,1.8-29.6,9.7C1498.7,402.4,1516.7,399.1,1525.7,406.2z
		 M1499.6,424.4c1.2-11.5,20-17.5,29.7-9.6C1517.7,414.4,1508.6,416.6,1499.6,424.4z M1616.3,489.4c-1.3,11.5-20.1,17.6-29.7,9.7
		C1600,500.6,1614.6,492,1616.3,489.4z"/>
</g>
<g>
</g>
<g>
</g>
<g>
</g>
<g>
</g>
<g>
</g>
<g>
</g>
</svg>
