<svg xmlns="http://www.w3.org/2000/svg" width="256.3" height="180.7" viewBox="210.8 481.6 256.3 180.7" enable-background="new 210.8 481.6 256.3 180.7"><style type="text/css">.st0{fill:#FFFFFF;}</style><path class="st0" d="M375.9 501.1h62.3v15.5h-62.3zm86.3 96.2s7.3-66.5-52.5-66.5-57 53.2-57.3 64.6c-.4 11.3 8 52.9 53.3 52.9s54.9-29.5 54.9-36.2h-29.5s-3.3 12.6-24.4 12.6c-26.1 0-25.1-27.5-25.1-27.5h80.6zm-54.2-42.3c23.2 0 24.2 23.2 24.2 23.2h-49.9c0-7 5.7-23.2 25.7-23.2zm-91.4 11.3c9-4.7 15.1-12.2 17.7-21.9 3.5-13.2-.1-31.7-11.8-40-5.8-4.1-12.2-6.8-19.1-8.3-.5-.1-9.7-1.6-9.7-1.4h-79.9v154.6h79.9c25.8 0 46.8-15.9 46.8-46.7 0-30.7-23.9-36.3-23.9-36.3zm-67.2-44.8h33.2s22.1-2.5 22.1 16.7c0 19.1-20.3 17.4-20.3 17.4l-35.1.1v-34.2zm35.1 100.9h-35.1v-41.1h33.2s25.3-3.2 25.3 19.1c0 24.2-23.4 22-23.4 22z"/></svg>