<?xml version="1.0" encoding="utf-8"?>
<!-- Generator: Adobe Illustrator 20.1.0, SVG Export Plug-In . SVG Version: 6.00 Build 0)  -->
<!DOCTYPE svg PUBLIC "-//W3C//DTD SVG 1.1//EN" "http://www.w3.org/Graphics/SVG/1.1/DTD/svg11.dtd">
<svg version="1.1" id="Layer_1" xmlns="http://www.w3.org/2000/svg" xmlns:xlink="http://www.w3.org/1999/xlink" x="0px" y="0px"
	 width="256.3px" height="180.7px" viewBox="210.8 481.6 256.3 180.7" style="enable-background:new 210.8 481.6 256.3 180.7;"
	 xml:space="preserve">
<style type="text/css">
	.st0{fill:#FFFFFF;}
</style>
<rect x="375.9" y="501.1" class="st0" width="62.3" height="15.5"/>
<path class="st0" d="M462.2,597.3c0,0,7.3-66.5-52.5-66.5c-59.8,0-57,53.2-57.3,64.6c-0.4,11.3,8,52.9,53.3,52.9
	c45.3,0,54.9-29.5,54.9-36.2h-29.5c0,0-3.3,12.6-24.4,12.6c-26.1,0-25.1-27.5-25.1-27.5H462.2z M408,555c23.2,0,24.2,23.2,24.2,23.2
	h-49.9C382.3,571.2,388,555,408,555z"/>
<path class="st0" d="M316.6,566.3c9-4.7,15.1-12.2,17.7-21.9c3.5-13.2-0.1-31.7-11.8-40c-5.8-4.1-12.2-6.8-19.1-8.3
	c-0.5-0.1-9.7-1.6-9.7-1.4h-79.9v154.6h79.9c25.8,0,46.8-15.9,46.8-46.7C340.5,571.9,316.6,566.3,316.6,566.3z M249.4,521.5h33.2
	c0,0,22.1-2.5,22.1,16.7c0,19.1-20.3,17.4-20.3,17.4l-35.1,0.1V521.5z M284.5,622.4h-35.1v-41.1h33.2c0,0,25.3-3.2,25.3,19.1
	C307.9,624.6,284.5,622.4,284.5,622.4z"/>
</svg>
