<svg xmlns="http://www.w3.org/2000/svg" width="104.6" height="150.1" viewBox="0 0 104.6 150.1"><style type="text/css">.st0{fill:#FFFFFF;}</style><path class="st0" d="M93.1 86c-6.6 10-18.3 14-29.9 12.2-7.6-1.1-15.1-4.6-19.7-10.7-4-5.3-5.4-12.4-4.5-18.9.7-4.3 2.3-8.4 4.7-12.1.5-.8 7.8-9.9 8.4-9.3-5.9-5.8-9.7-14.5-7.2-22.4 2-6.4 8-11.1 14.6-12.5 4.6-1 9.5-.5 13.9 1.2 5.1 2 8.7 6.1 9.4 7.9-2.7-1.3-5.4-2.6-8.3-3.1-12.2-2-24.6 6.2-22.4 18 .7 3.4 3 8.1 5.8 11.1-6.5 8.5-11.9 21.2-5.9 31.4 3.1 5.2 8.7 8.4 14.6 9.8 5 1.2 10.2 1.3 15.3 1.1 2.8-.3 9.5-1.1 11.2-3.7zM48.1 95v21.8c0 12.2-9.9 22.1-22.1 22.1-9.1 0-16.9-5.5-20.3-13.4 3.2 2.4 6.4 4 9.9 4.6 17.3 2.5 18.4-13.2 18.4-13.2v-92.3l9.6 15.1s3.8 5.8 5.5 7.2c0 0-13.5 9.4-12.9 25.8.7 16.3 10.7 21.3 11.9 22.3z"/></svg>