<?xml version="1.0" encoding="utf-8"?>
<!-- Generator: Adobe Illustrator 20.1.0, SVG Export Plug-In . SVG Version: 6.00 Build 0)  -->
<!DOCTYPE svg PUBLIC "-//W3C//DTD SVG 1.1//EN" "http://www.w3.org/Graphics/SVG/1.1/DTD/svg11.dtd">
<svg version="1.1" id="Layer_1" xmlns="http://www.w3.org/2000/svg" xmlns:xlink="http://www.w3.org/1999/xlink" x="0px" y="0px"
	 width="104.6px" height="150.1px" viewBox="0 0 104.6 150.1" style="enable-background:new 0 0 104.6 150.1;" xml:space="preserve"
	>
<style type="text/css">
	.st0{fill:#FFFFFF;}
</style>
<path class="st0" d="M93.1,86c-6.6,10-18.3,14-29.9,12.2c-7.6-1.1-15.1-4.6-19.7-10.7c-4-5.3-5.4-12.4-4.5-18.9
	c0.7-4.3,2.3-8.4,4.7-12.1c0.5-0.8,7.8-9.9,8.4-9.3c-5.9-5.8-9.7-14.5-7.2-22.4c2-6.4,8-11.1,14.6-12.5c4.6-1,9.5-0.5,13.9,1.2
	c5.1,2,8.7,6.1,9.4,7.9c-2.7-1.3-5.4-2.6-8.3-3.1c-12.2-2-24.6,6.2-22.4,18c0.7,3.4,3,8.1,5.8,11.1c-6.5,8.5-11.9,21.2-5.9,31.4
	c3.1,5.2,8.7,8.4,14.6,9.8c5,1.2,10.2,1.3,15.3,1.1C84.7,89.4,91.4,88.6,93.1,86z"/>
<path class="st0" d="M48.1,95v21.8c0,12.2-9.9,22.1-22.1,22.1c-9.1,0-16.9-5.5-20.3-13.4c3.2,2.4,6.4,4,9.9,4.6
	c17.3,2.5,18.4-13.2,18.4-13.2V24.6l9.6,15.1c0,0,3.8,5.8,5.5,7.2c0,0-13.5,9.4-12.9,25.8C36.9,89,46.9,94,48.1,95z"/>
</svg>
