<?xml version="1.0" encoding="utf-8"?>
<!-- Generator: Adobe Illustrator 20.1.0, SVG Export Plug-In . SVG Version: 6.00 Build 0)  -->
<!DOCTYPE svg PUBLIC "-//W3C//DTD SVG 1.1//EN" "http://www.w3.org/Graphics/SVG/1.1/DTD/svg11.dtd">
<svg version="1.1" id="Layer_1" xmlns="http://www.w3.org/2000/svg" xmlns:xlink="http://www.w3.org/1999/xlink" x="0px" y="0px"
	 width="256.3px" height="180.7px" viewBox="210.8 481.6 256.3 180.7" style="enable-background:new 210.8 481.6 256.3 180.7;"
	 xml:space="preserve">
<style type="text/css">
	.st0{fill:#D6708D;}
	.st1{fill:#FFFFFF;}
</style>
<g>
	<path class="st0" d="M338.6,661c0.4,0,0.9,0,1.3,0h-2.6C337.8,661,338.2,661,338.6,661z"/>
	<path class="st1" d="M370.8,648.7c-0.2-7.3,0.2-30.4,0.2-30.4s-0.2-12.8-7.5-19.3c0.6,0.6,5.5-0.7,6.4-0.9c2.3-0.4,4.6-0.9,6.8-1.5
		c4.4-1.2,8.8-2.8,12.9-4.9c8.5-4.4,15.3-10.8,19.4-19.6c3.4-7.5,4.9-15.9,5.2-24.1c0.5-12.2-1.1-23.5-11.1-34.4
		c0,0,5.9-13-1.3-29.8c0,0-14.2-2-30.9,11.6c0,0-25-8.5-55.9,0.1c0,0-17.6-13.1-30.7-11.6c0,0-6.7,12.2-1.4,29.8
		c0.2,0.6-4.4,6.1-4.9,6.8c-3,5-5,10.1-5.8,15.9c-2.5,17.1,1.6,35.5,13.7,48.2c0,0,9.4,11.3,36.7,14.5c0,0-6.5,5.7-7.1,14.9
		c0,0-7.9,3.1-12.1,2.8c-4.2-0.3-9.5,0-15.4-5.9c-2.7-2.7-4.3-6.1-6.7-9c-2.3-2.9-5.3-5.3-8.6-6.9c-3.4-1.6-7.3-2.5-10.9-1.4
		c-0.5,0.1-1.1,0.4-1.3,0.9c-0.3,0.6,0.1,1.4,0.5,1.9c1.5,1.9,3.6,3.1,5.6,4.6c4.7,3.5,8.4,8.7,10.4,14.2c2,5.4,6.2,9.7,11.3,12.3
		c5.6,2.9,11.8,3.6,18,3.5c0.6,0,8.9-0.2,8.9-1.4l0.3,21.1c0,0-0.5,4.4-4.2,5.3c9.7,2.9,19.9,4.5,30.4,4.6h3.2
		c10.8-0.2,21.3-1.8,31.2-4.9C373.9,655.2,370.9,653.6,370.8,648.7z"/>
</g>
</svg>
