<svg xmlns="http://www.w3.org/2000/svg" width="256.3" height="180.7" viewBox="210.8 481.6 256.3 180.7" enable-background="new 210.8 481.6 256.3 180.7"><style type="text/css">.st0{fill:#D6708D;} .st1{fill:#FFFFFF;}</style><path class="st0" d="M338.6 661h2.6-2.6z"/><path class="st1" d="M370.8 648.7c-.2-7.3.2-30.4.2-30.4s-.2-12.8-7.5-19.3c.6.6 5.5-.7 6.4-.9 2.3-.4 4.6-.9 6.8-1.5 4.4-1.2 8.8-2.8 12.9-4.9 8.5-4.4 15.3-10.8 19.4-19.6 3.4-7.5 4.9-15.9 5.2-24.1.5-12.2-1.1-23.5-11.1-34.4 0 0 5.9-13-1.3-29.8 0 0-14.2-2-30.9 11.6 0 0-25-8.5-55.9.1 0 0-17.6-13.1-30.7-11.6 0 0-6.7 12.2-1.4 29.8.2.6-4.4 6.1-4.9 6.8-3 5-5 10.1-5.8 15.9-2.5 17.1 1.6 35.5 13.7 48.2 0 0 9.4 11.3 36.7 14.5 0 0-6.5 5.7-7.1 14.9 0 0-7.9 3.1-12.1 2.8-4.2-.3-9.5 0-15.4-5.9-2.7-2.7-4.3-6.1-6.7-9-2.3-2.9-5.3-5.3-8.6-6.9-3.4-1.6-7.3-2.5-10.9-1.4-.5.1-1.1.4-1.3.9-.3.6.1 1.4.5 1.9 1.5 1.9 3.6 3.1 5.6 4.6 4.7 3.5 8.4 8.7 10.4 14.2 2 5.4 6.2 9.7 11.3 12.3 5.6 2.9 11.8 3.6 18 3.5.6 0 8.9-.2 8.9-1.4l.3 21.1s-.5 4.4-4.2 5.3c9.7 2.9 19.9 4.5 30.4 4.6h3.2c10.8-.2 21.3-1.8 31.2-4.9-2.2-.5-5.2-2.1-5.3-7z"/></svg>