<?xml version="1.0" encoding="utf-8"?>
<!-- Generator: Adobe Illustrator 20.1.0, SVG Export Plug-In . SVG Version: 6.00 Build 0)  -->
<!DOCTYPE svg PUBLIC "-//W3C//DTD SVG 1.1//EN" "http://www.w3.org/Graphics/SVG/1.1/DTD/svg11.dtd">
<svg version="1.1" id="Layer_1" xmlns="http://www.w3.org/2000/svg" xmlns:xlink="http://www.w3.org/1999/xlink" x="0px" y="0px"
	 viewBox="0 0 900 600" style="enable-background:new 0 0 900 600;" xml:space="preserve">
<style type="text/css">
	.st0{fill:none;}
	.st1{fill:#006E2B;}
	.st2{fill:#FFFFFF;}
</style>
<g>
	<g>
		<path d="M205,496.7l-22.5,1l42.8-65c-9.9,0.5-19.8,0.5-29.7,0.5c-9.7,0-19.5,0-29-0.5c-0.2,8.4-0.3,13.6-1.2,19h3
			c3.1-11,7.9-13.1,16.2-13.3l17.9-0.4l-43.2,65.9c10.7-0.5,21.4-0.5,32.2-0.5c10.5,0,21.1,0,31.4,0.5c0.2-7.1,0.4-14.2,1-21.1h-2.8
			C219.4,490.3,216,496.2,205,496.7z"/>
		<path d="M254.4,455.2c-14.2,0-24.7,11.4-24.7,25.1c0,14.8,8.3,24.8,23.4,24.8c14.7,0,24.7-10,24.7-25
			C277.7,465.3,269.4,455.2,254.4,455.2z M255.9,497.2c-9.3,0-13.6-13.5-13.6-22c0-6.1,2.4-15,10.3-15c9.3,0,12.4,15.2,12.4,22
			C265,488.7,264,497.2,255.9,497.2z"/>
		<path d="M356,496.4v-25.4c0-9.3-3.3-15.7-12.5-15.7c-6.1,0-11.4,4.5-16,8.9c-1.2-4.8-5-8.9-11.9-8.9c-5.8,0-11.1,4.5-15.7,8.9
			v-8.9h-2.8c-4.4,2.2-9.3,4.2-15.1,5v3c5.2,0,5.5,0.8,5.5,6.1v27.1c0,4.5-2.7,4.5-5.2,4.6v3c3.6-0.5,7.6-0.5,11.5-0.5
			s7.9,0,12.1,0.5v-3c-2.5-0.1-5.1-0.1-5.1-4.6v-30.2c2.7-2,5-3.1,6.8-3.1c2.6,0,7.5,0.6,7.5,8.2v25c0,4.5-2.7,4.5-5.1,4.6v3
			c3.6-0.5,7.6-0.5,11.5-0.5s7.9,0,12.1,0.5v-3c-2.5-0.1-5.2-0.1-5.2-4.6v-29.7c2.3-1.9,5-3.6,7.9-3.6c5.5,0,6.4,5,6.4,8.2v25
			c0,4.5-2.7,4.5-5.1,4.6v3c3.6-0.5,7.6-0.5,11.5-0.5s7.9,0,12.1,0.5v-3C358.7,500.8,356,500.8,356,496.4z"/>
		<path d="M397.6,455.2c-6.2,0-10.7,3.3-15,8.4h-0.2v-25c0-3.3,0.2-6.6,0.4-9.9h-2.9c-3.9,2.5-10.4,4.8-16.3,5.5v3
			c5.2,0,5.5,0.8,5.5,6.1v61.8h1.9c3.4-2.1,5.6-3.4,9.2-4.9c3.9,4,6.8,4.9,12,4.9c15.5,0,22-13.6,22-27.3
			C414.1,467.7,409.6,455.2,397.6,455.2z M389.6,499.5c-2.7,0-5-1.8-7.2-4v-28.9c2.1-1.3,4.5-2.6,7.1-2.6c8.7,0,10.8,9.8,10.8,18.2
			C400.3,489.2,398.3,499.5,389.6,499.5z"/>
		<path d="M439.4,496.4v-31.3c0-3.3,0.2-6.6,0.4-9.9h-2.9c-3.9,1.9-10.4,4.2-16.3,5v3c5.2,0,5.5,0.8,5.5,6.1v27.1
			c0,4.5-2.7,4.5-5.1,4.6v3c3.6-0.5,7.6-0.5,11.5-0.5s7.9,0,12.1,0.5v-3C442.1,500.8,439.4,500.8,439.4,496.4z M432.8,431.4
			c-4.9,0-7.7,3.4-7.7,8.2c0,4.1,2.9,7.4,7.3,7.4c5,0,7.7-3.4,7.7-8.2C440.1,434.8,437.2,431.4,432.8,431.4z"/>
		<path d="M489.4,486.5c-3.5,4.7-7.9,7.1-13.4,7.1c-9.4,0-14.5-9.5-15-18.1H490c0-11.8-6.6-20.3-18.4-20.3
			c-14.8,0-21.4,12.3-21.4,25.5c0,12.5,6.4,24.4,20.2,24.4c12,0,18.3-7.8,21.5-17.8L489.4,486.5z M469.2,459.4c6.6,0,7.2,6.5,7.5,12
			h-15.6C461.1,466.4,462.7,459.4,469.2,459.4z"/>
		<path d="M526.4,474.2c14.8,0,27.8-5.6,27.8-22.5c0-13.6-9.3-19.1-21.5-19.1c-6.1,0-12.3,0.5-19.4,0.5c-5.2,0-9.6,0-15.5-0.5v3
			c6.9,0.5,6.9,2.1,6.9,7.7v49.9c0,5.6,0,7.2-6.9,7.7v3c5.1-0.5,10.2-0.5,15.2-0.5c5.2,0,10.5,0,15.5,0.5v-3
			c-6.9-0.5-6.9-2.1-6.9-7.7v-19H526.4z M521.7,439.5c0-1.7,1.6-1.9,3.1-1.9c9.7,0,11.9,8.7,11.9,17c0,11.3-2.8,15.4-15,15.4V439.5z
			"/>
		<path d="M589.7,455.2c-5.4,0-8.8,6-12.2,11.6h-0.2v-11.6H575c-4.4,2.2-9.3,4.2-14.5,5v3c4.7,0,5,0.8,5,6.1v27.1
			c0,4.5-2.7,4.5-5.2,4.6v3c3.6-0.5,7.6-0.5,11.5-0.5c3.9,0,7.9,0,14,0.5v-3c-4.3-0.1-7-0.1-7-4.6V470c1-1.4,2.8-4,4-4
			c0.7,0,1.5,0.3,1.5,2.1c0,3.8,1.7,4.6,5.5,4.6c6.2,0,6.5-2.8,6.5-8.1C596.2,459.7,595.6,455.2,589.7,455.2z"/>
		<path d="M624.7,455.2c-14.2,0-24.7,11.4-24.7,25.1c0,14.8,8.3,24.8,23.4,24.8c14.6,0,24.6-10,24.6-25
			C648.1,465.3,639.8,455.2,624.7,455.2z M626.3,497.2c-9.3,0-13.6-13.5-13.6-22c0-6.1,2.4-15,10.3-15c9.3,0,12.4,15.2,12.4,22
			C635.4,488.7,634.3,497.2,626.3,497.2z"/>
		<path d="M677.9,455.2c-14.2,0-24.6,11.4-24.6,25.1c0,14.8,8.3,24.8,23.4,24.8c14.7,0,24.7-10,24.7-25
			C701.2,465.3,692.9,455.2,677.9,455.2z M679.5,497.2c-9.3,0-13.6-13.5-13.6-22c0-6.1,2.4-15,10.3-15c9.3,0,12.4,15.2,12.4,22
			C688.6,488.7,687.5,497.2,679.5,497.2z"/>
		<path d="M732.1,428.7c-14.3,0-19.8,8.3-20.1,28.8h-5.2v4.2h5.2v34.7c0,4.5-2.7,4.5-5.2,4.6v3c3.6-0.5,7.6-0.5,11.5-0.5
			c3.9,0,7.9,0,13.1,0.5v-3c-3.5-0.1-6.1-0.1-6.1-4.6v-34.7h8.2v-4.2h-8.2c0-5.5-0.3-10.8-0.3-16c0-4.7,0-8.6,3.7-8.6
			c2.8,0,2.8,2.1,2.8,3.7c0,3.1,0,5.9,4.4,5.9c3.4,0,5.1-1.7,5.1-5.4C740.9,430.3,735.7,428.7,732.1,428.7z"/>
		<path d="M176.9,545.3L176.9,545.3c5.8-1.3,8.1-4.1,8.1-8.8c0-2.6-1.5-7.9-10.4-7.9h-10.5c-1,0-2,0-2.8,0c-0.8-0.1-1.6-0.2-2.2-0.2
			v1.2h1.2c2.3,0,2.9,0.5,2.9,3.2v28.1c0,2.7-0.6,3.2-2.9,3.2h-1.2v1.2c1.2-0.2,3.1-0.3,5-0.3h10.3c3.2,0,12.9-1.3,12.9-10.2
			C187.3,548.4,182.5,545.6,176.9,545.3z M168.4,531.1c0-1,0.7-1,2.7-1c5.6,0,8.2,2.2,8.2,7.6c0,6.2-4.3,7.1-9.5,7.1
			c-1.3,0-1.4,0-1.4-0.9V531.1z M172.5,563.4c-1.5,0-4,0-4-2.4v-14.2c0-0.4,0.3-0.5,1.5-0.5c7.7,0,11.7,2.4,11.7,9.6
			C181.7,560.8,178,563.4,172.5,563.4z"/>
		<path d="M206.2,540.6c-2.2,0-5.8,4.5-7,6.1h-0.1v-1.6c0-1.8,0.1-3.4,0.2-5.1h-1.6c-2,1.2-4.5,2.1-7,2.5v1.2h1.1c2.6,0,3,0.8,3,3.4
			v13.8c0,2.7-0.7,3.2-2.4,3.2h-0.9v1.2c1.5-0.2,3.5-0.3,5.5-0.3c1.9,0,3.9,0.1,6.8,0.3V564h-2.3c-1.7,0-2.4-0.5-2.4-3.2v-11.7
			c0.2-1.4,4.2-5.4,5-5.4c0.5,0,0.6,0.8,0.6,1.1c0,1.3,0.6,1.8,2,1.8c1.8,0,2.3-0.5,2.3-2.1C209,542.4,208.5,540.6,206.2,540.6z"/>
		<path d="M232.9,562c-0.6,0.6-1.3,1-2,1c-0.7,0-0.8-0.8-0.8-1.8v-13.3c0-6.1-2.7-8-8.8-8c-4.3,0-8.4,1.9-8.4,6.5
			c0,1.4,0.2,2.1,2.2,2.1c2.1,0,2.1-0.7,2.1-3.1c0-3.1,2.1-4,4.4-4c2.9,0,4.1,1.1,4.1,4.5v3.7c-10.2,1.8-14.4,4.5-14.4,10
			c0,3.5,2.5,6.1,5.8,6.1c3.4,0,6.2-2.2,8.6-4.7v1.1c0,1.3,0.4,3.5,2.5,3.5c2,0,3.9-1.7,5.1-3L232.9,562z M225.8,560
			c-1.7,1.2-3.7,2.4-6,2.4c-2.3,0-3.8-1.8-3.8-4.1c0-4.5,6.5-6.6,9.8-7.5V560z"/>
		<path d="M248.4,563l-6.6,0.2l15.4-22.6c-3.4,0.2-6.7,0.2-10,0.2c-3.4,0-6.7-0.1-10.1-0.2c0,2.3-0.1,4.6-0.2,6.9h1.2
			c0.4-4.2,3.7-4.8,7.2-4.8h5.3l-15.4,22.5c3.5-0.2,7-0.3,10.6-0.3c3.5,0,7,0.1,10.5,0.3c0-2.4,0.3-4.7,0.5-7.1h-1.1
			C254.5,562.4,252,562.9,248.4,563z"/>
		<path d="M269.9,564c-1.7,0-2.4-0.5-2.4-3.2v-15.8c0-1.8,0.1-3.4,0.2-5.1h-1.6c-2.1,1.2-4.5,2.1-7,2.5v1.2h1.1c2.6,0,3,0.8,3,3.4
			v13.8c0,2.7-0.7,3.2-2.4,3.2h-0.9v1.2c1.5-0.2,3.5-0.3,5.5-0.3c1.9,0,4,0.1,5.5,0.3V564H269.9z M265.3,527.7
			c-1.8,0-3.1,1.5-3.1,3.3c0,1.8,1.1,3.3,2.9,3.3c1.8,0,3.1-1.5,3.1-3.3C268.1,529.1,267.1,527.7,265.3,527.7z"/>
		<path d="M284.2,564c-1.7,0-2.4-0.5-2.4-3.2v-30.4c0-1.2,0-2.8,0.2-4.2h-1.2c-1.8,1-4.8,2-6.8,2.3v0.9h0.6c2.1,0,2.9,0.5,2.9,3.3
			v28c0,2.7-0.7,3.2-2.4,3.2h-0.9v1.2c1.5-0.2,3.5-0.3,5.5-0.3s4,0.1,5.5,0.3V564H284.2z"/>
		<path d="M298.5,564c-1.7,0-2.4-0.5-2.4-3.2v-15.8c0-1.8,0.1-3.4,0.2-5.1h-1.6c-2,1.2-4.5,2.1-7,2.5v1.2h1.1c2.6,0,3,0.8,3,3.4
			v13.8c0,2.7-0.7,3.2-2.4,3.2h-0.9v1.2c1.5-0.2,3.5-0.3,5.5-0.3s4,0.1,5.5,0.3V564H298.5z M293.8,527.7c-1.8,0-3.1,1.5-3.1,3.3
			c0,1.8,1.1,3.3,2.9,3.3c1.8,0,3.1-1.5,3.1-3.3C296.7,529.1,295.6,527.7,293.8,527.7z"/>
		<path d="M324.1,562c-0.6,0.6-1.3,1-2,1c-0.7,0-0.8-0.8-0.8-1.8v-13.3c0-6.1-2.7-8-8.8-8c-4.3,0-8.4,1.9-8.4,6.5
			c0,1.4,0.2,2.1,2.2,2.1c2.1,0,2.1-0.7,2.1-3.1c0-3.1,2-4,4.4-4c2.9,0,4.2,1.1,4.2,4.5v3.7c-10.2,1.8-14.4,4.5-14.4,10
			c0,3.5,2.5,6.1,5.9,6.1c3.4,0,6.3-2.2,8.6-4.7v1.1c0,1.3,0.4,3.5,2.5,3.5c1.9,0,3.9-1.7,5.1-3L324.1,562z M317,560
			c-1.7,1.2-3.7,2.4-6,2.4c-2.3,0-3.8-1.8-3.8-4.1c0-4.5,6.5-6.6,9.8-7.5V560z"/>
		<path d="M352.3,564c-1.8,0-2.4-0.5-2.4-3.2v-11.9c0-6.2-2.7-8.9-7.1-8.9c-3.5,0-7.2,3.4-8.5,4.9h-0.1v-4.9H333
			c-2.1,1.2-4.5,2.1-7,2.5v1.2h1.1c2.6,0,3,0.8,3,3.4v13.8c0,2.7-0.7,3.2-2.4,3.2h-0.9v1.2c1.5-0.2,3.5-0.3,5.5-0.3s4,0.1,5.5,0.3
			V564h-0.9c-1.7,0-2.4-0.5-2.4-3.2V546c1.9-1.3,4.2-2.6,6.6-2.6c3.3,0,4.7,2.2,4.7,5.3v12.1c0,2.7-0.7,3.2-2.4,3.2h-0.9v1.2
			c1.5-0.2,3.5-0.3,5.5-0.3c2,0,4,0.1,5.5,0.3V564H352.3z"/>
		<path d="M377.6,528.5c-2.2,0-4.6-0.1-6.9-0.3v1.2h1.2c2.3,0,2.9,0.5,2.9,3.2v32.1c0,2.2-0.2,6.9-5.2,8.7l0.8,0.9
			c9.6-4.7,9.6-9.5,9.6-22.5v-19.2c0-2.7,0.6-3.2,2.9-3.2h1.2v-1.2C381.8,528.4,379.4,528.5,377.6,528.5z"/>
		<path d="M396.3,564c-1.7,0-2.4-0.5-2.4-3.2v-15.8c0-1.8,0.1-3.4,0.2-5.1h-1.6c-2.1,1.2-4.5,2.1-7,2.5v1.2h1.1c2.6,0,3,0.8,3,3.4
			v13.8c0,2.7-0.7,3.2-2.4,3.2h-0.9v1.2c1.5-0.2,3.5-0.3,5.5-0.3s4,0.1,5.5,0.3V564H396.3z M391.7,527.7c-1.9,0-3.1,1.5-3.1,3.3
			c0,1.8,1.1,3.3,2.9,3.3s3.1-1.5,3.1-3.3C394.5,529.1,393.5,527.7,391.7,527.7z"/>
		<path d="M424.6,562.2c-1.6,0-2-0.6-2-4.2v-12.9c0-1.8,0.1-3.4,0.2-5.1h-1.6c-2.2,1.2-4.5,2.1-6.2,2.5v1.2h1c1.9,0,2.3,0.8,2.3,3.4
			v12.9c-1,1.1-3.1,2.5-5.8,2.5c-3.5,0-5.3-2.7-5.3-6.2v-11.2c0-1.8,0.1-3.4,0.2-5.1h-1.6c-2.2,1.2-4.5,2.1-6.2,2.5v1.2h1
			c2,0,2.3,0.8,2.3,3.4v9.2c0,4.5,1.3,9.6,7.4,9.6c2.5,0,5.1-1,8.2-4v3.4h1.4c1.8-0.9,3.9-1.5,5.9-1.7v-1.2H424.6z"/>
		<path d="M429.7,551.2v3.7h11.4v-3.7H429.7z"/>
		<path d="M452.7,528.5c-2.2,0-4.6-0.1-6.9-0.3v1.2h1.2c2.3,0,2.9,0.5,2.9,3.2v32.1c0,2.2-0.2,6.9-5.2,8.7l0.8,0.9
			c9.6-4.7,9.6-9.5,9.6-22.5v-19.2c0-2.7,0.6-3.2,2.9-3.2h1.2v-1.2C456.9,528.4,454.5,528.5,452.7,528.5z"/>
		<path d="M471.4,564c-1.8,0-2.4-0.5-2.4-3.2v-15.8c0-1.8,0.1-3.4,0.2-5.1h-1.6c-2,1.2-4.5,2.1-7,2.5v1.2h1.1c2.6,0,3,0.8,3,3.4
			v13.8c0,2.7-0.7,3.2-2.4,3.2h-0.9v1.2c1.5-0.2,3.5-0.3,5.5-0.3c2,0,4,0.1,5.5,0.3V564H471.4z M466.8,527.7c-1.8,0-3.1,1.5-3.1,3.3
			c0,1.8,1.1,3.3,2.9,3.3c1.8,0,3.1-1.5,3.1-3.3C469.6,529.1,468.6,527.7,466.8,527.7z"/>
		<path d="M489.1,561.3c-0.9,0.8-2.1,1.5-3.4,1.5c-2.2,0-2.5-2.3-2.5-5v-13.9h5.9v-1.5h-5.9v-8.9h-1.1c-0.5,3.5-2.8,7.3-6.5,9.2v1.2
			h3.3v15.9c0,3,0.8,6.1,4.5,6.1c2.6,0,4.6-1.8,6.2-3.6L489.1,561.3z"/>
		<path d="M502.8,550.1c-5.3-2.5-6-3-6-5.2c0-2.3,2-3.4,4.2-3.4c3.2,0,5.8,2.3,6.1,5.6h1.2c0-2.2-0.2-4.4-0.3-6.8
			c-0.4,0.2-0.9,0.2-1.4,0.2c-1,0-1.9-0.2-2.9-0.3c-0.9-0.2-1.9-0.3-2.9-0.3c-3.8,0-7.1,2.6-7.1,6.7c0,4,2.6,5.5,6.6,7.3
			c3.3,1.5,6.5,2.8,6.5,5.9c0,2.4-2.6,4.4-5,4.4c-3.9,0-6.7-3.7-6.9-8.3h-1.2c0.2,2.9,0,5.5-0.1,8.4h0.8c1.5,0,4.4,1.4,6.8,1.4
			c4.6,0,8.1-2.9,8.1-7.8C509.2,553.6,506.4,551.8,502.8,550.1z"/>
		<path d="M537.7,562.2c-1.6,0-2-0.6-2-4.2v-12.9c0-1.8,0.1-3.4,0.2-5.1h-1.6c-2.2,1.2-4.5,2.1-6.3,2.5v1.2h1c2,0,2.3,0.8,2.3,3.4
			v12.9c-1,1.1-3.1,2.5-5.7,2.5c-3.5,0-5.3-2.7-5.3-6.2v-11.2c0-1.8,0.1-3.4,0.2-5.1h-1.6c-2.2,1.2-4.5,2.1-6.3,2.5v1.2h1
			c1.9,0,2.3,0.8,2.3,3.4v9.2c0,4.5,1.3,9.6,7.4,9.6c2.5,0,5.1-1,8.2-4v3.4h1.4c1.8-0.9,3.9-1.5,5.9-1.7v-1.2H537.7z"/>
		<path d="M594.4,561.7c-1.3,0.9-3.1,1.3-4.7,1.3c-4,0-6.8-2.4-9.2-5.2c2.9-3.6,6.1-7.5,7.7-9.8c1.4-2,2.5-2.8,5.1-2.8V544
			c-2,0.2-3.9,0.4-5.9,0.4c-1.7,0-3.5-0.2-5.2-0.4v1.2c1,0,2.6,0.3,2.6,1.5c0,2.6-3.2,7.4-5.3,9.9c-2.9-3.9-5.3-8.2-7.7-12.5
			c4-2,9.4-4.8,9.4-9.3c0-4.4-3.4-6.6-7.3-6.6c-5.4,0-8.6,3.7-8.6,8.9c0,3.2,0.4,4.7,1.6,7.7c-4.8,2.5-10.8,6-10.8,12.1
			c0,5,3.5,8.8,8.7,8.8c5.5,0,8.2-1.6,12.6-4.9c3.5,3.1,5.3,4.9,9.9,4.9c2.6,0,5.4-1.7,7.8-3.2L594.4,561.7z M573.7,529.8
			c2.7,0,4.2,2.1,4.2,4.5c0,4.3-3.3,6.6-6.6,8.6c-1.2-2-2.2-5.6-2.2-7.5C569,532.4,570.2,529.8,573.7,529.8z M568.4,562.8
			c-4.5,0-7.1-3.4-7.1-7.4c0-4.7,2.6-6.8,6.3-9.1c2.4,4.8,5.3,9.1,8.7,13.2C574.2,561.3,571.7,562.8,568.4,562.8z"/>
		<path d="M651.8,561.2l-0.4-23.6c0-1.3-0.1-2.6-0.1-3.9c0-3.9,0.5-4.2,4.2-4.2v-1.2c-1.6,0.2-3.2,0.3-4.8,0.3
			c-1.6,0-3.2-0.1-4.8-0.3c-3.8,9.5-7.9,18.6-11.4,28.6h-0.1c-3.5-9.9-7.6-19-11.8-28.6c-1.5,0.2-3.1,0.3-4.8,0.3
			c-1.7,0-3.3-0.1-5-0.3v1.2c4.1,0,4.2,1,4.2,3.8l-0.7,28.3c-0.1,1.7-0.7,2.4-2.9,2.4H612v1.2c1.7-0.2,3.5-0.3,5.2-0.3
			c1.9,0,3.9,0.1,5.9,0.3V564c-2,0-4.3,0-4.3-1.6l0.2-29.8h0.1l12.2,29.3c0.8,2,1.3,3.3,1.6,3.3c0.2,0,0.6-0.8,0.9-1.7l12.5-30.9
			h0.1l0.1,28.2c0,2.5-0.4,3.2-4.1,3.2v1.2c2.9-0.2,4-0.3,6.8-0.3c2.3,0,4.6,0.1,6.9,0.3V564C653.7,564,651.9,563.9,651.8,561.2z"/>
		<path d="M698.4,561.2l-0.4-23.6c0-1.3-0.1-2.6-0.1-3.9c0-3.9,0.5-4.2,4.2-4.2v-1.2c-1.6,0.2-3.2,0.3-4.8,0.3
			c-1.6,0-3.2-0.1-4.8-0.3c-3.8,9.5-7.9,18.6-11.4,28.6h-0.1c-3.5-9.9-7.6-19-11.8-28.6c-1.5,0.2-3.1,0.3-4.8,0.3
			c-1.7,0-3.3-0.1-5-0.3v1.2c4.1,0,4.2,1,4.2,3.8l-0.7,28.3c-0.1,1.7-0.7,2.4-2.9,2.4h-1.4v1.2c1.7-0.2,3.5-0.3,5.2-0.3
			c2,0,3.9,0.1,5.9,0.3V564c-2,0-4.3,0-4.3-1.6l0.2-29.8h0.1l12.2,29.3c0.8,2,1.3,3.3,1.6,3.3c0.2,0,0.6-0.8,0.9-1.7l12.5-30.9h0.1
			l0.2,28.2c0,2.5-0.4,3.2-4.2,3.2v1.2c2.9-0.2,4.1-0.3,6.8-0.3c2.3,0,4.6,0.1,6.9,0.3V564C700.3,564,698.4,563.9,698.4,561.2z"/>
		<path d="M736.1,559.6l-12.9-32.1c-0.2-0.4-0.3-0.6-0.5-0.6c-0.3,0-0.4,0.3-0.5,0.6l-12.9,31c-1.6,3.8-2.3,5.4-4.8,5.4v1.2
			c1.4-0.2,2.8-0.3,4.2-0.3c1.7,0,3.4,0.1,5.1,0.3V564c-1.4,0-3.2-0.1-3.2-1.8c0-0.5,0.2-1.2,0.6-2.1l2.9-7.2h13.5l2.7,7
			c0.4,0.9,0.8,2.1,0.8,2.8c0,1.3-1.8,1.3-2.9,1.3v1.2c2-0.2,4-0.3,6-0.3c2.1,0,4.2,0.1,6.2,0.3V564
			C738.4,564,737.5,563,736.1,559.6z M714.9,551l6.2-15.2l5.9,15.2H714.9z"/>
	</g>
	<g>
		<path class="st0" d="M505.6,158.2c-4,3.5-8,4.4-13.1,4.2C497.5,166.4,506.4,162.2,505.6,158.2z"/>
		<path class="st0" d="M412.5,112.2c-4-3.1-11.9-1.7-13.1,4.2C403.5,113,407.4,112.1,412.5,112.2z"/>
		<path class="st0" d="M414.1,116c-4.2-3.5-12.5-0.8-13.1,4.2C405,116.8,409,115.8,414.1,116z"/>
		<path class="st0" d="M439.3,153.1c4.2,3.5,12.5,0.8,13.1-4.2c-0.9,0.8-1.9,1.5-2.8,2c-0.1,0.1-0.2,0.1-0.3,0.2c0,0,0,0,0,0
			c0,0-0.1,0-0.1,0c-1,0.6-2.1,1-3.2,1.3c-0.2,0.1-0.4,0.1-0.6,0.2C443.4,153.1,441.5,153.2,439.3,153.1z"/>
		<path class="st1" d="M418,130.6c-3.7,0.9-6.7,1.8-6.6,7.7c0.1,5.9,0.7,9.4,1.6,12.1c1,3,3.2,3.8,5.4,3.9c0.1-0.4,2.7-7.1,2.7-7.1
			l0.7,6.8l0.9,5.1c0.1,0.6,0.8,0.9,1.4,0.6c1.9-1.2,5.8-4.5,7.1-11.6c1.7-9.6-1.6-15.6-3.4-16.9C425.9,130,423,129.5,418,130.6z"/>
		<polygon class="st1" points="250,373.4 267.9,422.3 280.3,417.6 261.8,368.9 		"/>
		<path class="st1" d="M533.2,336.9c45-29,75.5-78.9,77.4-136.5c3.1-93.4-70-171.6-163.4-174.7S275.6,95.7,272.5,189
			c-2.1,61.1,28.6,115.7,76.1,147L269,366.2l19,48.5L411.2,368l19.8-10.7l-35-44.1c-52.1-18.1-88.6-67.6-86.7-124.6
			c2.3-70.4,62.5-125.5,134.3-123.1c71.8,2.4,128.1,61.4,125.7,131.8c-1.9,55.9-40.2,102.2-91.9,117.7l-7.3,48.6l135.1,55.9
			l18.2-50.4L533.2,336.9z"/>
		<polygon class="st1" points="630.8,371.6 613,422.6 629.1,429.3 647,377.4 		"/>
		<path class="st1" d="M428.3,81.7l-0.4,11.2c0,0,1.3-3.2,4.1-4.5c1.6-0.7,4.6,0.1,4.9,0.1l-7.4-7.3C429.1,80.8,428.4,81,428.3,81.7
			z"/>
		<path class="st1" d="M379.2,139.8c-6.1,1.4-12.2,7.1-15.2,10.2c-3,3.1-2.9,3.8-2.8,5.5c0.1,1.7,3.6,4.8,5.2,6
			c1.6,1.3,7.5,1.3,10.7-2.5c2.2-2.3,6.3-6.2,8.8-11.4l-4.9,1.6l4.8-5C386.1,141.4,384.6,138.6,379.2,139.8z"/>
		<path class="st1" d="M464.8,139.4c2.1-0.4,7.7-1.2,12.2-5.3c-1-1.1-3.5-2.6-4.9-3.6c-4.3,1.2-7.4,3.7-8.9,6.8
			C462.4,139.1,462.8,139.8,464.8,139.4z"/>
		<path class="st1" d="M512.2,176.5c-3.7-0.7-7.8-1.6-10.7-4.2c-0.2,0.9-0.1,1.8,0.3,2.6c0.4,0.9,1,1.8,1.8,2.3
			c1,0.7,2.4,0.9,3.5,1.1c1.3,0.3,2.5,0.4,3.8,0.6c4.5,0.6,9,0.7,13.5-0.1c1.2-0.2,2.4-0.5,3.6-0.9c0.4-0.1,0.9-0.4,1.2-0.4
			c-1.7,0.1-3.4,0.1-5.1,0C520.2,177.5,516.2,177.2,512.2,176.5z"/>
		<path class="st2" d="M446,152.4C445.9,152.4,445.9,152.4,446,152.4c1.1-0.3,2.2-0.8,3.2-1.3C448.1,151.7,447,152.1,446,152.4z"/>
		<path class="st1" d="M439.7,349.2l-1.6-53l10.1,6.4l0.8,71.5c0,0,16.5-8.4,16.5-8.4l5.5-49.1l0-0.3c0-2.3,0.1-10.2,2.8-16.5
			c-1.4,0.3-3,0.4-3,0.4c-3.2,0.4-6.1-1.9-6.5-5.1l-0.2-1.8c-0.1-0.6,0.4-1.2,1-1.3l10.5-1.4c-5.5-2.3-7.9-8.5-8.3-11.3
			c8.4-3.5,8.8-3.8,9.1-10c0.2-6.2,1-11.4,4.5-17.2c3.5-5.9,7.7-7.6,12.3-9.1c3.2-1.1,3.5-0.4,4.7-4.7c1.2-4.3,3.6-7.4,5.2-10.7
			c1.6-3.3,1.9-4.1,7.2-7.4c5.2-3.2,11.2-6.5,26.7-9.7c3.6-0.3,4.5-2,2-8.5c-0.9-2.8-1-19.5-1-19.5s-0.6-5.8-4.2-4.3
			c-3.6,1.5-9,2.4-10.9,2.7c-2,0.4-14.5,1.1-19.6-1.8c0.9,13,16.7,13.8,18.9,13.9c0.1,0,0.2,0,0.2,0s0,0,0.1,0
			c0.4,0,2.2,0.2,7.4-0.9c-3.1,2-10.2,2.1-10.8,2.2c-0.1,0.2-0.1,0.3-0.1,0.5c0,0.4,0,0.8,0.2,1.2c0,0.2,0.1,0.3,0.2,0.4
			c0.1,0,0.1,0.1,0.2,0.1c0.7,0.4,1.5,0.7,2.3,1c1.9,0.6,3.9,1,5.9,1.1c-0.2,0.1-0.6,0.2-0.8,0.3c-0.2,0-0.5,0.1-0.7,0.1
			c-0.5,0-1,0.1-1.4,0.1c-1,0-2,0.1-3,0c-0.7-0.1-1.5-0.1-2.2-0.1c-0.7,0-1.5-0.2-2.2-0.2c-0.2,0-0.3,0.1-0.5,0.1
			c-5.3,1.7-10.5,3.3-15.8,5c-1.7,0.5-3.4,1.1-5,1.6c-0.3,0.1-1.5-0.9-1.7-1.1c-1.3-1-2.4-2.2-3.4-3.6c-2.1-3-2.4-7.1-1-10.5
			c2.4-5.9,5.6-11.2,9.2-16.5c0.2-0.2,0.3-0.5,0.5-0.7c2.8-3.3,6.6-8,13.7-8.8c3.2-0.6,6.2-2,5.2-6.4c-0.6-3-1.2-6.6-1.7-9.5
			c-0.5-2.6-3-2-4.7-3.2c-1.8-1.2-7.8-7.3-6.5-17.4c0.4-3.1,1.3-4.7-1.2-6.5c-1.5-1.3-4-3.6-5.5-7.1c-1.5-3.5-5.3-4.1-7-0.6
			c-6.2,9.1-12,10.4-12,10.4s-2.8-0.7-3.6,0.3c-0.8,1,0.3,2.7,0.3,2.7s-2.7-0.9-3.4,0.4c-0.7,1.3,1,2.6,1,2.6l4.7,3
			c0.7,0.4,0.7,1.4,0.1,1.8c-1.5,1.1-4,2.8-6.7,3.8c2.5,2.4,5.7,4.1,9.2,3.4c1.2-0.2,2.3-0.7,3.4-1.4c1.2-0.8,2.1-1.8,3.1-2.7
			c0.6-0.5,1.3-0.9,2-1.3c0.3-0.2,0.7-0.3,1-0.5c0.3-0.1,0.8-0.1,1-0.2c-1.7,1.1-3,3.1-4.1,4.8c-0.4,0.6-0.8,1.2-1.1,1.8
			c-0.7,1.6-0.7,3.6-0.6,5.3c0.1,3.7,0.4,7.7,4.6,9.2c3,1.1,7.7,2,10.9,0.7c-3.7,3.5-9.7,1.4-14.1,1.5c-3.4,0.1-4.8,2.5-5.2,5.5
			c-0.3,2.5-0.2,5-1.8,9.6c-1.6,4.6-7,12.1-9.7,13.8c-2.8,1.6-7.2,3.1-12-1.2c-6-5.4-4.8-11-4.1-14c0.7-3,2.6-10.4,8.7-17.2
			c3.4-3.4,2.4-7.2,0-10.7c-2.8-4.2-4.4-9.4-5.2-14.3c-0.9-5.3-0.4-9.9,1.2-15c0.8-3.9,1.8-7-7.7-9.8c-4.9-1.7-10.3-12.8-13.1-14.5
			c-2.8-1.7-7-3.3-9.7,3.5c-2.2,5.7-1.5,13.7,1.7,19c2.7,4.5,7,6.6,12.1,6.9c-1.9,1.1-7,0.8-7,0.8c0.1,2.4-0.9,4.8-0.9,4.8l3.1-0.4
			c1.1-0.1,2.1,0.7,2.3,1.8c0.3,2.5-1,4.8-3.3,5.9c-1.2,0.5-2.2,1.1-2.4,1.5c-0.2,0.4-0.1,0.9-0.1,1.3c0,0.7,0.2,1.4,0.3,2.1
			c0.3,1.6,0.7,3.2,1.1,4.8c0.1,0.4,0.3,0.9,0.4,1.4c0.1,0.4,0.7,0.6,1,0.9c0.5,0.3,1,0.6,1.6,0.9c1.5,0.7,3.1,1.3,4.8,1.6
			c1.5,0.2,2.9,0.2,4.4-0.1c-3.3,3-11.3,1.3-11.3,1.3c-1.8,2-1.8,4.6,0,7.4c-0.2,1.8-1.9,15.8-4,19.9c-2.2,4.1-17,7.1-17,7.1
			c0.1,0,0.7-2.9,0.8-3.2c0.5-1.5,1.7-2.7,2.1-4.2c0.4-1.5,0-3.1-0.7-4.4c-1-1.8-2.6-3-4-4.4c-2.7-2.7-2.1-14.1-2.1-14.1
			c-3.5-6.1-4.6-13.5-2.7-20.3c0.2-0.9,0.6-1.8,1.2-2.6c1.6-1.9,6.1-2,8.4-2.4c1-0.2,2.4-0.2,3.3-0.9c1.2-1,1.7-3.3,0.9-4.7
			c-0.9-1.5-2.8-2-4.4-2c-2.5,0.1-5.1,0.2-7.6,0.7c4.6-3,7.5-2.5,7.6-2.5c-0.7-1.4-1.4-3.4-0.9-7.2c0.2-2.1-0.8-4.3-5.2-3.8
			c-4.4,0.6-9.7,1.9-14.6,3.5c-4.8,1.6-4.4,4.5-3.8,7.2c0.6,2.7,1.4,6.6,1.3,9.9c-0.1,3.3-3,8.9-3.3,13c-0.2,4.1,4.5,10.3,4.5,13.5
			c0,3.2-3.5,7.6-4.2,11.4c-0.7,3.8,2.1,8,1.4,12.7c-0.5,3.6-3.2,6-6.3,7.6c-6,3.2-12.4,4.3-19.1,4.2c-3.1,0-6.2-0.2-9.3-0.3
			c-1.5-0.1-3-0.2-4.5-0.3c-1-0.1-2.9-0.6-3.8-0.3c27.6-8.3,26.3-27.8,26.3-27.8s-1,0.6-1.1,0.7c-0.8,0.5-1.7,1-2.6,1.2
			c-2,0.7-4.6,0.9-6.6,0.5c-3-0.6-4.9-2.9-6.5-5.5c-1.7-0.9-3.9-0.2-5.1,0.8c-1.2,1-1.8,3.9-1.8,3.9l-0.9,10.7c0,0-1.1-10-1.2-10.9
			c-0.7,0-1.6,0.2-2.2,0.7c-1.8,1.2-1.5,4.3-1.9,6.1c0,0.8,0.5,8.3,0.5,8.3l-2.2-5.5c-1.1,1.2-2.5,2.4-3.6,3.3
			c-2.4,2-4.8,3.8-7.5,5.3c-1.5,0.8-2.7,2.3-2.7,4.1c0,1.8,1.7,3.5,2.6,5.1c2.1,3.7,3.8,7.7,4.9,11.8c1.2,2.8,3.1,2.2,4.6,2
			c1.3-0.2,3.5-0.5,3.7-0.5c0,0,3.5-0.6,7.4-2.8c-1.6,3.3-5.1,5.4-5.5,5.5c1.4,2.1,3,4.5,3.7,5.6c1.1,1.7,1.4,3.1,7.8,2.5
			c2.1-0.5,4-0.8,5.9,2.6c0.5,1,1.2,2,1.9,2.9c0.7,0.9,1.7,1.7,2.8,1.8c1.1,0.1,2.2-0.3,3.3-0.8c2.5-1.1,5.1-2.1,7.5-3.4
			c-1.7,3.5-7.8,8-7.8,8c1.8,3.3,4.6,8.9,6,16.4c1.4,7.8-1.4,15.2-1.9,20.1c-0.9,7.3,5.2,5.9,6.6,12c0.3,1.5,1.9,2.1,3.2,2.1
			c2.9,0,5.4-1.4,8.2-0.4c3.1,1,5.9,4.5,9.4,3.4c1.3-0.4,2.4-1.2,3.5-2c4.8-3.5,9.3-7.4,13.8-11.2c-2.3,2.5-4.2,5.5-6.6,7.9
			c-2.2,2.2-4.3,4.4-6.9,6.1c-1.5,1-3.8,2-5.7,1.8c-2.1-0.2-4-1.3-5.8-2.3c-0.9-0.5-1.9-0.8-2.9-0.8c0.2,0,0.1,1.7,0.1,1.9
			c-0.1,0.8-0.2,1.6-0.5,2.3c-0.9,2.5-2.9,4.7-4.7,6.4c-0.8,0.8-1.7,1.4-2.7,2.1c0,0-0.1,0.1-0.1,0.1l8.7,3.5c0,0-3.4,2-5.9,2.9
			c1.6,1.8,5.3,1.6,5.3,1.6l0.5,13.5l6.3-7.4L439.7,349.2z M505.6,158.2c0.8,3.9-8.1,8.1-13.1,4.2
			C497.6,162.7,501.6,161.7,505.6,158.2z M439.3,152c5.1,0.1,9.1-1,13-4.5c-0.3,1.4-1.5,2.7-3.1,3.7c0,0,0.1,0,0.1,0c0,0,0,0,0,0
			c0.1,0,0.2-0.1,0.3-0.2c0.9-0.5,1.9-1.2,2.8-2c-0.5,5-8.8,7.7-13.1,4.2c2.2,0.1,4.2-0.1,6-0.5c0.2,0,0.4-0.1,0.6-0.2
			C443.6,153,441.2,153,439.3,152z M412.5,112.2c-5.1-0.2-9.1,0.8-13.1,4.2C400.7,110.6,408.6,109.1,412.5,112.2z M401,120.3
			c0.5-5,8.8-7.7,13.1-4.2C409,115.8,405,116.8,401,120.3z"/>
		<polygon class="st1" points="434.4,361.5 417,371 436,380.8 440.6,378.4 440.3,369 		"/>
		<path class="st1" d="M449.1,151.1c1.6-1,2.8-2.2,3.1-3.7c-3.9,3.5-7.9,4.6-13,4.5c1.9,1,4.3,1.1,6.6,0.5c0,0,0,0,0,0
			C447,152.1,448.1,151.7,449.1,151.1z"/>
	</g>
</g>
<g>
</g>
<g>
</g>
<g>
</g>
<g>
</g>
<g>
</g>
<g>
</g>
</svg>
