<?xml version="1.0" encoding="utf-8"?>
<!-- Generator: Adobe Illustrator 20.1.0, SVG Export Plug-In . SVG Version: 6.00 Build 0)  -->
<!DOCTYPE svg PUBLIC "-//W3C//DTD SVG 1.1//EN" "http://www.w3.org/Graphics/SVG/1.1/DTD/svg11.dtd">
<svg version="1.1" id="Layer_1" xmlns="http://www.w3.org/2000/svg" xmlns:xlink="http://www.w3.org/1999/xlink" x="0px" y="0px"
	 viewBox="0 0 900 600" style="enable-background:new 0 0 900 600;" xml:space="preserve">
<style type="text/css">
	.st0{fill:none;}
	.st1{fill:#006E2B;}
	.st2{fill:#FFFFFF;}
</style>
<g>
	<path class="st0" d="M526.2,207.7c-5.3,4.6-10.6,5.9-17.4,5.7C515.3,218.6,527.2,212.9,526.2,207.7z"/>
	<path class="st0" d="M402,146.3c-5.3-4.1-15.8-2.2-17.4,5.7C389.9,147.4,395.2,146.1,402,146.3z"/>
	<path class="st0" d="M404.1,151.3c-5.7-4.6-16.7-1.1-17.4,5.7C392,152.4,397.3,151.1,404.1,151.3z"/>
	<path class="st0" d="M437.6,200.9c5.7,4.7,16.7,1.1,17.4-5.7c-1.2,1.1-2.5,2-3.7,2.7c-0.1,0.1-0.3,0.2-0.4,0.2c0,0,0,0,0,0
		c0,0-0.1,0-0.1,0.1c-1.3,0.8-2.7,1.4-4.3,1.8c-0.3,0.1-0.6,0.2-0.8,0.2C443.2,200.8,440.6,201,437.6,200.9z"/>
	<path class="st1" d="M409.3,170.9c-5,1.2-8.9,2.3-8.8,10.2c0.1,7.9,1,12.5,2.2,16.2c1.3,4,4.2,5.1,7.3,5.2c0.1-0.5,3.6-9.5,3.6-9.5
		l0.9,9.1l1.2,6.8c0.2,0.8,1.1,1.2,1.8,0.8c2.6-1.6,7.8-6,9.5-15.5c2.2-12.8-2.1-20.9-4.6-22.5C419.8,170,415.9,169.3,409.3,170.9z"
		/>
	<polygon class="st1" points="185.1,494.8 208.9,560.1 225.5,553.8 200.8,488.9 	"/>
	<path class="st1" d="M563,446.1c60-38.8,100.7-105.4,103.3-182.2c4.2-124.6-93.5-229-218.1-233.2s-229,93.4-233.1,218.1
		c-2.7,81.5,38.1,154.4,101.6,196.2l-106.2,40.2l25.4,64.7l164.3-62.3l26.5-14.3L380,414.4c-69.5-24.1-118.3-90.2-115.7-166.3
		c3.1-93.9,83.4-167.5,179.2-164.3c95.8,3.2,170.9,82,167.8,175.9c-2.5,74.6-53.6,136.4-122.6,157l-9.8,64.8l180.3,74.6l24.3-67.2
		L563,446.1z"/>
	<polygon class="st1" points="693.2,492.5 669.5,560.5 691,569.4 714.9,500.2 	"/>
	<path class="st1" d="M423,105.5l-0.5,14.9c0,0,1.7-4.3,5.5-5.9c2.1-0.9,6.2,0.1,6.5,0.2l-9.9-9.7
		C424.2,104.3,423.1,104.7,423,105.5z"/>
	<path class="st1" d="M357.5,183.1c-8.1,1.9-16.3,9.5-20.2,13.6c-4,4.1-3.9,5.1-3.7,7.4c0.2,2.2,4.8,6.4,7,8
		c2.2,1.7,10,1.7,14.2-3.3c3-3.1,8.4-8.2,11.7-15.2l-6.6,2.2l6.4-6.7C366.6,185.2,364.7,181.4,357.5,183.1z"/>
	<path class="st1" d="M471.8,182.6c2.7-0.5,10.2-1.5,16.3-7c-1.4-1.4-4.6-3.5-6.6-4.8c-5.7,1.6-9.8,4.9-11.9,9.1
		C468.6,182.2,469.1,183.1,471.8,182.6z"/>
	<path class="st1" d="M535,232c-4.9-0.9-10.5-2.2-14.3-5.6c-0.2,1.2-0.1,2.4,0.4,3.5c0.5,1.2,1.3,2.4,2.4,3.1
		c1.3,0.9,3.2,1.2,4.7,1.5c1.7,0.3,3.4,0.6,5.1,0.8c6,0.9,12.1,0.9,18-0.1c1.6-0.3,3.2-0.7,4.8-1.2c0.5-0.1,1.2-0.6,1.7-0.6
		c-2.3,0.1-4.5,0.1-6.8,0C545.6,233.4,540.3,233,535,232z"/>
	<path class="st2" d="M446.6,200C446.6,200,446.6,200,446.6,200c1.5-0.4,3-1,4.3-1.8C449.5,198.9,448,199.5,446.6,200z"/>
	<path class="st1" d="M438.2,462.6l-2.1-70.7l13.5,8.6l1.1,95.5c0,0,22.1-11.2,22.1-11.2l7.4-65.5l0-0.4c0.1-3.1,0.1-13.6,3.7-22
		c-1.8,0.5-4,0.5-4,0.5c-4.3,0.5-8.2-2.5-8.7-6.8l-0.3-2.4c-0.1-0.8,0.5-1.6,1.3-1.7l14.1-1.8c-7.4-3.1-10.6-11.4-11.1-15
		c11.2-4.7,11.7-5.1,12.1-13.4c0.3-8.3,1.3-15.2,6-23c4.6-7.8,10.3-10.1,16.4-12.2c4.3-1.5,4.6-0.5,6.2-6.3c1.6-5.7,4.8-9.9,7-14.3
		c2.1-4.4,2.5-5.5,9.6-9.8c7-4.3,14.9-8.7,35.6-12.9c4.8-0.4,6-2.7,2.7-11.4c-1.2-3.7-1.3-26.1-1.3-26.1s-0.8-7.8-5.5-5.7
		c-4.8,2.1-12,3.2-14.6,3.6c-2.6,0.5-19.3,1.5-26.1-2.3c1.2,17.4,22.2,18.4,25.2,18.5c0.1,0,0.2,0,0.2,0s0,0,0.1,0
		c0.5,0.1,2.9,0.2,9.9-1.2c-4.1,2.6-13.6,2.9-14.4,2.9c-0.1,0.2-0.1,0.5-0.1,0.7c0,0.5,0.1,1.1,0.2,1.6c0.1,0.2,0.1,0.4,0.3,0.5
		c0.1,0.1,0.1,0.1,0.2,0.2c1,0.6,2,1,3.1,1.3c2.5,0.8,5.2,1.3,7.9,1.5c-0.3,0.2-0.7,0.3-1.1,0.3c-0.3,0-0.6,0.1-0.9,0.1
		c-0.6,0.1-1.3,0.2-1.9,0.2c-1.4,0-2.7,0.1-4,0c-1-0.1-2-0.1-3-0.2c-0.9-0.1-2-0.3-2.9-0.2c-0.2,0-0.4,0.1-0.6,0.1
		c-7,2.2-14,4.4-21.1,6.7c-2.2,0.7-4.5,1.4-6.7,2.1c-0.4,0.1-2-1.2-2.3-1.5c-1.8-1.3-3.2-2.9-4.5-4.8c-2.8-4-3.2-9.5-1.3-14
		c3.2-7.8,7.5-15,12.3-22c0.2-0.3,0.4-0.6,0.6-0.9c3.8-4.4,8.8-10.7,18.3-11.7c4.2-0.8,8.3-2.7,7-8.6c-0.8-4-1.6-8.8-2.3-12.7
		c-0.7-3.5-4-2.7-6.3-4.3c-2.4-1.7-10.4-9.7-8.6-23.2c0.5-4.2,1.7-6.3-1.6-8.7c-2-1.7-5.4-4.8-7.4-9.4c-2-4.7-7.1-5.5-9.3-0.8
		c-8.2,12.1-16,13.9-16,13.9s-3.7-0.9-4.8,0.4c-1.1,1.3,0.3,3.6,0.3,3.6s-3.6-1.2-4.5,0.5c-0.9,1.7,1.4,3.5,1.4,3.5l6.3,4
		c0.9,0.6,0.9,1.8,0.1,2.4c-2,1.5-5.4,3.7-8.9,5.1c3.3,3.2,7.6,5.5,12.3,4.6c1.6-0.3,3.1-1,4.5-1.9c1.6-1,2.7-2.4,4.2-3.5
		c0.8-0.7,1.7-1.3,2.7-1.8c0.5-0.2,0.9-0.5,1.4-0.6c0.3-0.1,1.1-0.1,1.4-0.3c-2.3,1.4-4,4.1-5.4,6.4c-0.5,0.8-1.1,1.6-1.5,2.4
		c-0.9,2.1-0.9,4.8-0.8,7c0.2,5,0.5,10.2,6.1,12.2c4,1.5,10.3,2.7,14.6,0.9c-5,4.7-12.9,1.9-18.9,2c-4.5,0.1-6.5,3.3-6.9,7.4
		c-0.3,3.4-0.3,6.7-2.4,12.8c-2.1,6.2-9.3,16.2-12.9,18.3c-3.7,2.2-9.6,4.2-15.9-1.7c-8-7.2-6.4-14.7-5.4-18.7
		c0.9-4,3.4-13.9,11.6-22.9c4.6-4.6,3.2-9.6,0-14.3c-3.7-5.5-5.9-12.6-7-19.1c-1.2-7-0.5-13.2,1.6-20c1.1-5.2,2.5-9.3-10.2-13.1
		c-6.6-2.2-13.8-17.1-17.5-19.4c-3.7-2.3-9.3-4.4-13,4.7c-3,7.7-2,18.3,2.2,25.3c3.6,6,9.4,8.8,16.2,9.2c-2.5,1.5-9.4,1-9.4,1
		c0.2,3.1-1.1,6.4-1.1,6.4l4.1-0.5c1.5-0.2,2.8,0.9,3,2.4c0.4,3.3-1.4,6.5-4.4,7.8c-1.5,0.7-2.9,1.4-3.2,2c-0.3,0.5-0.2,1.2-0.1,1.7
		c0.1,0.9,0.2,1.9,0.4,2.8c0.4,2.1,0.9,4.3,1.5,6.4c0.2,0.6,0.4,1.2,0.5,1.8c0.2,0.5,0.9,0.9,1.3,1.2c0.7,0.4,1.4,0.8,2.1,1.2
		c2,1,4.2,1.7,6.4,2.1c1.9,0.3,3.9,0.3,5.8-0.1c-4.4,4.1-15.1,1.7-15.1,1.7c-2.4,2.6-2.4,6.2,0.1,9.8c-0.3,2.4-2.5,21-5.4,26.5
		c-2.9,5.5-22.7,9.4-22.7,9.4c0.1,0,1-3.9,1.1-4.2c0.7-2,2.2-3.6,2.8-5.6c0.6-2,0.1-4.1-1-5.9c-1.4-2.3-3.5-4-5.4-5.9
		c-3.6-3.6-2.8-18.9-2.8-18.9c-4.7-8.2-6.1-18-3.5-27.1c0.3-1.2,0.8-2.5,1.6-3.4c2.1-2.6,8.2-2.6,11.2-3.2c1.4-0.3,3.2-0.3,4.4-1.2
		c1.6-1.4,2.3-4.4,1.1-6.3c-1.2-2-3.7-2.7-5.9-2.6c-3.4,0.1-6.8,0.3-10.1,0.9c6.1-4.1,10-3.3,10.2-3.3c-0.9-1.9-1.8-4.6-1.2-9.6
		c0.3-2.8-1.1-5.8-7-5c-5.9,0.8-13,2.6-19.4,4.6c-6.4,2.1-5.8,6-5.1,9.5c0.7,3.6,1.9,8.8,1.7,13.3c-0.2,4.4-4,11.9-4.4,17.4
		c-0.3,5.4,6,13.8,6,18.1c0,4.3-4.7,10.1-5.7,15.2c-1,5.1,2.8,10.6,1.8,16.9c-0.7,4.8-4.3,8-8.4,10.2c-8,4.2-16.5,5.8-25.4,5.7
		c-4.2-0.1-8.3-0.2-12.4-0.4c-2-0.1-4-0.2-6-0.4c-1.4-0.1-3.8-0.8-5.1-0.4c36.8-11.1,35-37.1,35-37.1s-1.3,0.8-1.5,0.9
		c-1.1,0.7-2.3,1.3-3.5,1.7c-2.7,0.9-6.1,1.2-8.8,0.6c-4-0.9-6.6-3.9-8.6-7.3c-2.2-1.2-5.2-0.3-6.8,1.1c-1.7,1.4-2.4,5.2-2.4,5.2
		l-1.2,14.3c0,0-1.4-13.3-1.5-14.5c-1,0.1-2.1,0.3-3,0.9c-2.4,1.6-2,5.7-2.6,8.1c0.1,1,0.6,11.1,0.6,11.1l-2.9-7.4
		c-1.5,1.7-3.3,3.1-4.8,4.4c-3.2,2.7-6.4,5.1-10,7.1c-2,1.1-3.6,3.1-3.5,5.4c0.1,2.4,2.3,4.7,3.4,6.8c2.8,5,5.1,10.2,6.5,15.8
		c1.6,3.8,4.2,3,6.1,2.7c1.8-0.3,4.7-0.7,4.9-0.7c0,0,4.7-0.8,9.9-3.7c-2.1,4.4-6.8,7.2-7.4,7.4c1.9,2.8,4,6,5,7.5
		c1.5,2.3,1.9,4.1,10.4,3.4c2.8-0.7,5.3-1,7.8,3.5c0.7,1.3,1.6,2.7,2.6,3.9c0.9,1.2,2.2,2.2,3.8,2.4c1.5,0.2,3-0.5,4.4-1.1
		c3.3-1.5,6.8-2.9,10-4.6c-2.3,4.6-10.5,10.6-10.5,10.6c2.4,4.5,6.1,11.9,8,21.9c1.9,10.4-1.9,20.3-2.5,26.8
		c-1.3,9.8,6.9,7.9,8.8,16c0.5,2,2.5,2.8,4.3,2.8c3.8,0,7.2-1.8,11-0.6c4.2,1.4,7.8,6,12.6,4.5c1.7-0.5,3.2-1.6,4.7-2.7
		c6.4-4.7,12.4-9.9,18.4-15c-3,3.4-5.6,7.3-8.8,10.6c-2.9,2.9-5.8,5.9-9.2,8.2c-2,1.4-5.1,2.6-7.6,2.4c-2.8-0.2-5.3-1.7-7.7-3.1
		c-1.2-0.7-2.5-1.1-3.9-1.1c0.3,0,0.2,2.3,0.1,2.6c-0.1,1.1-0.3,2.1-0.7,3.1c-1.2,3.4-3.8,6.2-6.3,8.5c-1.1,1-2.3,1.9-3.6,2.7
		c-0.1,0-0.1,0.1-0.2,0.1l11.7,4.6c0,0-4.5,2.6-7.9,3.8c2.1,2.4,7.1,2.1,7.1,2.1l0.6,17.9l8.4-9.8L438.2,462.6z M526.2,207.7
		c1,5.2-10.8,10.8-17.4,5.7C515.5,213.6,520.8,212.3,526.2,207.7z M437.7,199.3c6.8,0.1,12.1-1.3,17.3-6c-0.4,1.9-2,3.6-4.2,4.9
		c0,0,0.1,0,0.1-0.1c0,0,0,0,0,0c0.1-0.1,0.3-0.1,0.4-0.2c1.3-0.7,2.5-1.6,3.7-2.7c-0.7,6.7-11.8,10.3-17.4,5.7
		c2.9,0.1,5.6-0.1,8.1-0.7c0.3-0.1,0.6-0.1,0.8-0.2C443.5,200.8,440.2,200.7,437.7,199.3z M402,146.3c-6.8-0.2-12.1,1.1-17.4,5.7
		C386.1,144.1,396.7,142.2,402,146.3z M386.6,157c0.7-6.7,11.8-10.3,17.4-5.7C397.3,151.1,392,152.4,386.6,157z"/>
	<polygon class="st1" points="431.1,478.9 407.9,491.7 433.3,504.7 439.5,501.5 439.1,488.9 	"/>
	<path class="st1" d="M450.8,198.2c2.1-1.3,3.8-3,4.2-4.9c-5.2,4.7-10.5,6.1-17.3,6c2.5,1.4,5.8,1.4,8.8,0.6c0,0,0,0,0,0
		C448,199.5,449.5,198.9,450.8,198.2z"/>
</g>
<g>
</g>
<g>
</g>
<g>
</g>
<g>
</g>
<g>
</g>
<g>
</g>
</svg>
