<?xml version="1.0" encoding="utf-8"?>
<!-- Generator: Adobe Illustrator 20.1.0, SVG Export Plug-In . SVG Version: 6.00 Build 0)  -->
<!DOCTYPE svg PUBLIC "-//W3C//DTD SVG 1.1//EN" "http://www.w3.org/Graphics/SVG/1.1/DTD/svg11.dtd">
<svg version="1.1" id="Layer_1" xmlns="http://www.w3.org/2000/svg" xmlns:xlink="http://www.w3.org/1999/xlink" x="0px" y="0px"
	 width="400px" height="200px" viewBox="0 0 400 200" style="enable-background:new 0 0 400 200;" xml:space="preserve">
<style type="text/css">
	.st0{fill:none;}
	.st1{fill:#006E2B;}
	.st2{fill:#FFFFFF;}
</style>
<g>
	<path class="st0" d="M226,68.4c-1.8,1.6-3.6,2-6,1.9C222.3,72.2,226.4,70.2,226,68.4z"/>
	<path class="st0" d="M183.6,47.5c-1.8-1.4-5.4-0.8-6,1.9C179.4,47.8,181.3,47.4,183.6,47.5z"/>
	<path class="st0" d="M184.3,49.2c-1.9-1.6-5.7-0.4-6,1.9C180.2,49.5,182,49.1,184.3,49.2z"/>
	<path class="st0" d="M195.8,66.1c1.9,1.6,5.7,0.4,6-1.9c-0.4,0.4-0.8,0.7-1.3,0.9c0,0-0.1,0.1-0.1,0.1c0,0,0,0,0,0c0,0,0,0,0,0
		c-0.4,0.3-0.9,0.5-1.5,0.6c-0.1,0-0.2,0.1-0.3,0.1C197.7,66.1,196.8,66.1,195.8,66.1z"/>
	<path class="st1" d="M186.1,55.8c-1.7,0.4-3.1,0.8-3,3.5c0,2.7,0.3,4.3,0.8,5.5c0.5,1.4,1.4,1.7,2.5,1.8c0-0.2,1.2-3.3,1.2-3.3
		l0.3,3.1l0.4,2.3c0.1,0.3,0.4,0.4,0.6,0.3c0.9-0.6,2.7-2.1,3.2-5.3c0.8-4.4-0.7-7.1-1.6-7.7C189.7,55.6,188.3,55.3,186.1,55.8z"/>
	<polygon class="st1" points="109.4,166.6 117.6,188.9 123.2,186.8 114.8,164.6 	"/>
	<path class="st1" d="M238.6,149.9c20.5-13.3,34.4-36,35.3-62.3c1.4-42.6-32-78.3-74.5-79.7s-78.3,31.9-79.7,74.5
		c-0.9,27.9,13,52.8,34.7,67.1l-36.3,13.7l8.7,22.1l56.2-21.3l9.1-4.9l-16-20.1c-23.8-8.2-40.4-30.9-39.6-56.9
		c1.1-32.1,28.5-57.3,61.3-56.2c32.8,1.1,58.4,28,57.4,60.1c-0.9,25.5-18.3,46.6-41.9,53.7l-3.3,22.2l61.6,25.5l8.3-23L238.6,149.9z
		"/>
	<polygon class="st1" points="283.2,165.8 275,189.1 282.4,192.1 290.6,168.4 	"/>
	<path class="st1" d="M190.8,33.5l-0.2,5.1c0,0,0.6-1.5,1.9-2c0.7-0.3,2.1,0,2.2,0.1l-3.4-3.3C191.2,33.1,190.8,33.2,190.8,33.5z"/>
	<path class="st1" d="M168.4,60c-2.8,0.7-5.6,3.3-6.9,4.7c-1.4,1.4-1.3,1.7-1.3,2.5c0.1,0.8,1.6,2.2,2.4,2.7
		c0.7,0.6,3.4,0.6,4.9-1.1c1-1.1,2.9-2.8,4-5.2l-2.2,0.7l2.2-2.3C171.5,60.7,170.8,59.5,168.4,60z"/>
	<path class="st1" d="M207.5,59.9c0.9-0.2,3.5-0.5,5.6-2.4c-0.5-0.5-1.6-1.2-2.3-1.6c-2,0.5-3.4,1.7-4.1,3.1
		C206.4,59.7,206.5,60,207.5,59.9z"/>
	<path class="st1" d="M229.1,76.8c-1.7-0.3-3.6-0.7-4.9-1.9c-0.1,0.4,0,0.8,0.1,1.2c0.2,0.4,0.4,0.8,0.8,1.1
		c0.5,0.3,1.1,0.4,1.6,0.5c0.6,0.1,1.2,0.2,1.7,0.3c2,0.3,4.1,0.3,6.2,0c0.6-0.1,1.1-0.2,1.7-0.4c0.2-0.1,0.4-0.2,0.6-0.2
		c-0.8,0-1.5,0-2.3,0C232.7,77.2,230.9,77.1,229.1,76.8z"/>
	<path class="st2" d="M198.8,65.8C198.8,65.8,198.8,65.8,198.8,65.8c0.5-0.1,1-0.3,1.5-0.6C199.8,65.5,199.3,65.6,198.8,65.8z"/>
	<path class="st1" d="M196,155.6l-0.7-24.2l4.6,2.9l0.4,32.6c0,0,7.6-3.8,7.6-3.8l2.5-22.4l0-0.1c0-1.1,0-4.6,1.3-7.5
		c-0.6,0.2-1.4,0.2-1.4,0.2c-1.5,0.2-2.8-0.9-3-2.3l-0.1-0.8c0-0.3,0.2-0.5,0.4-0.6l4.8-0.6c-2.5-1-3.6-3.9-3.8-5.1
		c3.8-1.6,4-1.7,4.1-4.6c0.1-2.9,0.5-5.2,2.1-7.9c1.6-2.7,3.5-3.5,5.6-4.2c1.5-0.5,1.6-0.2,2.1-2.1c0.5-2,1.6-3.4,2.4-4.9
		c0.7-1.5,0.9-1.9,3.3-3.4c2.4-1.5,5.1-3,12.2-4.4c1.6-0.1,2-0.9,0.9-3.9c-0.4-1.3-0.4-8.9-0.4-8.9s-0.3-2.7-1.9-2
		c-1.6,0.7-4.1,1.1-5,1.2c-0.9,0.2-6.6,0.5-8.9-0.8c0.4,5.9,7.6,6.3,8.6,6.3c0,0,0.1,0,0.1,0s0,0,0,0c0.2,0,1,0.1,3.4-0.4
		c-1.4,0.9-4.6,1-4.9,1c0,0.1-0.1,0.2-0.1,0.2c0,0.2,0,0.4,0.1,0.5c0,0.1,0,0.1,0.1,0.2c0,0,0.1,0,0.1,0.1c0.3,0.2,0.7,0.3,1.1,0.4
		c0.9,0.3,1.8,0.5,2.7,0.5c-0.1,0.1-0.3,0.1-0.4,0.1c-0.1,0-0.2,0-0.3,0c-0.2,0-0.4,0.1-0.7,0.1c-0.5,0-0.9,0-1.4,0
		c-0.3,0-0.7,0-1-0.1c-0.3,0-0.7-0.1-1-0.1c-0.1,0-0.1,0-0.2,0.1c-2.4,0.8-4.8,1.5-7.2,2.3c-0.8,0.2-1.5,0.5-2.3,0.7
		c-0.1,0-0.7-0.4-0.8-0.5c-0.6-0.5-1.1-1-1.5-1.6c-0.9-1.4-1.1-3.2-0.5-4.8c1.1-2.7,2.6-5.1,4.2-7.5c0.1-0.1,0.1-0.2,0.2-0.3
		c1.3-1.5,3-3.7,6.3-4c1.5-0.3,2.8-0.9,2.4-2.9c-0.3-1.4-0.6-3-0.8-4.3c-0.2-1.2-1.4-0.9-2.2-1.5c-0.8-0.6-3.5-3.3-3-7.9
		c0.2-1.4,0.6-2.1-0.5-3c-0.7-0.6-1.8-1.6-2.5-3.2c-0.7-1.6-2.4-1.9-3.2-0.3c-2.8,4.1-5.5,4.8-5.5,4.8s-1.3-0.3-1.6,0.1
		c-0.4,0.4,0.1,1.2,0.1,1.2s-1.2-0.4-1.5,0.2c-0.3,0.6,0.5,1.2,0.5,1.2l2.1,1.4c0.3,0.2,0.3,0.6,0,0.8c-0.7,0.5-1.8,1.3-3,1.7
		c1.1,1.1,2.6,1.9,4.2,1.6c0.5-0.1,1.1-0.3,1.5-0.6c0.5-0.3,0.9-0.8,1.4-1.2c0.3-0.2,0.6-0.4,0.9-0.6c0.2-0.1,0.3-0.2,0.5-0.2
		c0.1,0,0.4,0,0.5-0.1c-0.8,0.5-1.4,1.4-1.9,2.2c-0.2,0.3-0.4,0.5-0.5,0.8c-0.3,0.7-0.3,1.6-0.3,2.4c0.1,1.7,0.2,3.5,2.1,4.2
		c1.4,0.5,3.5,0.9,5,0.3c-1.7,1.6-4.4,0.6-6.5,0.7c-1.5,0-2.2,1.1-2.4,2.5c-0.1,1.2-0.1,2.3-0.8,4.4c-0.7,2.1-3.2,5.5-4.4,6.3
		c-1.3,0.7-3.3,1.4-5.5-0.6c-2.7-2.5-2.2-5-1.9-6.4c0.3-1.4,1.2-4.8,4-7.8c1.6-1.6,1.1-3.3,0-4.9c-1.3-1.9-2-4.3-2.4-6.5
		c-0.4-2.4-0.2-4.5,0.6-6.8c0.4-1.8,0.8-3.2-3.5-4.5c-2.3-0.8-4.7-5.8-6-6.6c-1.3-0.8-3.2-1.5-4.4,1.6c-1,2.6-0.7,6.3,0.8,8.7
		c1.2,2,3.2,3,5.5,3.1c-0.9,0.5-3.2,0.4-3.2,0.3c0.1,1.1-0.4,2.2-0.4,2.2l1.4-0.2c0.5-0.1,1,0.3,1,0.8c0.1,1.1-0.5,2.2-1.5,2.7
		c-0.5,0.2-1,0.5-1.1,0.7c-0.1,0.2-0.1,0.4-0.1,0.6c0,0.3,0.1,0.6,0.1,1c0.1,0.7,0.3,1.5,0.5,2.2c0.1,0.2,0.1,0.4,0.2,0.6
		c0.1,0.2,0.3,0.3,0.5,0.4c0.2,0.1,0.5,0.3,0.7,0.4c0.7,0.3,1.4,0.6,2.2,0.7c0.7,0.1,1.3,0.1,2,0c-1.5,1.4-5.2,0.6-5.2,0.6
		c-0.8,0.9-0.8,2.1,0,3.4c-0.1,0.8-0.9,7.2-1.8,9.1c-1,1.9-7.8,3.2-7.8,3.2c0,0,0.3-1.3,0.4-1.4c0.2-0.7,0.8-1.2,1-1.9
		c0.2-0.7,0-1.4-0.3-2c-0.5-0.8-1.2-1.4-1.8-2c-1.2-1.2-0.9-6.5-0.9-6.5c-1.6-2.8-2.1-6.2-1.2-9.3c0.1-0.4,0.3-0.8,0.5-1.2
		c0.7-0.9,2.8-0.9,3.8-1.1c0.5-0.1,1.1-0.1,1.5-0.4c0.6-0.5,0.8-1.5,0.4-2.1c-0.4-0.7-1.3-0.9-2-0.9c-1.1,0-2.3,0.1-3.4,0.3
		c2.1-1.4,3.4-1.1,3.5-1.1c-0.3-0.6-0.6-1.6-0.4-3.3c0.1-0.9-0.4-2-2.4-1.7c-2,0.3-4.4,0.9-6.6,1.6c-2.2,0.7-2,2-1.7,3.3
		c0.3,1.2,0.7,3,0.6,4.5c-0.1,1.5-1.4,4.1-1.5,5.9c-0.1,1.9,2.1,4.7,2,6.2c0,1.5-1.6,3.5-1.9,5.2c-0.3,1.7,0.9,3.6,0.6,5.8
		c-0.3,1.6-1.5,2.7-2.9,3.5c-2.7,1.4-5.6,2-8.7,1.9c-1.4,0-2.8-0.1-4.3-0.1c-0.7,0-1.4-0.1-2-0.1c-0.5,0-1.3-0.3-1.7-0.1
		c12.6-3.8,12-12.7,12-12.7s-0.5,0.3-0.5,0.3c-0.4,0.2-0.8,0.4-1.2,0.6c-0.9,0.3-2.1,0.4-3,0.2c-1.4-0.3-2.3-1.3-3-2.5
		c-0.8-0.4-1.8-0.1-2.3,0.4c-0.6,0.5-0.8,1.8-0.8,1.8l-0.4,4.9c0,0-0.5-4.5-0.5-5c-0.3,0-0.7,0.1-1,0.3c-0.8,0.5-0.7,1.9-0.9,2.8
		c0,0.3,0.2,3.8,0.2,3.8l-1-2.5c-0.5,0.6-1.1,1.1-1.6,1.5c-1.1,0.9-2.2,1.7-3.4,2.4c-0.7,0.4-1.2,1-1.2,1.9c0,0.8,0.8,1.6,1.2,2.3
		c1,1.7,1.8,3.5,2.2,5.4c0.5,1.3,1.4,1,2.1,0.9c0.6-0.1,1.6-0.2,1.7-0.2c0,0,1.6-0.3,3.4-1.3c-0.7,1.5-2.3,2.5-2.5,2.5
		c0.6,1,1.4,2,1.7,2.6c0.5,0.8,0.7,1.4,3.5,1.1c1-0.3,1.8-0.4,2.7,1.2c0.3,0.5,0.6,0.9,0.9,1.3c0.3,0.4,0.8,0.8,1.3,0.8
		c0.5,0.1,1-0.2,1.5-0.4c1.1-0.5,2.3-1,3.4-1.6c-0.8,1.6-3.6,3.6-3.6,3.6c0.8,1.5,2.1,4.1,2.8,7.5c0.7,3.5-0.6,6.9-0.9,9.2
		c-0.4,3.3,2.4,2.7,3,5.5c0.2,0.7,0.8,0.9,1.5,0.9c1.3,0,2.5-0.6,3.8-0.2c1.4,0.5,2.7,2,4.3,1.5c0.6-0.2,1.1-0.6,1.6-0.9
		c2.2-1.6,4.2-3.4,6.3-5.1c-1,1.2-1.9,2.5-3,3.6c-1,1-2,2-3.1,2.8c-0.7,0.5-1.7,0.9-2.6,0.8c-1-0.1-1.8-0.6-2.6-1.1
		c-0.4-0.2-0.8-0.4-1.3-0.4c0.1,0,0.1,0.8,0.1,0.9c0,0.4-0.1,0.7-0.2,1.1c-0.4,1.2-1.3,2.1-2.1,2.9c-0.4,0.4-0.8,0.7-1.2,0.9
		c0,0,0,0-0.1,0l4,1.6c0,0-1.5,0.9-2.7,1.3c0.7,0.8,2.4,0.7,2.4,0.7l0.2,6.1l2.9-3.4L196,155.6z M226,68.4c0.3,1.8-3.7,3.7-6,1.9
		C222.4,70.5,224.2,70,226,68.4z M195.8,65.6c2.3,0,4.1-0.5,5.9-2.1c-0.1,0.6-0.7,1.2-1.4,1.7c0,0,0,0,0,0c0,0,0,0,0,0
		c0,0,0.1,0,0.1-0.1c0.4-0.2,0.9-0.5,1.3-0.9c-0.2,2.3-4,3.5-6,1.9c1,0,1.9,0,2.8-0.2c0.1,0,0.2,0,0.3-0.1
		C197.8,66.1,196.6,66.1,195.8,65.6z M183.6,47.5c-2.3-0.1-4.1,0.4-6,1.9C178.2,46.7,181.8,46,183.6,47.5z M178.3,51.1
		c0.2-2.3,4-3.5,6-1.9C182,49.1,180.2,49.5,178.3,51.1z"/>
	<polygon class="st1" points="193.5,161.2 185.6,165.5 194.3,170 196.4,168.9 196.3,164.6 	"/>
	<path class="st1" d="M200.3,65.2c0.7-0.4,1.3-1,1.4-1.7c-1.8,1.6-3.6,2.1-5.9,2.1c0.8,0.5,2,0.5,3,0.2c0,0,0,0,0,0
		C199.3,65.6,199.8,65.5,200.3,65.2z"/>
</g>
<g>
</g>
<g>
</g>
<g>
</g>
<g>
</g>
<g>
</g>
<g>
</g>
</svg>
