<svg xmlns="http://www.w3.org/2000/svg" width="12.5in" height="8.3in" viewBox="0 0 900 600"><defs><style>.cls-1{fill:none;}.cls-2{fill:#020202;}.cls-3{fill:#006e2b;}.cls-4{fill:#fff;}</style></defs><title>Artboard 1</title><path class="cls-1" d="M526.2 207.7c-5.3 4.6-10.6 5.9-17.4 5.7 6.5 5.2 18.4-.5 17.4-5.7zm-124.2-61.4c-5.3-4.1-15.8-2.2-17.4 5.7 5.3-4.6 10.6-5.9 17.4-5.7zm2.1 5c-5.7-4.6-16.7-1.1-17.4 5.7 5.3-4.6 10.6-5.9 17.4-5.7zm33.5 49.6c5.7 4.7 16.7 1.1 17.4-5.7a25.1 25.1 0 0 1-3.7 2.7l-.4.2h-.1a16.3 16.3 0 0 1-4.3 1.8l-.8.2a31.4 31.4 0 0 1-8.1.8z"/><path d="M409.3 170.9c-5 1.2-8.9 2.3-8.8 10.2s1 12.5 2.2 16.2 4.2 5.1 7.3 5.2c.1-.5 3.6-9.5 3.6-9.5l.9 9.1 1.2 6.8a1.2 1.2 0 0 0 1.4 1l.4-.2c2.6-1.6 7.8-6 9.5-15.5 2.2-12.8-2.1-20.9-4.6-22.5s-6.5-2.4-13.1-.8zm-224.2 323.9l23.8 65.3 16.6-6.3-24.7-64.9-15.7 5.9zm377.9-48.7a225.4 225.4 0 0 0 103.3-182.2c4.2-124.6-93.5-229-218.1-233.2s-229 93.4-233.1 218.1a225.5 225.5 0 0 0 101.6 196.2l-106.2 40.2 25.4 64.7 164.3-62.3 26.5-14.3-46.7-58.9c-69.5-24.1-118.3-90.2-115.7-166.3 3.1-93.9 83.4-167.5 179.2-164.3s170.9 82 167.8 175.9c-2.5 74.6-53.6 136.4-122.6 157l-9.8 64.8 180.3 74.6 24.2-67.1zm130.2 46.4l-23.7 68 21.5 8.9 23.9-69.2-21.7-7.7zm-270.2-387l-.5 14.9s1.7-4.3 5.5-5.9c2.1-.9 6.2.1 6.5.2l-9.9-9.7a1 1 0 0 0-1.4.1.8.8 0 0 0-.2.4zm-65.5 77.6c-8.1 1.9-16.3 9.5-20.2 13.6s-3.9 5.1-3.7 7.4 4.8 6.4 7 8 10 1.7 14.2-3.3c3-3.1 8.4-8.2 11.7-15.2l-6.6 2.2 6.4-6.7c.3-3.9-1.6-7.7-8.8-6z"/><path class="cls-2" d="M471.8 182.6c2.7-.5 10.2-1.5 16.3-7a50.4 50.4 0 0 0-6.6-4.8c-5.7 1.6-9.8 4.9-11.9 9.1-1 2.3-.5 3.2 2.2 2.7z"/><path class="cls-3" d="M535 232c-4.9-.9-10.5-2.2-14.3-5.6a6 6 0 0 0 .4 3.5 7.3 7.3 0 0 0 2.4 3.1 13.6 13.6 0 0 0 4.7 1.5l5.1.8a57.2 57.2 0 0 0 18-.1 42.1 42.1 0 0 0 4.8-1.2 4.9 4.9 0 0 1 1.7-.6h-6.8a106.9 106.9 0 0 1-16-1.4z"/><path class="cls-4" d="M446.6 200a16.3 16.3 0 0 0 4.3-1.8 17.8 17.8 0 0 1-4.3 1.8z"/><path d="M450.8 198.3h.1l.4-.2 1.4-1.2a9.4 9.4 0 0 1-1.9 1.4zm-19.7 280.6l-23.2 12.8 25.4 13 6.2-3.2-.4-12.6-8-10zm21.6-282l-1.4 1.2-.4.2h-.1a9.4 9.4 0 0 0 1.9-1.4zm.6-.5l-.6.5zm117.5 70c-1.2-3.7-1.3-26.1-1.3-26.1s-.8-7.8-5.5-5.7-12 3.2-14.6 3.6-19.3 1.5-26.1-2.3c1.2 17.4 22.2 18.4 25.2 18.5h.3c.5.1 2.9.2 9.9-1.2-4.1 2.6-13.6 2.9-14.4 2.9a1.7 1.7 0 0 0-.1.7 8.7 8.7 0 0 0 .2 1.6.5.5 0 0 0 .3.5l.2.2a16.9 16.9 0 0 0 3.1 1.3 35.6 35.6 0 0 0 7.9 1.5l-1.1.3h-.9l-1.9.2h-4l-3-.2a14.2 14.2 0 0 0-2.9-.2h-.6l-21.1 6.7-6.7 2.1c-.4.1-2-1.2-2.3-1.5a18.7 18.7 0 0 1-4.5-4.8 15.1 15.1 0 0 1-1.3-14 115.7 115.7 0 0 1 12.3-22l.6-.9c3.8-4.4 8.8-10.7 18.3-11.7 4.2-.8 8.3-2.7 7-8.6-.8-4-1.6-8.8-2.3-12.7s-4-2.7-6.3-4.3-10.4-9.7-8.6-23.2c.5-4.2 1.7-6.3-1.6-8.7a25.2 25.2 0 0 1-7.4-9.4c-2-4.7-7.1-5.5-9.3-.8-8.2 12.1-16 13.9-16 13.9s-3.7-.9-4.8.4.2 3.4.3 3.6-3.6-1.1-4.5.5l1.4 3.5 6.3 4a1.5 1.5 0 0 1 .4 2.1l-.3.3a37.4 37.4 0 0 1-8.9 5.1c3.3 3.2 7.6 5.5 12.3 4.6a14.9 14.9 0 0 0 4.5-1.9 35.4 35.4 0 0 0 4.2-3.5 12.7 12.7 0 0 1 2.7-1.8l1.4-.6 1.4-.3c-2.3 1.4-4 4.1-5.4 6.4l-1.5 2.4a16.7 16.7 0 0 0-.8 7c.2 5 .5 10.2 6.1 12.2 4 1.5 10.3 2.7 14.6.9-5 4.7-12.9 1.9-18.9 2s-6.5 3.3-6.9 7.4-.3 6.7-2.4 12.8-9.3 16.2-12.9 18.3-9.6 4.2-15.9-1.7c-8-7.2-6.4-14.7-5.4-18.7a50 50 0 0 1 11.6-22.9c4.6-4.6 3.2-9.6 0-14.3s-5.9-12.6-7-19.1a41.1 41.1 0 0 1 1.6-20c1.1-5.2 2.5-9.3-10.2-13.1-6.6-2.2-13.8-17.1-17.5-19.4s-9.3-4.4-13 4.7a28.2 28.2 0 0 0 2.2 25.3c4.2 7 9.4 8.8 16.2 9.2-2.5 1.5-9.4 1-9.4 1a17.6 17.6 0 0 1-1.1 6.4l4.1-.5a2.7 2.7 0 0 1 3 2.4 7.6 7.6 0 0 1-4.4 7.8c-1.5.7-2.9 1.4-3.2 2a3.2 3.2 0 0 0-.1 1.7 27 27 0 0 0 .4 2.8c.4 2.2.9 4.3 1.5 6.4l.5 1.8c.2.5.9.9 1.3 1.2l2.1 1.2a24 24 0 0 0 6.4 2.1 16.2 16.2 0 0 0 5.8-.1c-4.4 4.1-15.1 1.7-15.1 1.7-2.4 2.6-2.4 6.2.1 9.8-.3 2.4-2.5 21-5.4 26.5l-22.7 9.4 1.1-4.2c.7-2 2.2-3.6 2.8-5.6a7.6 7.6 0 0 0-1-5.9c-1.4-2.3-3.5-4-5.4-5.9-3.6-3.6-2.8-18.9-2.8-18.9a35.2 35.2 0 0 1-3.5-27.1 8.9 8.9 0 0 1 1.6-3.4c2.1-2.6 8.2-2.6 11.2-3.2 1.4-.3 3.2-.3 4.4-1.2a5.5 5.5 0 0 0 1.1-6.3c-1.2-2-3.7-2.7-5.9-2.6a84.2 84.2 0 0 0-10.1.9c6.1-4.1 10-3.3 10.2-3.3-.9-1.9-1.8-4.6-1.2-9.6.3-2.8-1.1-5.8-7-5a116.5 116.5 0 0 0-19.4 4.6c-6.4 2.1-5.8 6-5.1 9.5s1.9 8.8 1.7 13.3-4 11.9-4.4 17.4 6 13.8 6 18.1-4.7 10.1-5.7 15.2 2.8 10.6 1.8 16.9-4.3 8-8.4 10.2a52.2 52.2 0 0 1-25.4 5.7l-12.4-.4-6-.4c-1.4-.1-3.8-.8-5.1-.4 36.8-11.1 35-37.1 35-37.1l-1.5.9a16.2 16.2 0 0 1-3.5 1.7 18.7 18.7 0 0 1-8.8.6c-4-.9-6.6-3.9-8.6-7.3-2.2-1.2-5.2-.3-6.8 1.1l-2.4 5.2-1.2 14.3s-1.4-13.3-1.5-14.5a6.2 6.2 0 0 0-3 .9c-2.4 1.6-2 5.7-2.6 8.1l.6 11.1-2.9-7.4a50.1 50.1 0 0 1-4.8 4.4 58.4 58.4 0 0 1-10 7.1 6.2 6.2 0 0 0-3.5 5.4c.1 2.4 2.3 4.7 3.4 6.8a62 62 0 0 1 6.5 15.8c1.6 3.8 4.2 3 6.1 2.7l4.9-.7a34.8 34.8 0 0 0 9.9-3.7 17.6 17.6 0 0 1-7.4 7.4l5 7.5c1.5 2.3 1.9 4.1 10.4 3.4 2.8-.7 5.3-1 7.8 3.5a26.5 26.5 0 0 0 2.6 3.9 6 6 0 0 0 3.8 2.4 9.6 9.6 0 0 0 4.4-1.1c3.3-1.5 6.8-2.9 10-4.6-2.3 4.6-10.5 10.6-10.5 10.6a74.9 74.9 0 0 1 8 21.9c1.9 10.4-1.9 20.3-2.5 26.8-1.3 9.8 6.9 7.9 8.8 16 .5 2 2.5 2.8 4.3 2.8 3.8 0 7.2-1.8 11-.6s7.8 6 12.6 4.5a14.7 14.7 0 0 0 4.7-2.7c6.4-4.7 12.4-9.9 18.4-15-3 3.4-5.6 7.3-8.8 10.6a65 65 0 0 1-9.2 8.2 12.9 12.9 0 0 1-7.6 2.4c-2.5-.2-5.3-1.7-7.7-3.1a7.7 7.7 0 0 0-3.9-1.1c.3 0 .2 2.3.1 2.6a10.8 10.8 0 0 1-.7 3.1c-1.2 3.4-3.8 6.2-6.3 8.5a24.2 24.2 0 0 1-3.6 2.7h-.2l11.7 4.6a57.4 57.4 0 0 1-7.9 3.8c2.1 2.4 7.1 2.1 7.1 2.1l.6 17.9 8.4-9.8 49.4 58.5-2.1-70.7 13.5 8.6 1.1 95.5 22.1-11.2 7.4-65.5v-.4c.1-3.1.1-13.6 3.7-22a18.3 18.3 0 0 1-4 .5 7.8 7.8 0 0 1-8.7-6.8l-.3-2.4a1.5 1.5 0 0 1 1.3-1.7l14.1-1.8c-7.4-3.1-10.6-11.4-11.1-15 11.2-4.7 11.7-5.1 12.1-13.4s1.3-15.2 6-23 10.3-10.1 16.4-12.2c4.3-1.5 4.6-.5 6.2-6.3s4.8-9.9 7-14.3 2.5-5.5 9.6-9.8 14.9-8.7 35.6-12.9c4.8-.4 6-2.7 2.7-11.4zm-44.6-58.7c1 5.3-10.8 10.9-17.4 5.8 6.7.1 12-1.2 17.4-5.8zm-124.2-61.4c-6.8-.1-12.1 1.2-17.4 5.8 1.5-8 12.1-9.9 17.4-5.8zm-15.4 10.7c.7-6.7 11.8-10.3 17.4-5.7-6.7-.2-12 1.1-17.4 5.7zm51.1 42.3zm-.1 1.8a27.5 27.5 0 0 0 8.1-.7l.8-.2h-.1a22.6 22.6 0 0 0 4.3-1.7l.6-.4-.4.2h-.1a9.4 9.4 0 0 0 1.9-1.4l-1.4 1.2a25.1 25.1 0 0 0 3.7-2.7c-.7 6.7-11.8 10.3-17.4 5.7z"/></svg>