<svg xmlns="http://www.w3.org/2000/svg" viewBox="0 0 600 300"><style>.st0{fill:#FFFFFF;}</style><path d="M167.5 247.4l12 32.7 8.2-3.2-12.3-32.5zm189-24.4c30-19.4 50.4-52.7 51.7-91.1 2.1-62.3-46.7-114.5-109-116.6s-114.5 46.7-116.6 109c-1.4 40.8 19.1 77.2 50.8 98.1l-53.1 20.1 12.7 32.4 82.2-31.1 13.2-7.2-23.4-29.4c-34.8-12.1-59.1-45.1-57.9-83.2 1.6-47 41.7-83.8 89.6-82.2 47.9 1.6 85.5 41 83.9 88-1.3 37.3-26.8 68.2-61.3 78.5l-4.9 32.4 90.1 37.3 12.2-33.6-60.2-21.4zm65.1 23.2l-11.9 34 10.8 4.5 12-34.6zm-131.1-6.7l-11.5 6.3 12.6 6.5 3.1-1.5-.2-6.3z" id="belt"/><g id="hand"><path d="M338.1 103.9c-2.7 2.3-5.3 3-8.7 2.8 3.3 2.6 9.2-.2 8.7-2.8z" class="st0"/><path d="M279.6 85.4c-2.5.6-4.5 1.2-4.4 5.1.1 4 .5 6.2 1.1 8.1.7 2 2.1 2.5 3.6 2.6 0-.3 1.8-4.8 1.8-4.8l.4 4.6.6 3.4c.1.4.6.6.9.4 1.3-.8 3.9-3 4.7-7.7 1.1-6.4-1.1-10.4-2.3-11.2-1.1-.9-3-1.2-6.4-.5zm6.9-32.6l-.3 7.5s.9-2.2 2.8-3c1-.5 3.1.1 3.3.1l-4.9-4.9c-.3-.3-.8-.2-.9.3zm-32.7 38.8c-4.1 1-8.1 4.8-10.1 6.8-2 2.1-2 2.6-1.9 3.7.1 1.1 2.4 3.2 3.5 4 1.1.8 5 .8 7.1-1.6 1.5-1.6 4.2-4.1 5.9-7.6l-3.3 1.1 3.2-3.3c.1-2.1-.9-4-4.4-3.1zm57.1-.3c1.4-.2 5.1-.8 8.1-3.5-.7-.7-2.3-1.8-3.3-2.4-2.9.8-4.9 2.5-5.9 4.5-.5 1.2-.3 1.6 1.1 1.4zm31.6 24.7c-2.5-.4-5.2-1.1-7.2-2.8-.1.6 0 1.2.2 1.7.3.6.7 1.2 1.2 1.6.7.4 1.6.6 2.4.8.8.2 1.7.3 2.5.4 3 .4 6 .5 9-.1.8-.1 1.6-.3 2.4-.6.2-.1.6-.3.8-.3h-3.4c-2.6 0-5.3-.2-7.9-.7zm-42.1-16.9c-.6.4-1.4.7-2.1.9.7-.2 1.4-.5 2.1-.9zm59.9 34c-.6-1.9-.6-13-.6-13s-.4-3.9-2.8-2.9-6 1.6-7.3 1.8c-1.3.2-9.6.8-13.1-1.2.6 8.7 11.1 9.2 12.6 9.2h.1c.2 0 1.5.1 4.9-.6-2.1 1.3-6.8 1.4-7.2 1.5 0 .1-.1.2-.1.4 0 .3 0 .5.1.8l.1.3.1.1c.5.3 1 .5 1.5.7 1.3.4 2.6.7 3.9.7-.2.1-.4.2-.5.2-.1 0-.3 0-.5.1-.3 0-.6.1-1 .1h-2l-1.5-.1s-1-.2-1.5-.1c-.1 0-.2 0-.3.1l-10.5 3.3c-1.1.4-2.2.7-3.4 1.1-.2.1-1-.6-1.2-.7-.9-.7-1.6-1.5-2.2-2.4-1.4-2-1.6-4.8-.7-7 1.6-3.9 3.8-7.5 6.1-11 .1-.1.2-.3.3-.5 1.9-2.2 4.4-5.4 9.2-5.9 2.1-.4 4.1-1.4 3.5-4.3-.4-2-.8-4.4-1.2-6.3-.3-1.8-2-1.3-3.2-2.2-1.2-.8-5.2-4.9-4.3-11.6.3-2.1.8-3.1-.8-4.3-1-.8-2.7-2.4-3.7-4.7-1-2.3-3.5-2.7-4.6-.4-4.1 6.1-8 7-8 7s-1.9-.4-2.4.2c-.5.6.1 1.7.2 1.8-.1 0-1.8-.6-2.2.3-.5.8.7 1.7.7 1.7l3.1 2c.4.3.5.9.1 1.2-1 .7-2.7 1.9-4.5 2.5 1.6 1.6 3.8 2.8 6.2 2.3.8-.2 1.6-.5 2.3-.9.8-.5 1.4-1.2 2.1-1.8l1.3-.9.7-.3.7-.1c-1.2.7-2 2.1-2.7 3.2l-.8 1.2c-.5 1-.4 2.4-.4 3.5.1 2.5.3 5.1 3.1 6.1 2 .7 5.1 1.3 7.3.5-2.5 2.3-6.5.9-9.4 1-2.2.1-3.2 1.6-3.4 3.7-.2 1.7-.1 3.3-1.2 6.4-1.1 3.1-4.6 8.1-6.5 9.2-1.9 1.1-4.8 2.1-8-.8-4-3.6-3.2-7.4-2.7-9.4s1.7-7 5.8-11.5c2.3-2.3 1.6-4.8 0-7.1-1.8-2.8-2.9-6.3-3.5-9.5-.6-3.5-.2-6.6.8-10 .6-2.6 1.2-4.7-5.1-6.5-3.3-1.1-6.9-8.5-8.7-9.7-1.9-1.1-4.7-2.2-6.5 2.3-1.5 3.8-1 9.2 1.1 12.7 1.8 3 4.7 4.4 8.1 4.6-1.3.8-4.7.5-4.7.5.1 1.6-.6 3.2-.6 3.2l2.1-.2c.7-.1 1.4.4 1.5 1.2.2 1.7-.7 3.2-2.2 3.9-.8.4-1.5.7-1.6 1-.1.2-.1.6-.1.8 0 .5.1.9.2 1.4.2 1.1.5 2.1.8 3.2l.3.9c.1.3.4.4.7.6l1 .6c1 .5 2.1.9 3.2 1 1 .2 2 .1 2.9-.1-2.2 2-7.6.9-7.6.9-1.2 1.3-1.2 3.1 0 4.9-.2 1.2-1.2 10.5-2.7 13.3-1.5 2.7-11.4 4.7-11.4 4.7s.5-2 .5-2.1c.4-1 1.1-1.8 1.4-2.8.3-1 0-2.1-.5-2.9-.7-1.2-1.7-2-2.7-3-1.8-1.8-1.4-9.4-1.4-9.4-2.3-4.1-3.1-9-1.8-13.6.2-.6.4-1.2.8-1.7 1.1-1.3 4.1-1.3 5.6-1.6.7-.1 1.6-.1 2.2-.6.8-.7 1.1-2.2.6-3.1-.6-1-1.8-1.3-2.9-1.3-1.7.1-3.4.1-5 .4 3-2 5-1.7 5.1-1.6-.5-.9-.9-2.3-.6-4.8.2-1.4-.5-2.9-3.5-2.5-3 .4-6.5 1.3-9.7 2.3-3.2 1-2.9 3-2.6 4.8.4 1.8 1 4.4.9 6.6-.1 2.2-2 6-2.2 8.7-.1 2.7 3 6.9 3 9 0 2.2-2.3 5-2.8 7.6-.5 2.5 1.4 5.3.9 8.5-.4 2.4-2.1 4-4.2 5.1-4 2.1-8.2 2.9-12.7 2.8-2.1 0-4.1-.1-6.2-.2-1 0-2-.1-3-.2-.7 0-1.9-.4-2.6-.2 18.4-5.6 17.5-18.6 17.5-18.6s-.7.4-.7.5c-.5.3-1.1.6-1.7.8-1.3.4-3 .6-4.4.3-2-.4-3.3-2-4.3-3.6-1.1-.6-2.6-.2-3.4.5-.8.7-1.2 2.6-1.2 2.6l-.6 7.1s-.7-6.6-.8-7.3c-.5 0-1 .2-1.5.5-1.2.8-1 2.9-1.3 4.1 0 .5.3 5.6.3 5.6l-1.4-3.7c-.7.8-1.6 1.6-2.4 2.2-1.6 1.4-3.2 2.5-5 3.5-1 .6-1.8 1.5-1.8 2.7 0 1.2 1.1 2.4 1.7 3.4 1.4 2.5 2.6 5.1 3.2 7.9.8 1.9 2.1 1.5 3.1 1.4.9-.1 2.3-.3 2.4-.4 0 0 2.4-.4 4.9-1.8-1.1 2.2-3.4 3.6-3.7 3.7.9 1.4 2 3 2.5 3.7.7 1.1 1 2.1 5.2 1.7 1.4-.4 2.6-.5 3.9 1.8.4.7.8 1.4 1.3 2 .5.6 1.1 1.1 1.9 1.2.8.1 1.5-.2 2.2-.5 1.7-.7 3.4-1.4 5-2.3-1.1 2.3-5.2 5.3-5.2 5.3 1.2 2.2 3 5.9 4 10.9 1 5.2-.9 10.1-1.2 13.4-.6 4.9 3.5 4 4.4 8 .2 1 1.2 1.4 2.1 1.4 1.9 0 3.6-.9 5.5-.3 2.1.7 3.9 3 6.3 2.3.9-.3 1.6-.8 2.3-1.3 3.2-2.4 6.2-4.9 9.2-7.5-1.5 1.7-2.8 3.7-4.4 5.3-1.4 1.5-2.9 2.9-4.6 4.1-1 .7-2.5 1.3-3.8 1.2-1.4-.1-2.6-.8-3.8-1.5-.6-.4-1.2-.5-1.9-.5.2 0 .1 1.1.1 1.3 0 .5-.2 1.1-.3 1.6-.6 1.7-1.9 3.1-3.1 4.3-.5.5-1.2 1-1.8 1.4 0 0-.1 0-.1.1l5.8 2.3s-2.3 1.3-3.9 1.9c1.1 1.2 3.5 1 3.5 1l.3 9 4.2-4.9 24.9 29-1.1-35.3 6.7 4.3.5 47.7 11-5.6 3.7-32.8v-.2c0-1.6.1-6.8 1.9-11-.9.2-2 .2-2 .2-2.1.3-4.1-1.3-4.4-3.4l-.2-1.2c-.1-.4.2-.8.7-.9l7-.9c-3.7-1.5-5.3-5.7-5.6-7.5 5.6-2.3 5.9-2.5 6-6.7.2-4.2.7-7.6 3-11.5 2.3-3.9 5.1-5.1 8.2-6.1 2.1-.7 2.3-.3 3.1-3.1.8-2.9 2.4-5 3.5-7.2s1.3-2.8 4.8-4.9c3.5-2.1 7.5-4.3 17.8-6.4 2.9-.9 3.5-2 1.8-6.4zm-22.2-29.2c.5 2.6-5.4 5.4-8.7 2.8 3.4.1 6-.5 8.7-2.8zm-62.1-30.8c-3.4-.1-6.1.5-8.7 2.8.8-3.9 6-4.8 8.7-2.8zm-7.7 5.4c.4-3.4 5.9-5.2 8.7-2.8-3.4-.1-6 .5-8.7 2.8zm25.5 21.9c1.5.1 2.8 0 4-.4l.4-.1c.7-.2 1.4-.5 2.1-.9h.1s.1 0 .1-.1c.6-.4 1.2-.8 1.9-1.3-.2 3.4-5.7 5.2-8.6 2.8z"/></g></svg>