<svg xmlns="http://www.w3.org/2000/svg" width="900" height="600" viewBox="0 0 900 600"><style type="text/css">.st0{fill:none;}</style><path d="M202.5 431l-17.9.4c-8.3.2-13.2 2.3-16.2 13.3h-3c.9-5.4 1-10.6 1.2-19 9.5.5 19.3.5 29 .5 9.9 0 19.8 0 29.7-.5l-42.8 65 22.5-1c11.1-.5 14.5-6.3 16.1-13.9h2.8c-.6 6.9-.8 14-1 21.1-10.3-.5-20.9-.5-31.4-.5-10.8 0-21.5 0-32.2.5l43.2-65.9zm50.6 67.1c-15 0-23.4-10.1-23.4-24.8 0-13.7 10.5-25 24.7-25 15 0 23.4 10.1 23.4 24.8-.1 15-10.1 25-24.7 25zm-.4-44.9c-7.9 0-10.3 8.9-10.3 15 0 8.5 4.3 22 13.6 22 8 0 9.1-8.5 9.1-15-.1-6.9-3.1-22-12.4-22zm34.8 9.1c0-5.3-.3-6.1-5.5-6.1v-3c5.8-.8 10.8-2.8 15.1-5h2.8v8.9c4.7-4.5 9.9-8.9 15.7-8.9 6.8 0 10.7 4.2 11.9 8.9 4.7-4.5 9.9-8.9 16-8.9 9.2 0 12.5 6.4 12.5 15.7v25.4c0 4.5 2.7 4.5 5.1 4.6v3c-4.2-.5-8.2-.5-12.1-.5s-7.9 0-11.5.5v-3c2.5-.1 5.1-.1 5.1-4.6v-25c0-3.2-.9-8.2-6.4-8.2-3 0-5.6 1.7-7.9 3.6v29.7c0 4.5 2.7 4.5 5.1 4.6v3c-4.2-.5-8.2-.5-12.1-.5s-7.9 0-11.5.5v-3c2.5-.1 5.1-.1 5.1-4.6v-25c0-7.6-4.9-8.2-7.5-8.2-1.9 0-4.2 1.1-6.8 3.1v30.2c0 4.5 2.7 4.5 5.1 4.6v3c-4.2-.5-8.2-.5-12.1-.5-3.9 0-7.9 0-11.5.5v-3c2.5-.1 5.1-.1 5.1-4.6v-27.2zm81.6-26c0-5.3-.3-6.1-5.5-6.1v-3c5.9-.8 12.5-3.1 16.3-5.5h2.9c-.2 3.3-.4 6.6-.4 9.9v25h.2c4.4-5.1 8.8-8.4 15-8.4 12 0 16.5 12.5 16.5 22.6 0 13.8-6.4 27.3-22 27.3-5.1 0-8.1-.9-12-4.9-3.6 1.5-5.8 2.8-9.2 4.9h-1.9v-61.8zm13.3 52.3c2.2 2.2 4.6 4 7.2 4 8.7 0 10.7-10.4 10.7-17.2 0-8.4-2.1-18.2-10.8-18.2-2.6 0-5 1.3-7.1 2.6v28.8zm57 .8c0 4.5 2.7 4.5 5.1 4.6v3c-4.2-.5-8.2-.5-12.1-.5s-7.9 0-11.5.5v-3c2.5-.1 5.1-.1 5.1-4.6v-27.1c0-5.3-.3-6.1-5.5-6.1v-3c5.9-.8 12.5-3.1 16.3-5h2.9c-.2 3.3-.4 6.6-.4 9.9v31.3zm-7-49.3c-4.5 0-7.3-3.4-7.3-7.4 0-4.9 2.8-8.2 7.7-8.2 4.5 0 7.3 3.4 7.3 7.4 0 4.8-2.8 8.2-7.7 8.2zm28.7 28.4c.4 8.6 5.5 18.1 14.9 18.1 5.4 0 9.9-2.5 13.4-7.1l2.5.8c-3.2 10-9.5 17.8-21.5 17.8-13.8 0-20.2-11.9-20.2-24.4 0-13.3 6.6-25.5 21.4-25.5 11.8 0 18.4 8.5 18.4 20.3h-28.9zm15.6-4.2c-.3-5.4-.9-12-7.5-12-6.4 0-8.1 7-8.1 12h15.6zm44.9 21.9c0 5.6 0 7.2 6.9 7.7v3c-5-.5-10.3-.5-15.5-.5-5 0-10.1 0-15.2.5v-3c6.9-.5 6.9-2.1 6.9-7.7v-49.9c0-5.6 0-7.2-6.9-7.7v-3c5.9.5 10.3.5 15.5.5 7.1 0 13.3-.5 19.4-.5 12.2 0 21.5 5.5 21.5 19.1 0 16.8-13.1 22.5-27.8 22.5h-4.8v19zm0-23.1c12.2 0 14.9-4.2 14.9-15.4 0-8.3-2.2-17-11.9-17-1.5 0-3.1.2-3.1 1.9v30.5zm57.1 26.3c0 4.5 2.7 4.5 7 4.6v3c-6-.5-10.1-.5-14-.5s-7.9 0-11.5.5v-3c2.5-.1 5.1-.1 5.1-4.6v-27.1c0-5.3-.3-6.1-5-6.1v-3c5.2-.8 10.2-2.8 14.6-5h2.3v11.6h.2c3.4-5.5 6.8-11.6 12.2-11.6 5.9 0 6.5 4.6 6.5 9.5 0 5.3-.3 8.1-6.5 8.1-3.9 0-5.5-.9-5.5-4.7 0-1.8-.8-2.1-1.5-2.1-1.2 0-3 2.6-4 4v26.4zm44.7 8.7c-15 0-23.4-10.1-23.4-24.8 0-13.7 10.5-25 24.7-25 15 0 23.4 10.1 23.4 24.8 0 15-10 25-24.7 25zm-.4-44.9c-7.9 0-10.3 8.9-10.3 15 0 8.5 4.3 22 13.6 22 8 0 9.1-8.5 9.1-15 0-6.9-3.1-22-12.4-22zm53.6 44.9c-15 0-23.4-10.1-23.4-24.8 0-13.7 10.5-25 24.7-25 15 0 23.4 10.1 23.4 24.8-.1 15-10.1 25-24.7 25zm-.4-44.9c-7.9 0-10.3 8.9-10.3 15 0 8.5 4.3 22 13.6 22 8 0 9.1-8.5 9.1-15 0-6.9-3.1-22-12.4-22zm35.8 1.4h-5.1v-4.2h5.1c.3-20.5 5.8-28.8 20.1-28.8 3.6 0 8.8 1.7 8.8 8.4 0 3.7-1.8 5.3-5.1 5.3-4.4 0-4.4-2.9-4.4-5.9 0-1.6 0-3.7-2.8-3.7-3.7 0-3.7 4-3.7 8.6 0 5.2.3 10.5.3 16h8.2v4.2h-8.2v34.7c0 4.5 2.7 4.5 6.1 4.6v3c-5.1-.5-9.2-.5-13.1-.5s-7.9 0-11.5.5v-3c2.5-.1 5.1-.1 5.1-4.6v-34.6zm-537.6 103.4h-10.3c-1.9 0-3.8.1-5 .3v-1.3h1.2c2.3 0 2.9-.5 2.9-3.2v-28.1c0-2.7-.6-3.2-2.9-3.2h-1.2v-1.2c.6.1 1.4.2 2.2.2.9 0 1.8.1 2.8.1h10.5c8.9 0 10.4 5.3 10.4 7.9 0 4.7-2.4 7.5-8.1 8.7v.1c5.6.4 10.4 3.1 10.4 9.5 0 8.9-9.7 10.2-12.9 10.2zm-3.3-34.9c-2 0-2.7 0-2.7 1v12.9c0 .9.2.9 1.4.9 5.2 0 9.5-1 9.5-7.1 0-5.5-2.6-7.7-8.2-7.7zm-1.2 16.3c-1.2 0-1.5.1-1.5.5v14.2c0 2.3 2.5 2.4 4.1 2.4 5.5 0 9.2-2.6 9.2-7.4-.1-7.3-4.1-9.7-11.8-9.7zm21.6 17.6h.9c1.7 0 2.4-.5 2.4-3.2v-13.7c0-2.6-.4-3.4-3-3.4h-1.1v-1.2c2.5-.3 4.9-1.2 7-2.5h1.6c-.1 1.6-.2 3.3-.2 5.1v1.6h.1c1.2-1.6 4.8-6.1 7-6.1 2.3 0 2.8 1.8 2.8 3.8 0 1.6-.5 2.1-2.3 2.1-1.5 0-2.1-.4-2.1-1.7 0-.4-.1-1.1-.6-1.1-.8 0-4.8 4-5 5.4v11.7c0 2.7.7 3.2 2.4 3.2h2.3v1.2c-2.9-.2-4.9-.3-6.8-.3-1.9 0-4 .1-5.5.3v-1.2zm34.3-17.9c0-3.4-1.3-4.5-4.2-4.5-2.3 0-4.4.9-4.4 4 0 2.4 0 3.1-2.1 3.1-2 0-2.2-.7-2.2-2.1 0-4.6 4.1-6.5 8.4-6.5 6.1 0 8.8 1.9 8.8 8v13.3c0 1 .1 1.8.8 1.8s1.4-.5 2.1-1l.5.8c-1.2 1.3-3.2 3-5.1 3-2.1 0-2.5-2.2-2.5-3.5v-1.1c-2.3 2.4-5.1 4.7-8.6 4.7-3.4 0-5.8-2.6-5.8-6.1 0-5.5 4.2-8.2 14.4-10v-3.9zm0 4.8c-3.3.9-9.8 3-9.8 7.5 0 2.3 1.5 4.1 3.8 4.1s4.2-1.2 6-2.4v-9.2zm24.8-8.1h-5.3c-3.5 0-6.8.6-7.2 4.8h-1.2c.2-2.3.3-4.6.3-6.9 3.3.2 6.7.3 10.1.3 3.3 0 6.6-.1 10-.3l-15.4 22.6 6.6-.2c3.6-.1 6.1-.6 7.2-4.8h1.1c-.2 2.4-.4 4.7-.5 7.1-3.5-.2-7-.3-10.5-.3s-7 .1-10.6.3l15.4-22.6zm9.3 21.2h.9c1.7 0 2.4-.5 2.4-3.2v-13.7c0-2.6-.4-3.4-3-3.4h-1.1v-1.2c2.5-.3 4.9-1.2 7-2.5h1.6c-.1 1.6-.2 3.3-.2 5.1v15.7c0 2.7.7 3.2 2.4 3.2h.9v1.2c-1.5-.2-3.5-.3-5.5-.3-1.9 0-4 .1-5.5.3v-1.2zm5.2-29.7c-1.8 0-2.9-1.5-2.9-3.3 0-1.7 1.3-3.3 3.1-3.3 1.7 0 2.8 1.4 2.8 3.3 0 1.8-1.2 3.3-3 3.3zm9 29.7h.9c1.7 0 2.4-.5 2.4-3.2v-28c0-2.8-.8-3.3-2.9-3.3h-.6v-.9c2.1-.4 5-1.3 6.8-2.3h1.2c-.2 1.4-.2 2.9-.2 4.2v30.4c0 2.7.7 3.2 2.4 3.2h.9v1.2c-1.5-.2-3.5-.3-5.5-.3-1.9 0-4 .1-5.5.3v-1.3zm14.3 0h.9c1.7 0 2.4-.5 2.4-3.2v-13.7c0-2.6-.4-3.4-3-3.4h-1.1v-1.2c2.5-.3 4.9-1.2 7-2.5h1.6c-.1 1.6-.2 3.3-.2 5.1v15.7c0 2.7.7 3.2 2.4 3.2h.9v1.2c-1.5-.2-3.5-.3-5.5-.3-1.9 0-4 .1-5.5.3v-1.2zm5.2-29.7c-1.8 0-2.9-1.5-2.9-3.3 0-1.7 1.3-3.3 3.1-3.3 1.7 0 2.8 1.4 2.8 3.3.1 1.8-1.2 3.3-3 3.3zm23.4 11.8c0-3.4-1.3-4.5-4.2-4.5-2.3 0-4.4.9-4.4 4 0 2.4 0 3.1-2.1 3.1-2 0-2.2-.7-2.2-2.1 0-4.6 4.1-6.5 8.4-6.5 6.1 0 8.8 1.9 8.8 8v13.3c0 1 .1 1.8.8 1.8s1.4-.5 2.1-1l.5.8c-1.2 1.3-3.2 3-5.1 3-2.1 0-2.5-2.2-2.5-3.5v-1.1c-2.3 2.4-5.1 4.7-8.6 4.7-3.4 0-5.8-2.6-5.8-6.1 0-5.5 4.2-8.2 14.4-10v-3.9zm0 4.8c-3.3.9-9.8 3-9.8 7.5 0 2.3 1.5 4.1 3.8 4.1s4.2-1.2 6-2.4v-9.2zm9.7 13.1h.9c1.7 0 2.4-.5 2.4-3.2v-13.8c0-2.6-.4-3.4-3-3.4h-1v-1.2c2.5-.3 4.9-1.2 7-2.5h1.2v4.9h.1c1.3-1.5 5-4.9 8.5-4.9 4.4 0 7.1 2.7 7.1 8.9v11.9c0 2.7.7 3.2 2.4 3.2h.9v1.2c-1.5-.2-3.5-.3-5.5-.3s-4 .1-5.5.3v-1.1h.9c1.7 0 2.4-.5 2.4-3.2v-12.1c0-3.2-1.4-5.3-4.7-5.3-2.4 0-4.7 1.3-6.6 2.6v14.8c0 2.7.7 3.2 2.4 3.2h.9v1.2c-1.5-.2-3.5-.3-5.5-.3s-4 .1-5.5.3v-1.2zm48.1-31.3c0-2.7-.6-3.2-2.9-3.2h-1.2v-1.2c2.3.2 4.7.3 6.9.3 1.8 0 4.2-.1 6.5-.3v1.2h-1.2c-2.3 0-2.9.5-2.9 3.2v19.3c0 13-.1 17.9-9.6 22.5l-.8-.9c5-1.8 5.2-6.6 5.2-8.7v-32.2zm11.5 31.3h.9c1.7 0 2.4-.5 2.4-3.2v-13.7c0-2.6-.4-3.4-3-3.4h-1.1v-1.2c2.5-.3 4.9-1.2 7-2.5h1.6c-.1 1.6-.2 3.3-.2 5.1v15.7c0 2.7.7 3.2 2.4 3.2h.9v1.2c-1.5-.2-3.5-.3-5.5-.3-1.9 0-4 .1-5.5.3v-1.2zm5.2-29.7c-1.8 0-2.9-1.5-2.9-3.3 0-1.7 1.3-3.3 3.1-3.3 1.7 0 2.8 1.4 2.8 3.3 0 1.8-1.2 3.3-3 3.3zm27 27.5c-3.1 3.1-5.7 4.1-8.2 4.1-6.1 0-7.4-5.1-7.4-9.6v-9.2c0-2.6-.4-3.4-2.3-3.4h-1v-1.2c1.8-.3 4.1-1.2 6.3-2.5h1.6c-.1 1.6-.2 3.3-.2 5.1v11.2c0 3.5 1.7 6.2 5.3 6.2 2.7 0 4.7-1.4 5.7-2.5v-12.9c0-2.6-.4-3.4-2.3-3.4h-1v-1.2c1.8-.3 4.1-1.2 6.3-2.5h1.6c-.1 1.6-.2 3.3-.2 5.1v12.9c0 3.7.4 4.3 2 4.3h1.3v1.2c-2.1.2-4.2.9-6 1.7h-1.4v-3.4zm11.2-10.6h11.4v3.7h-11.4v-3.7zm20.2-18.5c0-2.7-.6-3.2-2.9-3.2h-1.2v-1.2c2.3.2 4.7.3 6.9.3 1.8 0 4.2-.1 6.5-.3v1.2h-1.2c-2.3 0-2.9.5-2.9 3.2v19.3c0 13-.1 17.9-9.6 22.5l-.8-.9c5-1.8 5.2-6.6 5.2-8.7v-32.2zm11.5 31.3h.9c1.7 0 2.4-.5 2.4-3.2v-13.7c0-2.6-.4-3.4-3-3.4h-1.1v-1.2c2.5-.3 4.9-1.2 7-2.5h1.6c-.1 1.6-.2 3.3-.2 5.1v15.7c0 2.7.7 3.2 2.4 3.2h.9v1.2c-1.5-.2-3.5-.3-5.5-.3s-4 .1-5.5.3v-1.2zm5.2-29.7c-1.8 0-2.9-1.5-2.9-3.3 0-1.7 1.3-3.3 3.1-3.3 1.7 0 2.8 1.4 2.8 3.3 0 1.8-1.2 3.3-3 3.3zm12.4 9.6h-3.3v-1.2c3.7-1.9 6-5.7 6.5-9.2h1.1v8.9h5.9v1.5h-5.9v13.9c0 2.7.3 5 2.5 5 1.2 0 2.5-.7 3.4-1.5l.5.9c-1.6 1.8-3.6 3.6-6.2 3.6-3.7 0-4.5-3.1-4.5-6.1v-15.8zm28.1 3.3c-.3-3.3-2.9-5.6-6.1-5.6-2.2 0-4.2 1.1-4.2 3.4 0 2.2.7 2.7 6 5.2 3.6 1.7 6.5 3.5 6.5 7.9 0 4.9-3.4 7.8-8.1 7.8-2.4 0-5.2-1.4-6.8-1.4h-.8c.2-2.9.3-5.5.2-8.4h1.2c.2 4.6 3 8.3 6.9 8.3 2.4 0 5-2 5-4.4 0-3.1-3.2-4.4-6.5-5.9-4-1.8-6.6-3.3-6.6-7.3 0-4.1 3.3-6.7 7.1-6.7 1 0 1.9.2 2.9.3 1 .2 1.9.3 2.9.3.6 0 1-.1 1.4-.2.1 2.4.3 4.6.3 6.8h-1.3zm24.5 14.6c-3.1 3.1-5.7 4.1-8.2 4.1-6.1 0-7.4-5.1-7.4-9.6v-9.2c0-2.6-.4-3.4-2.3-3.4h-1v-1.2c1.8-.3 4.1-1.2 6.3-2.5h1.6c-.1 1.6-.2 3.3-.2 5.1v11.2c0 3.5 1.7 6.2 5.3 6.2 2.7 0 4.7-1.4 5.7-2.5v-12.9c0-2.6-.4-3.4-2.3-3.4h-1v-1.2c1.8-.3 4.1-1.2 6.3-2.5h1.6c-.1 1.6-.2 3.3-.2 5.1v12.9c0 3.7.4 4.3 2 4.3h1.3v1.2c-2.1.2-4.2.9-6 1.7h-1.4v-3.4zm50.6-17.8c1.7.2 3.5.4 5.2.4 2 0 4-.2 5.9-.4v1.2c-2.7 0-3.7.9-5.1 2.8-1.6 2.3-4.8 6.2-7.7 9.8 2.4 2.9 5.3 5.2 9.2 5.2 1.5 0 3.4-.5 4.7-1.3l.7.9c-2.4 1.4-5.3 3.2-7.8 3.2-4.6 0-6.4-1.8-9.8-4.9-4.4 3.2-7 4.9-12.6 4.9-5.2 0-8.7-3.8-8.7-8.8 0-6.1 6.1-9.6 10.8-12.1-1.3-3-1.6-4.5-1.6-7.7 0-5.2 3.2-8.9 8.6-8.9 3.9 0 7.3 2.3 7.3 6.6 0 4.5-5.4 7.3-9.4 9.3 2.4 4.3 4.8 8.6 7.7 12.5 2.1-2.5 5.3-7.3 5.3-9.9 0-1.3-1.6-1.6-2.6-1.5v-1.3zm-13.8 18.8c3.3 0 5.8-1.5 7.8-3.2-3.3-4.1-6.3-8.5-8.7-13.2-3.6 2.3-6.3 4.4-6.3 9.1.1 3.9 2.8 7.3 7.2 7.3zm2.8-19.9c3.3-2 6.6-4.3 6.6-8.6 0-2.4-1.5-4.5-4.2-4.5-3.5 0-4.7 2.6-4.7 5.5.1 2 1.1 5.7 2.3 7.6zm40.8 21.1h1.4c2.2 0 2.8-.7 2.9-2.4l.7-28.3c.1-2.8-.1-3.8-4.2-3.8v-1.2c1.6.2 3.3.3 5 .3 1.6 0 3.3-.1 4.8-.3 4.2 9.6 8.3 18.7 11.8 28.6h.1c3.5-10 7.6-19.1 11.4-28.6 1.6.2 3.2.3 4.8.3 1.6 0 3.2-.1 4.8-.3v1.2c-3.6 0-4.2.3-4.2 4.2l.1 3.9.4 23.6c.1 2.8 1.9 2.8 4.3 2.8v1.2c-2.3-.2-4.6-.3-6.9-.3-2.8 0-3.9.1-6.8.3v-1.2c3.8 0 4.2-.7 4.2-3.2l-.2-28.2h-.1l-12.5 30.9c-.4.9-.7 1.7-.9 1.7-.3 0-.8-1.3-1.6-3.3l-12.2-29.3h-.1l-.2 29.8c0 1.6 2.4 1.6 4.3 1.6v1.2c-2-.2-4-.3-5.9-.3-1.7 0-3.5.1-5.2.3v-1.2zm46.6 0h1.4c2.2 0 2.8-.7 2.9-2.4l.7-28.3c.1-2.8-.1-3.8-4.2-3.8v-1.2c1.6.2 3.3.3 5 .3 1.6 0 3.3-.1 4.8-.3 4.2 9.6 8.3 18.7 11.8 28.6h.1c3.5-10 7.6-19.1 11.4-28.6 1.6.2 3.2.3 4.8.3 1.6 0 3.2-.1 4.8-.3v1.2c-3.6 0-4.2.3-4.2 4.2l.1 3.9.4 23.6c.1 2.8 1.9 2.8 4.3 2.8v1.2c-2.3-.2-4.6-.3-6.9-.3-2.8 0-3.9.1-6.8.3v-1.2c3.8 0 4.2-.7 4.2-3.2l-.2-28.2h-.1l-12.5 30.9c-.4.9-.7 1.7-.9 1.7-.3 0-.8-1.3-1.6-3.3l-12.2-29.3h-.1l-.2 29.8c0 1.6 2.4 1.6 4.3 1.6v1.2c-2-.2-4-.3-5.9-.3-1.7 0-3.5.1-5.2.3v-1.2zm45.8 0c2.6 0 3.2-1.6 4.8-5.4l12.9-31c.2-.4.3-.6.5-.6s.4.2.5.6l12.9 32.1c1.4 3.3 2.2 4.4 4.3 4.4v1.2c-2.1-.2-4.1-.3-6.2-.3-2 0-4 .1-6 .3v-1.3c1.1 0 2.9 0 2.9-1.3 0-.8-.5-1.9-.8-2.8l-2.7-7h-13.5l-2.9 7.2c-.4 1-.6 1.7-.6 2.2 0 1.7 1.8 1.8 3.2 1.8v1.2c-1.7-.2-3.4-.3-5.1-.3-1.4 0-2.8.1-4.3.3v-1.3zm16.7-28.2l-6.2 15.2h12l-5.8-15.2z"/><path class="st0" d="M414.1 109c-4.2-3.5-12.5-.8-13.1 4.2 4-3.4 8-4.4 13.1-4.2zm25.2 37.1c4.2 3.5 12.5.8 13.1-4.2-.9.8-1.9 1.5-2.8 2l-.3.2h-.1c-1 .6-2.1 1-3.2 1.3l-.6.2c-2 .5-4 .6-6.1.5zm66.3 5.2c-4 3.5-8 4.4-13.1 4.2 5 3.9 13.8-.3 13.1-4.2zm-93.1-46.1c-4-3.1-11.9-1.7-13.1 4.2 4.1-3.4 8-4.3 13.1-4.2z"/><path d="M418 123.6c-3.7.9-6.7 1.8-6.6 7.7.1 5.9.7 9.4 1.6 12.1 1 3 3.2 3.8 5.4 3.9.1-.4 2.7-7.1 2.7-7.1l.7 6.8.9 5.1c.1.6.8.9 1.4.6 1.9-1.2 5.8-4.5 7.1-11.6 1.7-9.6-1.6-15.6-3.4-16.9-1.9-1.2-4.8-1.7-9.8-.6zm-168 242.8l17.8 48.9 12.5-4.7-18.5-48.7zm373.4-4.4l-18.2 50.4-135.1-55.9 7.3-48.6c51.7-15.4 90-61.7 91.9-117.7 2.4-70.4-53.9-129.4-125.7-131.8-71.8-2.4-131.9 52.7-134.3 123.1-1.9 57 34.6 106.5 86.7 124.6l35 44.1-19.8 10.8-123.2 46.7-19-48.5 79.6-30.1c-47.6-31.3-78.2-85.9-76.1-147 3.1-93.4 81.3-166.5 174.7-163.4s166.5 81.3 163.4 174.7c-1.9 57.6-32.4 107.5-77.4 136.5l90.2 32.1zm7.4 2.6l-17.8 51 16.1 6.7 17.9-51.9zm-202.5-289.9l-.4 11.2s1.3-3.2 4.1-4.5c1.6-.7 4.6.1 4.9.1l-7.4-7.3c-.4-.4-1.1-.1-1.2.5zm-49.1 58.1c-6.1 1.4-12.2 7.1-15.2 10.2-3 3.1-2.9 3.8-2.8 5.5.1 1.7 3.6 4.8 5.2 6 1.6 1.3 7.5 1.3 10.7-2.5 2.2-2.3 6.3-6.2 8.8-11.4l-4.9 1.6 4.8-5c.2-2.8-1.2-5.6-6.6-4.4zm85.6-.3c2.1-.4 7.7-1.2 12.2-5.3-1-1.1-3.5-2.6-4.9-3.6-4.3 1.2-7.4 3.7-8.9 6.8-.8 1.7-.4 2.4 1.6 2.1zm47.4 37c-3.7-.7-7.8-1.6-10.7-4.2-.2.9-.1 1.8.3 2.6.4.9 1 1.8 1.8 2.3 1 .7 2.4.9 3.5 1.1 1.3.3 2.5.4 3.8.6 4.5.6 9 .7 13.5-.1 1.2-.2 2.4-.5 3.6-.9.4-.1.9-.4 1.2-.4-1.7.1-3.4.1-5.1 0-3.9 0-8-.3-11.9-1zm26.7 25.6c-.9-2.8-1-19.5-1-19.5s-.6-5.8-4.2-4.3-9 2.4-10.9 2.7c-2 .4-14.5 1.1-19.6-1.8.9 13 16.7 13.8 18.9 13.9h.3c.4 0 2.2.2 7.4-.9-3.1 2-10.2 2.1-10.8 2.2-.1.2-.1.3-.1.5 0 .4 0 .8.2 1.2 0 .2.1.3.2.4l.2.1c.7.4 1.5.7 2.3 1 1.9.6 3.9 1 5.9 1.1l-.8.3-.7.1c-.5 0-1 .1-1.4.1-1 0-2 .1-3 0-.7-.1-1.5-.1-2.2-.1l-2.2-.2-.5.1-15.8 5c-1.7.5-3.4 1.1-5 1.6-.3.1-1.5-.9-1.7-1.1-1.3-1-2.4-2.2-3.4-3.6-2.1-3-2.4-7.1-1-10.5 2.4-5.9 5.6-11.2 9.2-16.5l.5-.7c2.8-3.3 6.6-8 13.7-8.8 3.2-.6 6.2-2 5.2-6.4-.6-3-1.2-6.6-1.7-9.5-.5-2.6-3-2-4.7-3.2-1.8-1.2-7.8-7.3-6.5-17.4.4-3.1 1.3-4.7-1.2-6.5-1.5-1.3-4-3.6-5.5-7.1-1.5-3.5-5.3-4.1-7-.6-6.2 9.1-12 10.4-12 10.4s-2.8-.7-3.6.3c-.8 1 .3 2.7.3 2.7s-2.7-.9-3.4.4c-.7 1.3 1 2.6 1 2.6l4.7 3c.7.4.7 1.4.1 1.8-1.5 1.1-4 2.8-6.7 3.8 2.5 2.4 5.7 4.1 9.2 3.4 1.2-.2 2.3-.7 3.4-1.4 1.2-.8 2.1-1.8 3.1-2.7.6-.5 1.3-.9 2-1.3l1-.5c.3-.1.8-.1 1-.2-1.7 1.1-3 3.1-4.1 4.8-.4.6-.8 1.2-1.1 1.8-.7 1.6-.7 3.6-.6 5.3.1 3.7.4 7.7 4.6 9.2 3 1.1 7.7 2 10.9.7-3.7 3.5-9.7 1.4-14.1 1.5-3.4.1-4.8 2.5-5.2 5.5-.3 2.5-.2 5-1.8 9.6s-7 12.1-9.7 13.8c-2.8 1.6-7.2 3.1-12-1.2-6-5.4-4.8-11-4.1-14 .7-3 2.6-10.4 8.7-17.2 3.4-3.4 2.4-7.2 0-10.7-2.8-4.2-4.4-9.4-5.2-14.3-.9-5.3-.4-9.9 1.2-15 .8-3.9 1.8-7-7.7-9.8-4.9-1.7-10.3-12.8-13.1-14.5-2.8-1.7-7-3.3-9.7 3.5-2.2 5.7-1.5 13.7 1.7 19 2.7 4.5 7 6.6 12.1 6.9-1.9 1.1-7 .8-7 .8.1 2.4-.9 4.8-.9 4.8l3.1-.4c1.1-.1 2.1.7 2.3 1.8.3 2.5-1 4.8-3.3 5.9-1.2.5-2.2 1.1-2.4 1.5-.2.4-.1.9-.1 1.3 0 .7.2 1.4.3 2.1.3 1.6.7 3.2 1.1 4.8.1.4.3.9.4 1.4.1.4.7.6 1 .9.5.3 1 .6 1.6.9 1.5.7 3.1 1.3 4.8 1.6 1.5.2 2.9.2 4.4-.1-3.3 3-11.3 1.3-11.3 1.3-1.8 2-1.8 4.6 0 7.4-.2 1.8-1.9 15.8-4 19.9-2.2 4.1-17 7.1-17 7.1.1 0 .7-2.9.8-3.2.5-1.5 1.7-2.7 2.1-4.2.4-1.5 0-3.1-.7-4.4-1-1.8-2.6-3-4-4.4-2.7-2.7-2.1-14.1-2.1-14.1-3.5-6.1-4.6-13.5-2.7-20.3.2-.9.6-1.8 1.2-2.6 1.6-1.9 6.1-2 8.4-2.4 1-.2 2.4-.2 3.3-.9 1.2-1 1.7-3.3.9-4.7-.9-1.5-2.8-2-4.4-2-2.5.1-5.1.2-7.6.7 4.6-3 7.5-2.5 7.6-2.5-.7-1.4-1.4-3.4-.9-7.2.2-2.1-.8-4.3-5.2-3.8-4.4.6-9.7 1.9-14.6 3.5-4.8 1.6-4.4 4.5-3.8 7.2.6 2.7 1.4 6.6 1.3 9.9-.1 3.3-3 8.9-3.3 13-.2 4.1 4.5 10.3 4.5 13.5 0 3.2-3.5 7.6-4.2 11.4-.7 3.8 2.1 8 1.4 12.7-.5 3.6-3.2 6-6.3 7.6-6 3.2-12.4 4.3-19.1 4.2-3.1 0-6.2-.2-9.3-.3l-4.5-.3c-1-.1-2.9-.6-3.8-.3 27.6-8.3 26.3-27.8 26.3-27.8s-1 .6-1.1.7c-.8.5-1.7 1-2.6 1.2-2 .7-4.6.9-6.6.5-3-.6-4.9-2.9-6.5-5.5-1.7-.9-3.9-.2-5.1.8-1.2 1-1.8 3.9-1.8 3.9l-.9 10.7s-1.1-10-1.2-10.9c-.7 0-1.6.2-2.2.7-1.8 1.2-1.5 4.3-1.9 6.1 0 .8.5 8.3.5 8.3l-2.2-5.5c-1.1 1.2-2.5 2.4-3.6 3.3-2.4 2-4.8 3.8-7.5 5.3-1.5.8-2.7 2.3-2.7 4.1 0 1.8 1.7 3.5 2.6 5.1 2.1 3.7 3.8 7.7 4.9 11.8 1.2 2.8 3.1 2.2 4.6 2 1.3-.2 3.5-.5 3.7-.5 0 0 3.5-.6 7.4-2.8-1.6 3.3-5.1 5.4-5.5 5.5 1.4 2.1 3 4.5 3.7 5.6 1.1 1.7 1.4 3.1 7.8 2.5 2.1-.5 4-.8 5.9 2.6.5 1 1.2 2 1.9 2.9.7.9 1.7 1.7 2.8 1.8 1.1.1 2.2-.3 3.3-.8 2.5-1.1 5.1-2.1 7.5-3.4-1.7 3.5-7.8 8-7.8 8 1.8 3.3 4.6 8.9 6 16.4 1.4 7.8-1.4 15.2-1.9 20.1-.9 7.3 5.2 5.9 6.6 12 .3 1.5 1.9 2.1 3.2 2.1 2.9 0 5.4-1.4 8.2-.4 3.1 1 5.9 4.5 9.4 3.4 1.3-.4 2.4-1.2 3.5-2 4.8-3.5 9.3-7.4 13.8-11.2-2.3 2.5-4.2 5.5-6.6 7.9-2.2 2.2-4.3 4.4-6.9 6.1-1.5 1-3.8 2-5.7 1.8-2.1-.2-4-1.3-5.8-2.3-.9-.5-1.9-.8-2.9-.8.2 0 .1 1.7.1 1.9-.1.8-.2 1.6-.5 2.3-.9 2.5-2.9 4.7-4.7 6.4-.8.8-1.7 1.4-2.7 2.1l-.1.1 8.7 3.5s-3.4 2-5.9 2.9c1.6 1.8 5.3 1.6 5.3 1.6l.5 13.5 6.3-7.4 37.3 43.4-1.6-53 10.1 6.4.7 61 .1 10.5 16.5-8.4 5.5-49.1v-.3c0-2.3.1-10.2 2.8-16.5-1.4.3-3 .4-3 .4-3.2.4-6.1-1.9-6.5-5.1l-.2-1.8c-.1-.6.4-1.2 1-1.3l10.5-1.4c-5.5-2.3-7.9-8.5-8.3-11.3 8.4-3.5 8.8-3.8 9.1-10 .2-6.2 1-11.4 4.5-17.2 3.5-5.9 7.7-7.6 12.3-9.1 3.2-1.1 3.5-.4 4.7-4.7 1.2-4.3 3.6-7.4 5.2-10.7 1.6-3.3 1.9-4.1 7.2-7.4 5.2-3.2 11.2-6.5 26.7-9.7 3.4-.6 4.3-2.3 1.8-8.8zm-33.3-43.8c.8 3.9-8.1 8.1-13.1 4.2 5.1.2 9.1-.8 13.1-4.2zm-93.1-46.1c-5.1-.2-9.1.8-13.1 4.2 1.3-5.8 9.2-7.3 13.1-4.2zm-11.5 8.1c.5-5 8.8-7.7 13.1-4.2-5.1-.3-9.1.7-13.1 4.2zm38.3 32.8c6.4.7 12-2.5 13.1-4.2-.6 5-8.9 7.7-13.1 4.2zm-5 208.4l-17.3 9.5 19 9.8 4.6-2.3-.3-9.5z"/></svg>