<svg xmlns="http://www.w3.org/2000/svg" width="900" height="600" viewBox="0 0 900 600"><style type="text/css">.st0{fill:#FFFFFF;} .st1{fill:none;}</style><path d="M0 0h901.1v600h-901.1z"/><path class="st0" d="M205 496.7l-22.5 1 42.8-65c-9.9.5-19.8.5-29.7.5-9.7 0-19.5 0-29-.5-.2 8.4-.3 13.6-1.2 19h3c3.1-11 7.9-13.1 16.2-13.3l17.9-.4-43.2 65.9c10.7-.5 21.4-.5 32.2-.5 10.5 0 21.1 0 31.4.5.2-7.1.4-14.2 1-21.1h-2.8c-1.7 7.5-5.1 13.4-16.1 13.9zm49.4-41.5c-14.2 0-24.7 11.4-24.7 25.1 0 14.8 8.3 24.8 23.4 24.8 14.7 0 24.7-10 24.7-25-.1-14.8-8.4-24.9-23.4-24.9zm1.5 42c-9.3 0-13.6-13.5-13.6-22 0-6.1 2.4-15 10.3-15 9.3 0 12.4 15.2 12.4 22 0 6.5-1 15-9.1 15zm100.1-.8v-25.4c0-9.3-3.3-15.7-12.5-15.7-6.1 0-11.4 4.5-16 8.9-1.2-4.8-5-8.9-11.9-8.9-5.8 0-11.1 4.5-15.7 8.9v-8.9h-2.8c-4.4 2.2-9.3 4.2-15.1 5v3c5.2 0 5.5.8 5.5 6.1v27.1c0 4.5-2.7 4.5-5.2 4.6v3c3.6-.5 7.6-.5 11.5-.5s7.9 0 12.1.5v-3c-2.5-.1-5.1-.1-5.1-4.6v-30.2c2.7-2 5-3.1 6.8-3.1 2.6 0 7.5.6 7.5 8.2v25c0 4.5-2.7 4.5-5.1 4.6v3c3.6-.5 7.6-.5 11.5-.5s7.9 0 12.1.5v-3c-2.5-.1-5.2-.1-5.2-4.6v-29.7c2.3-1.9 5-3.6 7.9-3.6 5.5 0 6.4 5 6.4 8.2v25c0 4.5-2.7 4.5-5.1 4.6v3c3.6-.5 7.6-.5 11.5-.5s7.9 0 12.1.5v-3c-2.5-.1-5.2-.1-5.2-4.5zm41.6-41.2c-6.2 0-10.7 3.3-15 8.4h-.2v-25c0-3.3.2-6.6.4-9.9h-2.9c-3.9 2.5-10.4 4.8-16.3 5.5v3c5.2 0 5.5.8 5.5 6.1v61.8h1.9c3.4-2.1 5.6-3.4 9.2-4.9 3.9 4 6.8 4.9 12 4.9 15.5 0 22-13.6 22-27.3-.1-10.1-4.6-22.6-16.6-22.6zm-8 44.3c-2.7 0-5-1.8-7.2-4v-28.9c2.1-1.3 4.5-2.6 7.1-2.6 8.7 0 10.8 9.8 10.8 18.2 0 7-2 17.3-10.7 17.3zm49.8-3.1v-31.3c0-3.3.2-6.6.4-9.9h-2.9c-3.9 1.9-10.4 4.2-16.3 5v3c5.2 0 5.5.8 5.5 6.1v27.1c0 4.5-2.7 4.5-5.1 4.6v3c3.6-.5 7.6-.5 11.5-.5s7.9 0 12.1.5v-3c-2.5-.2-5.2-.2-5.2-4.6zm-6.6-65c-4.9 0-7.7 3.4-7.7 8.2 0 4.1 2.9 7.4 7.3 7.4 5 0 7.7-3.4 7.7-8.2 0-4-2.9-7.4-7.3-7.4zm56.6 55.1c-3.5 4.7-7.9 7.1-13.4 7.1-9.4 0-14.5-9.5-15-18.1h29c0-11.8-6.6-20.3-18.4-20.3-14.8 0-21.4 12.3-21.4 25.5 0 12.5 6.4 24.4 20.2 24.4 12 0 18.3-7.8 21.5-17.8l-2.5-.8zm-20.2-27.1c6.6 0 7.2 6.5 7.5 12h-15.6c0-5 1.6-12 8.1-12zm57.2 14.8c14.8 0 27.8-5.6 27.8-22.5 0-13.6-9.3-19.1-21.5-19.1-6.1 0-12.3.5-19.4.5-5.2 0-9.6 0-15.5-.5v3c6.9.5 6.9 2.1 6.9 7.7v49.9c0 5.6 0 7.2-6.9 7.7v3c5.1-.5 10.2-.5 15.2-.5 5.2 0 10.5 0 15.5.5v-3c-6.9-.5-6.9-2.1-6.9-7.7v-19h4.8zm-4.7-34.7c0-1.7 1.6-1.9 3.1-1.9 9.7 0 11.9 8.7 11.9 17 0 11.3-2.8 15.4-15 15.4v-30.5zm68 15.7c-5.4 0-8.8 6-12.2 11.6h-.2v-11.6h-2.3c-4.4 2.2-9.3 4.2-14.5 5v3c4.7 0 5 .8 5 6.1v27.1c0 4.5-2.7 4.5-5.2 4.6v3c3.6-.5 7.6-.5 11.5-.5 3.9 0 7.9 0 14 .5v-3c-4.3-.1-7-.1-7-4.6v-26.4c1-1.4 2.8-4 4-4 .7 0 1.5.3 1.5 2.1 0 3.8 1.7 4.6 5.5 4.6 6.2 0 6.5-2.8 6.5-8.1-.1-4.9-.7-9.4-6.6-9.4zm35 0c-14.2 0-24.7 11.4-24.7 25.1 0 14.8 8.3 24.8 23.4 24.8 14.6 0 24.6-10 24.6-25 .1-14.8-8.2-24.9-23.3-24.9zm1.6 42c-9.3 0-13.6-13.5-13.6-22 0-6.1 2.4-15 10.3-15 9.3 0 12.4 15.2 12.4 22 0 6.5-1.1 15-9.1 15zm51.6-42c-14.2 0-24.6 11.4-24.6 25.1 0 14.8 8.3 24.8 23.4 24.8 14.7 0 24.7-10 24.7-25-.2-14.8-8.5-24.9-23.5-24.9zm1.6 42c-9.3 0-13.6-13.5-13.6-22 0-6.1 2.4-15 10.3-15 9.3 0 12.4 15.2 12.4 22 0 6.5-1.1 15-9.1 15zm52.6-68.5c-14.3 0-19.8 8.3-20.1 28.8h-5.1v4.2h5.1v34.7c0 4.5-2.7 4.5-5.1 4.6v3c3.6-.5 7.6-.5 11.5-.5 3.9 0 7.9 0 13.1.5v-3c-3.5-.1-6.1-.1-6.1-4.6v-34.7h8.2v-4.2h-8.2c0-5.5-.3-10.8-.3-16 0-4.7 0-8.6 3.7-8.6 2.8 0 2.8 2.1 2.8 3.7 0 3.1 0 5.9 4.4 5.9 3.4 0 5.1-1.7 5.1-5.4-.2-6.8-5.4-8.4-9-8.4zm-555.2 116.6c5.8-1.3 8.1-4.1 8.1-8.8 0-2.6-1.5-7.9-10.4-7.9h-13.3c-.8-.1-1.6-.2-2.2-.2v1.2h1.2c2.3 0 2.9.5 2.9 3.2v28.1c0 2.7-.6 3.2-2.9 3.2h-1.2v1.2c1.2-.2 3.1-.3 5-.3h10.3c3.2 0 12.9-1.3 12.9-10.2 0-6.4-4.8-9.2-10.4-9.5zm-8.5-14.2c0-1 .7-1 2.7-1 5.6 0 8.2 2.2 8.2 7.6 0 6.2-4.3 7.1-9.5 7.1-1.3 0-1.4 0-1.4-.9v-12.8zm4.1 32.3c-1.5 0-4 0-4-2.4v-14.2c0-.4.3-.5 1.5-.5 7.7 0 11.7 2.4 11.7 9.6 0 4.9-3.7 7.5-9.2 7.5zm33.7-22.8c-2.2 0-5.8 4.5-7 6.1h-.1v-1.6c0-1.8.1-3.4.2-5.1h-1.6c-2 1.2-4.5 2.1-7 2.5v1.2h1.1c2.6 0 3 .8 3 3.4v13.8c0 2.7-.7 3.2-2.4 3.2h-.9v1.2c1.5-.2 3.5-.3 5.5-.3 1.9 0 3.9.1 6.8.3v-1.3h-2.3c-1.7 0-2.4-.5-2.4-3.2v-11.7c.2-1.4 4.2-5.4 5-5.4.5 0 .6.8.6 1.1 0 1.3.6 1.8 2 1.8 1.8 0 2.3-.5 2.3-2.1 0-2.1-.5-3.9-2.8-3.9zm26.7 21.4c-.6.6-1.3 1-2 1s-.8-.8-.8-1.8v-13.3c0-6.1-2.7-8-8.8-8-4.3 0-8.4 1.9-8.4 6.5 0 1.4.2 2.1 2.2 2.1 2.1 0 2.1-.7 2.1-3.1 0-3.1 2.1-4 4.4-4 2.9 0 4.1 1.1 4.1 4.5v3.7c-10.2 1.8-14.4 4.5-14.4 10 0 3.5 2.5 6.1 5.8 6.1 3.4 0 6.2-2.2 8.6-4.7v1.1c0 1.3.4 3.5 2.5 3.5 2 0 3.9-1.7 5.1-3l-.4-.6zm-7.1-2c-1.7 1.2-3.7 2.4-6 2.4s-3.8-1.8-3.8-4.1c0-4.5 6.5-6.6 9.8-7.5v9.2zm22.6 3l-6.6.2 15.4-22.6c-3.4.2-6.7.2-10 .2-3.4 0-6.7-.1-10.1-.2 0 2.3-.1 4.6-.2 6.9h1.2c.4-4.2 3.7-4.8 7.2-4.8h5.3l-15.4 22.5c3.5-.2 7-.3 10.6-.3 3.5 0 7 .1 10.5.3 0-2.4.3-4.7.5-7.1h-1.1c-1.2 4.3-3.7 4.8-7.3 4.9zm21.5 1c-1.7 0-2.4-.5-2.4-3.2v-15.8c0-1.8.1-3.4.2-5.1h-1.6c-2.1 1.2-4.5 2.1-7 2.5v1.2h1.1c2.6 0 3 .8 3 3.4v13.8c0 2.7-.7 3.2-2.4 3.2h-.9v1.2c1.5-.2 3.5-.3 5.5-.3 1.9 0 4 .1 5.5.3v-1.2h-1zm-4.6-36.3c-1.8 0-3.1 1.5-3.1 3.3 0 1.8 1.1 3.3 2.9 3.3 1.8 0 3.1-1.5 3.1-3.3-.1-1.9-1.1-3.3-2.9-3.3zm18.9 36.3c-1.7 0-2.4-.5-2.4-3.2v-30.4c0-1.2 0-2.8.2-4.2h-1.2c-1.8 1-4.8 2-6.8 2.3v.9h.6c2.1 0 2.9.5 2.9 3.3v28c0 2.7-.7 3.2-2.4 3.2h-.9v1.2c1.5-.2 3.5-.3 5.5-.3s4 .1 5.5.3v-1.1h-1zm14.3 0c-1.7 0-2.4-.5-2.4-3.2v-15.8c0-1.8.1-3.4.2-5.1h-1.6c-2 1.2-4.5 2.1-7 2.5v1.2h1.1c2.6 0 3 .8 3 3.4v13.8c0 2.7-.7 3.2-2.4 3.2h-.9v1.2c1.5-.2 3.5-.3 5.5-.3s4 .1 5.5.3v-1.2h-1zm-4.7-36.3c-1.8 0-3.1 1.5-3.1 3.3 0 1.8 1.1 3.3 2.9 3.3s3.1-1.5 3.1-3.3c0-1.9-1.1-3.3-2.9-3.3zm30.3 34.3c-.6.6-1.3 1-2 1s-.8-.8-.8-1.8v-13.3c0-6.1-2.7-8-8.8-8-4.3 0-8.4 1.9-8.4 6.5 0 1.4.2 2.1 2.2 2.1 2.1 0 2.1-.7 2.1-3.1 0-3.1 2-4 4.4-4 2.9 0 4.2 1.1 4.2 4.5v3.7c-10.2 1.8-14.4 4.5-14.4 10 0 3.5 2.5 6.1 5.9 6.1 3.4 0 6.2-2.2 8.6-4.7v1.1c0 1.3.4 3.5 2.5 3.5 1.9 0 3.9-1.7 5.1-3l-.6-.6zm-7.1-2c-1.7 1.2-3.7 2.4-6 2.4s-3.8-1.8-3.8-4.1c0-4.5 6.5-6.6 9.8-7.5v9.2zm35.3 4c-1.8 0-2.4-.5-2.4-3.2v-11.9c0-6.2-2.7-8.9-7.1-8.9-3.5 0-7.2 3.4-8.5 4.9h-.1v-4.9h-1.2c-2.1 1.2-4.5 2.1-7 2.5v1.2h1.1c2.6 0 3 .8 3 3.4v13.8c0 2.7-.7 3.2-2.4 3.2h-.9v1.2c1.5-.2 3.5-.3 5.5-.3s4 .1 5.5.3v-1.3h-.9c-1.7 0-2.4-.5-2.4-3.2v-14.8c1.9-1.3 4.2-2.6 6.6-2.6 3.3 0 4.7 2.2 4.7 5.3v12.1c0 2.7-.7 3.2-2.4 3.2h-.9v1.2c1.5-.2 3.5-.3 5.5-.3s4 .1 5.5.3v-1.2h-1.2zm25.3-35.5c-2.2 0-4.6-.1-6.9-.3v1.2h1.2c2.3 0 2.9.5 2.9 3.2v32.1c0 2.2-.2 6.9-5.2 8.7l.8.9c9.6-4.7 9.6-9.5 9.6-22.5v-19.2c0-2.7.6-3.2 2.9-3.2h1.2v-1.2c-2.3.2-4.7.3-6.5.3zm18.7 35.5c-1.7 0-2.4-.5-2.4-3.2v-15.8c0-1.8.1-3.4.2-5.1h-1.6c-2.1 1.2-4.5 2.1-7 2.5v1.2h1.1c2.6 0 3 .8 3 3.4v13.8c0 2.7-.7 3.2-2.4 3.2h-.9v1.2c1.5-.2 3.5-.3 5.5-.3s4 .1 5.5.3v-1.2h-1zm-4.6-36.3c-1.9 0-3.1 1.5-3.1 3.3 0 1.8 1.1 3.3 2.9 3.3 1.8 0 3.1-1.5 3.1-3.3-.1-1.9-1.1-3.3-2.9-3.3zm32.9 34.5c-1.6 0-2-.6-2-4.2v-12.9c0-1.8.1-3.4.2-5.1h-1.6c-2.2 1.2-4.5 2.1-6.3 2.5v1.2h1c1.9 0 2.3.8 2.3 3.4v12.9c-1 1.1-3.1 2.5-5.8 2.5-3.5 0-5.3-2.7-5.3-6.2v-11.2c0-1.8.1-3.4.2-5.1h-1.6c-2.2 1.2-4.5 2.1-6.2 2.5v1.2h1c2 0 2.3.8 2.3 3.4v9.2c0 4.5 1.3 9.6 7.4 9.6 2.5 0 5.1-1 8.2-4v3.4h1.4c1.8-.9 3.9-1.5 5.9-1.7v-1.2h-1.1zm5.1-11v3.7h11.4v-3.7h-11.4zm23-22.7c-2.2 0-4.6-.1-6.9-.3v1.2h1.2c2.3 0 2.9.5 2.9 3.2v32.1c0 2.2-.2 6.9-5.2 8.7l.8.9c9.6-4.7 9.6-9.5 9.6-22.5v-19.2c0-2.7.6-3.2 2.9-3.2h1.2v-1.2c-2.3.2-4.7.3-6.5.3zm18.7 35.5c-1.7 0-2.4-.5-2.4-3.2v-15.8c0-1.8.1-3.4.2-5.1h-1.6c-2 1.2-4.5 2.1-7 2.5v1.2h1.1c2.6 0 3 .8 3 3.4v13.8c0 2.7-.7 3.2-2.4 3.2h-.9v1.2c1.5-.2 3.5-.3 5.5-.3s4 .1 5.5.3v-1.2h-1zm-4.6-36.3c-1.8 0-3.1 1.5-3.1 3.3 0 1.8 1.1 3.3 2.9 3.3 1.8 0 3.1-1.5 3.1-3.3-.1-1.9-1.1-3.3-2.9-3.3zm22.3 33.6c-.9.8-2.1 1.5-3.4 1.5-2.2 0-2.5-2.3-2.5-5v-13.9h5.9v-1.5h-5.9v-8.9h-1.1c-.5 3.5-2.8 7.3-6.5 9.2v1.2h3.3v15.9c0 3 .8 6.1 4.5 6.1 2.6 0 4.6-1.8 6.2-3.6l-.5-1zm13.7-11.2c-5.3-2.5-6-3-6-5.2 0-2.3 2-3.4 4.2-3.4 3.2 0 5.8 2.3 6.1 5.6h1.2c0-2.2-.2-4.4-.3-6.8-.4.2-.9.2-1.4.2-1 0-1.9-.2-2.9-.3-.9-.2-1.9-.3-2.9-.3-3.8 0-7.1 2.6-7.1 6.7 0 4 2.6 5.5 6.6 7.3 3.3 1.5 6.5 2.8 6.5 5.9 0 2.4-2.6 4.4-5 4.4-3.9 0-6.7-3.7-6.9-8.3h-1.2c.2 2.9 0 5.5-.1 8.4h.8c1.5 0 4.4 1.4 6.8 1.4 4.6 0 8.1-2.9 8.1-7.8-.1-4.3-2.9-6.1-6.5-7.8zm34.9 12.1c-1.6 0-2-.6-2-4.2v-12.9c0-1.8.1-3.4.2-5.1h-1.6c-2.2 1.2-4.5 2.1-6.3 2.5v1.2h1c2 0 2.3.8 2.3 3.4v12.9c-1 1.1-3.1 2.5-5.7 2.5-3.5 0-5.3-2.7-5.3-6.2v-11.2c0-1.8.1-3.4.2-5.1h-1.6c-2.2 1.2-4.5 2.1-6.3 2.5v1.2h1c1.9 0 2.3.8 2.3 3.4v9.2c0 4.5 1.3 9.6 7.4 9.6 2.5 0 5.1-1 8.2-4v3.4h1.4c1.8-.9 3.9-1.5 5.9-1.7v-1.2h-1.1zm56.7-.5c-1.3.9-3.1 1.3-4.7 1.3-4 0-6.8-2.4-9.2-5.2 2.9-3.6 6.1-7.5 7.7-9.8 1.4-2 2.5-2.8 5.1-2.8v-1.2c-2 .2-3.9.4-5.9.4-1.7 0-3.5-.2-5.2-.4v1.2c1 0 2.6.3 2.6 1.5 0 2.6-3.2 7.4-5.3 9.9-2.9-3.9-5.3-8.2-7.7-12.5 4-2 9.4-4.8 9.4-9.3 0-4.4-3.4-6.6-7.3-6.6-5.4 0-8.6 3.7-8.6 8.9 0 3.2.4 4.7 1.6 7.7-4.8 2.5-10.8 6-10.8 12.1 0 5 3.5 8.8 8.7 8.8 5.5 0 8.2-1.6 12.6-4.9 3.5 3.1 5.3 4.9 9.9 4.9 2.6 0 5.4-1.7 7.8-3.2l-.7-.8zm-20.7-31.9c2.7 0 4.2 2.1 4.2 4.5 0 4.3-3.3 6.6-6.6 8.6-1.2-2-2.2-5.6-2.2-7.5-.1-3 1.1-5.6 4.6-5.6zm-5.3 33c-4.5 0-7.1-3.4-7.1-7.4 0-4.7 2.6-6.8 6.3-9.1 2.4 4.8 5.3 9.1 8.7 13.2-2.1 1.8-4.6 3.3-7.9 3.3zm83.4-1.6l-.4-23.6-.1-3.9c0-3.9.5-4.2 4.2-4.2v-1.2c-1.6.2-3.2.3-4.8.3-1.6 0-3.2-.1-4.8-.3-3.8 9.5-7.9 18.6-11.4 28.6h-.1c-3.5-9.9-7.6-19-11.8-28.6-1.5.2-3.1.3-4.8.3-1.7 0-3.3-.1-5-.3v1.2c4.1 0 4.2 1 4.2 3.8l-.7 28.3c-.1 1.7-.7 2.4-2.9 2.4h-1.4v1.2c1.7-.2 3.5-.3 5.2-.3 1.9 0 3.9.1 5.9.3v-1.2c-2 0-4.3 0-4.3-1.6l.2-29.8h.1l12.2 29.3c.8 2 1.3 3.3 1.6 3.3.2 0 .6-.8.9-1.7l12.5-30.9h.1l.1 28.2c0 2.5-.4 3.2-4.1 3.2v1.2c2.9-.2 4-.3 6.8-.3 2.3 0 4.6.1 6.9.3v-1.2c-2.4 0-4.2-.1-4.3-2.8zm46.6 0l-.4-23.6-.1-3.9c0-3.9.5-4.2 4.2-4.2v-1.2c-1.6.2-3.2.3-4.8.3-1.6 0-3.2-.1-4.8-.3-3.8 9.5-7.9 18.6-11.4 28.6h-.1c-3.5-9.9-7.6-19-11.8-28.6-1.5.2-3.1.3-4.8.3-1.7 0-3.3-.1-5-.3v1.2c4.1 0 4.2 1 4.2 3.8l-.7 28.3c-.1 1.7-.7 2.4-2.9 2.4h-1.4v1.2c1.7-.2 3.5-.3 5.2-.3 2 0 3.9.1 5.9.3v-1.2c-2 0-4.3 0-4.3-1.6l.2-29.8h.1l12.2 29.3c.8 2 1.3 3.3 1.6 3.3.2 0 .6-.8.9-1.7l12.5-30.9h.1l.2 28.2c0 2.5-.4 3.2-4.2 3.2v1.2c2.9-.2 4.1-.3 6.8-.3 2.3 0 4.6.1 6.9.3v-1.2c-2.4 0-4.3-.1-4.3-2.8zm37.7-1.6l-12.9-32.1c-.2-.4-.3-.6-.5-.6-.3 0-.4.3-.5.6l-12.9 31c-1.6 3.8-2.3 5.4-4.8 5.4v1.2c1.4-.2 2.8-.3 4.3-.3 1.7 0 3.4.1 5.1.3v-1.1c-1.4 0-3.2-.1-3.2-1.8 0-.5.2-1.2.6-2.1l2.9-7.2h13.5l2.7 7c.3.9.8 2.1.8 2.8 0 1.3-1.9 1.3-2.9 1.3v1.2c2-.2 4-.3 6-.3 2.1 0 4.2.1 6.2.3v-1.2c-2.1 0-3-1-4.4-4.4zm-21.2-8.6l6.2-15.2 5.9 15.2h-12.1z"/><path class="st1" d="M439.3 153.1c4.3 3.5 12.5.8 13.1-4.2-1.1.9-2.1 1.7-3.2 2.3-1 .6-2.1 1-3.3 1.3-2.1.5-4.2.7-6.6.6zm66.3 5.1c-1 3.9-8.8 6.7-13.1 4.2 5 4 13.8-.2 13.1-4.2zm-93.1-46c-4-3.1-11.9-1.7-13.1 4.2 4.1-3.4 8-4.3 13.1-4.2zm1.6 3.8c-4.3-3.5-12.5-.8-13.1 4.2 4-3.4 8-4.4 13.1-4.2z"/><path class="st0" d="M418 130.6c-3.7.9-6.7 1.8-6.6 7.7.1 5.9.7 9.4 1.6 12.1 1 3 3.2 3.8 5.4 3.9.1-.4 2.7-7.1 2.7-7.1l.7 6.8.9 5.1c.1.6.8.9 1.4.6 1.9-1.2 5.8-4.5 7.1-11.6 1.7-9.6-1.6-15.6-3.4-16.9-1.9-1.2-4.8-1.7-9.8-.6zm-137.7 287l-12.4 4.7-17.9-48.9 11.8-4.5zm343.1-48.6l-18.2 50.4-135.1-55.9 7.3-48.6c51.7-15.4 90-61.7 91.9-117.7 2.4-70.4-53.9-129.4-125.7-131.8-71.8-2.4-131.9 52.7-134.3 123.1-1.9 57 34.6 106.5 86.7 124.6l29.1 36.7 5.9 7.4-19.8 10.8-123.2 46.7-19-48.5 79.6-30.1c-47.6-31.3-78.2-85.9-76.1-147 3.1-93.4 81.3-166.5 174.7-163.4s166.5 81.3 163.4 174.7c-1.9 57.6-32.4 107.5-77.4 136.5l90.2 32.1zm23.6 8.4l-17.9 51.9-16.1-6.7 17.8-51zm-218.7-295.7l-.4 11.2s1.3-3.2 4.1-4.5c1.6-.7 4.6.1 4.9.1l-7.4-7.3c-.4-.4-1.1-.2-1.2.5zm-49.1 58.1c-6.1 1.4-12.2 7.1-15.2 10.2-3 3.1-2.9 3.8-2.8 5.5.1 1.7 3.6 4.8 5.2 6 1.6 1.3 7.5 1.3 10.7-2.5 2.2-2.3 6.3-6.2 8.8-11.4l-4.9 1.6 4.8-5c.3-2.8-1.2-5.6-6.6-4.4zm85.6-.4c2.1-.4 7.7-1.2 12.2-5.3-1-1.1-3.5-2.6-4.9-3.6-4.3 1.2-7.4 3.7-8.9 6.8-.8 1.8-.4 2.5 1.6 2.1zm47.4 37.1c-3.7-.7-7.8-1.6-10.7-4.2-.2.9-.1 1.8.3 2.6.4.9 1 1.8 1.8 2.3 1 .7 2.4.9 3.5 1.1 1.3.3 2.5.4 3.8.6 4.5.6 9 .7 13.5-.1 1.2-.2 2.4-.5 3.6-.9.4-.1.9-.4 1.2-.4-1.7.1-3.4.1-5.1 0-3.9 0-7.9-.3-11.9-1zm-77.8 185l-17.4 9.5 19 9.8 4.6-2.4-.3-9.4zm104.6-159.4c-.9-2.8-1-19.5-1-19.5s-.6-5.8-4.2-4.3-9 2.4-10.9 2.7c-2 .4-14.5 1.1-19.6-1.8.9 13 16.7 13.8 18.9 13.9h.3c.4 0 2.2.2 7.4-.9-3.1 2-10.2 2.1-10.8 2.2-.1.2-.1.3-.1.5 0 .4 0 .8.2 1.2 0 .2.1.3.2.4l.2.1c.7.4 1.5.7 2.3 1 1.9.6 3.9 1 5.9 1.1l-.8.3-.7.1c-.5 0-1 .1-1.4.1-1 0-2 .1-3 0-.7-.1-1.5-.1-2.2-.1l-2.2-.2-.5.1-15.8 5c-1.7.5-3.4 1.1-5 1.6-.3.1-1.5-.9-1.7-1.1-1.3-1-2.4-2.2-3.4-3.6-2.1-3-2.4-7.1-1-10.5 2.4-5.9 5.6-11.2 9.2-16.5l.5-.7c2.8-3.3 6.6-8 13.7-8.8 3.2-.6 6.2-2 5.2-6.4-.6-3-1.2-6.6-1.7-9.5-.5-2.6-3-2-4.7-3.2-1.8-1.2-7.8-7.3-6.5-17.4.4-3.1 1.3-4.7-1.2-6.5-1.5-1.3-4-3.6-5.5-7.1-1.5-3.5-5.3-4.1-7-.6-6.2 9.1-12 10.4-12 10.4s-2.8-.7-3.6.3c-.8 1 .3 2.7.3 2.7s-2.7-.9-3.4.4c-.7 1.3 1 2.6 1 2.6l4.7 3c.7.4.7 1.4.1 1.8-1.5 1.1-4 2.8-6.7 3.8 2.5 2.4 5.7 4.1 9.2 3.4 1.2-.2 2.3-.7 3.4-1.4 1.2-.8 2.1-1.8 3.1-2.7.6-.5 1.3-.9 2-1.3l1-.5c.3-.1.8-.1 1-.2-1.7 1.1-3 3.1-4.1 4.8-.4.6-.8 1.2-1.1 1.8-.7 1.6-.7 3.6-.6 5.3.1 3.7.4 7.7 4.6 9.2 3 1.1 7.7 2 10.9.7-3.7 3.5-9.7 1.4-14.1 1.5-3.4.1-4.8 2.5-5.2 5.5-.3 2.5-.2 5-1.8 9.6s-7 12.1-9.7 13.8c-2.8 1.6-7.2 3.1-12-1.2-6-5.4-4.8-11-4.1-14 .7-3 2.6-10.4 8.7-17.2 3.4-3.4 2.4-7.2 0-10.7-2.8-4.2-4.4-9.4-5.2-14.3-.9-5.3-.4-9.9 1.2-15 .8-3.9 1.8-7-7.7-9.8-4.9-1.7-10.3-12.8-13.1-14.5-2.8-1.7-7-3.3-9.7 3.5-2.2 5.7-1.5 13.7 1.7 19 2.7 4.5 7 6.6 12.1 6.9-1.9 1.1-7 .8-7 .8.1 2.4-.9 4.8-.9 4.8l3.1-.4c1.1-.1 2.1.7 2.3 1.8.3 2.5-1 4.8-3.3 5.9-1.2.5-2.2 1.1-2.4 1.5-.2.4-.1.9-.1 1.3 0 .7.2 1.4.3 2.1.3 1.6.7 3.2 1.1 4.8.1.4.3.9.4 1.4.1.4.7.6 1 .9.5.3 1 .6 1.6.9 1.5.7 3.1 1.3 4.8 1.6 1.5.2 2.9.2 4.4-.1-3.3 3-11.3 1.3-11.3 1.3-1.8 2-1.8 4.6 0 7.4-.2 1.8-1.9 15.8-4 19.9-2.2 4.1-17 7.1-17 7.1.1 0 .7-2.9.8-3.2.5-1.5 1.7-2.7 2.1-4.2.4-1.5 0-3.1-.7-4.4-1-1.8-2.6-3-4-4.4-2.7-2.7-2.1-14.1-2.1-14.1-3.5-6.1-4.6-13.5-2.7-20.3.2-.9.6-1.8 1.2-2.6 1.6-1.9 6.1-2 8.4-2.4 1-.2 2.4-.2 3.3-.9 1.2-1 1.7-3.3.9-4.7-.9-1.5-2.8-2-4.4-2-2.5.1-5.1.2-7.6.7 4.6-3 7.5-2.5 7.6-2.5-.7-1.4-1.4-3.4-.9-7.2.2-2.1-.8-4.3-5.2-3.8-4.4.6-9.7 1.9-14.6 3.5-4.8 1.6-4.4 4.5-3.8 7.2.6 2.7 1.4 6.6 1.3 9.9-.1 3.3-3 8.9-3.3 13-.2 4.1 4.5 10.3 4.5 13.5 0 3.2-3.5 7.6-4.2 11.4-.7 3.8 2.1 8 1.4 12.7-.5 3.6-3.2 6-6.3 7.6-6 3.2-12.4 4.3-19.1 4.2-3.1 0-6.2-.2-9.3-.3l-4.5-.3c-1-.1-2.9-.6-3.8-.3 27.6-8.3 26.3-27.8 26.3-27.8s-1 .6-1.1.7c-.8.5-1.7 1-2.6 1.2-2 .7-4.6.9-6.6.5-3-.6-4.9-2.9-6.5-5.5-1.7-.9-3.9-.2-5.1.8-1.2 1-1.8 3.9-1.8 3.9l-.9 10.7s-1.1-10-1.2-10.9c-.7 0-1.6.2-2.2.7-1.8 1.2-1.5 4.3-1.9 6.1 0 .8.5 8.3.5 8.3l-2.2-5.5c-1.1 1.2-2.5 2.4-3.6 3.3-2.4 2-4.8 3.8-7.5 5.3-1.5.8-2.7 2.3-2.7 4.1 0 1.8 1.7 3.5 2.6 5.1 2.1 3.7 3.8 7.7 4.9 11.8 1.2 2.8 3.1 2.2 4.6 2 1.3-.2 3.5-.5 3.7-.5 0 0 3.5-.6 7.4-2.8-1.6 3.3-5.1 5.4-5.5 5.5 1.4 2.1 3 4.5 3.7 5.6 1.1 1.7 1.4 3.1 7.8 2.5 2.1-.5 4-.8 5.9 2.6.5 1 1.2 2 1.9 2.9.7.9 1.7 1.7 2.8 1.8 1.1.1 2.2-.3 3.3-.8 2.5-1.1 5.1-2.1 7.5-3.4-1.7 3.5-7.8 8-7.8 8 1.8 3.3 4.6 8.9 6 16.4 1.4 7.8-1.4 15.2-1.9 20.1-.9 7.3 5.2 5.9 6.6 12 .3 1.5 1.9 2.1 3.2 2.1 2.9 0 5.4-1.4 8.2-.4 3.1 1 5.9 4.5 9.4 3.4 1.3-.4 2.4-1.2 3.5-2 4.8-3.5 9.3-7.4 13.8-11.2-2.3 2.5-4.2 5.5-6.6 7.9-2.2 2.2-4.3 4.4-6.9 6.1-1.5 1-3.8 2-5.7 1.8-2.1-.2-4-1.3-5.8-2.3-.9-.5-1.9-.8-2.9-.8.2 0 .1 1.7.1 1.9-.1.8-.2 1.6-.5 2.3-.9 2.5-2.9 4.7-4.7 6.4-.8.8-1.7 1.4-2.7 2.1l-.1.1 8.7 3.5s-3.4 2-5.9 2.9c1.6 1.8 5.3 1.6 5.3 1.6l.5 13.5 6.3-7.4 37.3 43.4-1.6-53 10.1 6.4.8 71.5 16.5-8.4 5.5-49.1v-.3c0-2.3.1-10.2 2.8-16.5-1.4.3-3 .4-3 .4-3.2.4-6.1-1.9-6.5-5.1l-.2-1.8c-.1-.6.4-1.2 1-1.3l10.5-1.4c-5.5-2.3-7.9-8.5-8.3-11.3 8.4-3.5 8.8-3.8 9.1-10 .2-6.2 1-11.4 4.5-17.2 3.5-5.9 7.7-7.6 12.3-9.1 3.2-1.1 3.5-.4 4.7-4.7 1.2-4.3 3.6-7.4 5.2-10.7 1.6-3.3 1.9-4.1 7.2-7.4 5.2-3.2 11.2-6.5 26.7-9.7 3.3-.6 4.2-2.3 1.8-8.8zm-33.4-43.9c.8 3.9-8.1 8.1-13.1 4.2 5.1.3 9.1-.7 13.1-4.2zm-93.1-46c-5.1-.2-9.1.8-13.1 4.2 1.3-5.8 9.2-7.3 13.1-4.2zm-11.5 8.1c.5-5 8.8-7.7 13.1-4.2-5.1-.3-9.1.7-13.1 4.2zm38.3 32.8c1.2.1 2.5.1 3.8-.1 2.4-.4 4.8-1.2 6.5-2.1 1.3-.7 2.3-1.4 2.7-2-.5 5-8.8 7.7-13 4.2z"/></svg>