<svg xmlns="http://www.w3.org/2000/svg" viewBox="0 0 900 600" enable-background="new 0 0 900 600"><style type="text/css">.st0{fill:none;} .st1{fill:#006E2B;} .st2{fill:#FFFFFF;}</style><path class="st0" d="M526.2 207.7c-5.3 4.6-10.6 5.9-17.4 5.7 6.5 5.2 18.4-.5 17.4-5.7zm-124.2-61.4c-5.3-4.1-15.8-2.2-17.4 5.7 5.3-4.6 10.6-5.9 17.4-5.7zm2.1 5c-5.7-4.6-16.7-1.1-17.4 5.7 5.3-4.6 10.6-5.9 17.4-5.7zm33.5 49.6c5.7 4.7 16.7 1.1 17.4-5.7-1.2 1.1-2.5 2-3.7 2.7-.1.1-.3.2-.4.2 0 0-.1 0-.1.1-1.3.8-2.7 1.4-4.3 1.8-.3.1-.6.2-.8.2-2.5.6-5.1.8-8.1.7z"/><path class="st1" d="M409.3 170.9c-5 1.2-8.9 2.3-8.8 10.2.1 7.9 1 12.5 2.2 16.2 1.3 4 4.2 5.1 7.3 5.2.1-.5 3.6-9.5 3.6-9.5l.9 9.1 1.2 6.8c.2.8 1.1 1.2 1.8.8 2.6-1.6 7.8-6 9.5-15.5 2.2-12.8-2.1-20.9-4.6-22.5-2.6-1.7-6.5-2.4-13.1-.8zm-224.2 323.9l23.8 65.3 16.6-6.3-24.7-64.9zm377.9-48.7c60-38.8 100.7-105.4 103.3-182.2 4.2-124.6-93.5-229-218.1-233.2s-229 93.4-233.1 218.1c-2.7 81.5 38.1 154.4 101.6 196.2l-106.2 40.2 25.4 64.7 164.3-62.3 26.5-14.3-46.7-58.9c-69.5-24.1-118.3-90.2-115.7-166.3 3.1-93.9 83.4-167.5 179.2-164.3 95.8 3.2 170.9 82 167.8 175.9-2.5 74.6-53.6 136.4-122.6 157l-9.8 64.8 180.3 74.6 24.3-67.2-120.5-42.8zm130.2 46.4l-23.7 68 21.5 8.9 23.9-69.2zm-270.2-387l-.5 14.9s1.7-4.3 5.5-5.9c2.1-.9 6.2.1 6.5.2l-9.9-9.7c-.4-.7-1.5-.3-1.6.5zm-65.5 77.6c-8.1 1.9-16.3 9.5-20.2 13.6-4 4.1-3.9 5.1-3.7 7.4.2 2.2 4.8 6.4 7 8 2.2 1.7 10 1.7 14.2-3.3 3-3.1 8.4-8.2 11.7-15.2l-6.6 2.2 6.4-6.7c.3-3.9-1.6-7.7-8.8-6zm114.3-.5c2.7-.5 10.2-1.5 16.3-7-1.4-1.4-4.6-3.5-6.6-4.8-5.7 1.6-9.8 4.9-11.9 9.1-1 2.3-.5 3.2 2.2 2.7zm63.2 49.4c-4.9-.9-10.5-2.2-14.3-5.6-.2 1.2-.1 2.4.4 3.5.5 1.2 1.3 2.4 2.4 3.1 1.3.9 3.2 1.2 4.7 1.5 1.7.3 3.4.6 5.1.8 6 .9 12.1.9 18-.1 1.6-.3 3.2-.7 4.8-1.2.5-.1 1.2-.6 1.7-.6-2.3.1-4.5.1-6.8 0-5.4 0-10.7-.4-16-1.4z"/><path class="st2" d="M446.6 200c1.5-.4 3-1 4.3-1.8-1.4.7-2.9 1.3-4.3 1.8z"/><path class="st1" d="M438.2 462.6l-2.1-70.7 13.5 8.6 1.1 95.5 22.1-11.2 7.4-65.5v-.4c.1-3.1.1-13.6 3.7-22-1.8.5-4 .5-4 .5-4.3.5-8.2-2.5-8.7-6.8l-.3-2.4c-.1-.8.5-1.6 1.3-1.7l14.1-1.8c-7.4-3.1-10.6-11.4-11.1-15 11.2-4.7 11.7-5.1 12.1-13.4.3-8.3 1.3-15.2 6-23 4.6-7.8 10.3-10.1 16.4-12.2 4.3-1.5 4.6-.5 6.2-6.3 1.6-5.7 4.8-9.9 7-14.3 2.1-4.4 2.5-5.5 9.6-9.8 7-4.3 14.9-8.7 35.6-12.9 4.8-.4 6-2.7 2.7-11.4-1.2-3.7-1.3-26.1-1.3-26.1s-.8-7.8-5.5-5.7c-4.8 2.1-12 3.2-14.6 3.6-2.6.5-19.3 1.5-26.1-2.3 1.2 17.4 22.2 18.4 25.2 18.5h.3c.5.1 2.9.2 9.9-1.2-4.1 2.6-13.6 2.9-14.4 2.9-.1.2-.1.5-.1.7 0 .5.1 1.1.2 1.6.1.2.1.4.3.5l.2.2c1 .6 2 1 3.1 1.3 2.5.8 5.2 1.3 7.9 1.5-.3.2-.7.3-1.1.3l-.9.1c-.6.1-1.3.2-1.9.2-1.4 0-2.7.1-4 0l-3-.2c-.9-.1-2-.3-2.9-.2l-.6.1c-7 2.2-14 4.4-21.1 6.7l-6.7 2.1c-.4.1-2-1.2-2.3-1.5-1.8-1.3-3.2-2.9-4.5-4.8-2.8-4-3.2-9.5-1.3-14 3.2-7.8 7.5-15 12.3-22l.6-.9c3.8-4.4 8.8-10.7 18.3-11.7 4.2-.8 8.3-2.7 7-8.6-.8-4-1.6-8.8-2.3-12.7-.7-3.5-4-2.7-6.3-4.3-2.4-1.7-10.4-9.7-8.6-23.2.5-4.2 1.7-6.3-1.6-8.7-2-1.7-5.4-4.8-7.4-9.4-2-4.7-7.1-5.5-9.3-.8-8.2 12.1-16 13.9-16 13.9s-3.7-.9-4.8.4c-1.1 1.3.3 3.6.3 3.6s-3.6-1.2-4.5.5c-.9 1.7 1.4 3.5 1.4 3.5l6.3 4c.9.6.9 1.8.1 2.4-2 1.5-5.4 3.7-8.9 5.1 3.3 3.2 7.6 5.5 12.3 4.6 1.6-.3 3.1-1 4.5-1.9 1.6-1 2.7-2.4 4.2-3.5.8-.7 1.7-1.3 2.7-1.8.5-.2.9-.5 1.4-.6.3-.1 1.1-.1 1.4-.3-2.3 1.4-4 4.1-5.4 6.4-.5.8-1.1 1.6-1.5 2.4-.9 2.1-.9 4.8-.8 7 .2 5 .5 10.2 6.1 12.2 4 1.5 10.3 2.7 14.6.9-5 4.7-12.9 1.9-18.9 2-4.5.1-6.5 3.3-6.9 7.4-.3 3.4-.3 6.7-2.4 12.8-2.1 6.2-9.3 16.2-12.9 18.3-3.7 2.2-9.6 4.2-15.9-1.7-8-7.2-6.4-14.7-5.4-18.7.9-4 3.4-13.9 11.6-22.9 4.6-4.6 3.2-9.6 0-14.3-3.7-5.5-5.9-12.6-7-19.1-1.2-7-.5-13.2 1.6-20 1.1-5.2 2.5-9.3-10.2-13.1-6.6-2.2-13.8-17.1-17.5-19.4-3.7-2.3-9.3-4.4-13 4.7-3 7.7-2 18.3 2.2 25.3 3.6 6 9.4 8.8 16.2 9.2-2.5 1.5-9.4 1-9.4 1 .2 3.1-1.1 6.4-1.1 6.4l4.1-.5c1.5-.2 2.8.9 3 2.4.4 3.3-1.4 6.5-4.4 7.8-1.5.7-2.9 1.4-3.2 2-.3.5-.2 1.2-.1 1.7.1.9.2 1.9.4 2.8.4 2.1.9 4.3 1.5 6.4.2.6.4 1.2.5 1.8.2.5.9.9 1.3 1.2l2.1 1.2c2 1 4.2 1.7 6.4 2.1 1.9.3 3.9.3 5.8-.1-4.4 4.1-15.1 1.7-15.1 1.7-2.4 2.6-2.4 6.2.1 9.8-.3 2.4-2.5 21-5.4 26.5-2.9 5.5-22.7 9.4-22.7 9.4.1 0 1-3.9 1.1-4.2.7-2 2.2-3.6 2.8-5.6.6-2 .1-4.1-1-5.9-1.4-2.3-3.5-4-5.4-5.9-3.6-3.6-2.8-18.9-2.8-18.9-4.7-8.2-6.1-18-3.5-27.1.3-1.2.8-2.5 1.6-3.4 2.1-2.6 8.2-2.6 11.2-3.2 1.4-.3 3.2-.3 4.4-1.2 1.6-1.4 2.3-4.4 1.1-6.3-1.2-2-3.7-2.7-5.9-2.6-3.4.1-6.8.3-10.1.9 6.1-4.1 10-3.3 10.2-3.3-.9-1.9-1.8-4.6-1.2-9.6.3-2.8-1.1-5.8-7-5-5.9.8-13 2.6-19.4 4.6-6.4 2.1-5.8 6-5.1 9.5.7 3.6 1.9 8.8 1.7 13.3-.2 4.4-4 11.9-4.4 17.4-.3 5.4 6 13.8 6 18.1 0 4.3-4.7 10.1-5.7 15.2s2.8 10.6 1.8 16.9c-.7 4.8-4.3 8-8.4 10.2-8 4.2-16.5 5.8-25.4 5.7-4.2-.1-8.3-.2-12.4-.4-2-.1-4-.2-6-.4-1.4-.1-3.8-.8-5.1-.4 36.8-11.1 35-37.1 35-37.1s-1.3.8-1.5.9c-1.1.7-2.3 1.3-3.5 1.7-2.7.9-6.1 1.2-8.8.6-4-.9-6.6-3.9-8.6-7.3-2.2-1.2-5.2-.3-6.8 1.1-1.7 1.4-2.4 5.2-2.4 5.2l-1.2 14.3s-1.4-13.3-1.5-14.5c-1 .1-2.1.3-3 .9-2.4 1.6-2 5.7-2.6 8.1.1 1 .6 11.1.6 11.1l-2.9-7.4c-1.5 1.7-3.3 3.1-4.8 4.4-3.2 2.7-6.4 5.1-10 7.1-2 1.1-3.6 3.1-3.5 5.4.1 2.4 2.3 4.7 3.4 6.8 2.8 5 5.1 10.2 6.5 15.8 1.6 3.8 4.2 3 6.1 2.7 1.8-.3 4.7-.7 4.9-.7 0 0 4.7-.8 9.9-3.7-2.1 4.4-6.8 7.2-7.4 7.4 1.9 2.8 4 6 5 7.5 1.5 2.3 1.9 4.1 10.4 3.4 2.8-.7 5.3-1 7.8 3.5.7 1.3 1.6 2.7 2.6 3.9.9 1.2 2.2 2.2 3.8 2.4 1.5.2 3-.5 4.4-1.1 3.3-1.5 6.8-2.9 10-4.6-2.3 4.6-10.5 10.6-10.5 10.6 2.4 4.5 6.1 11.9 8 21.9 1.9 10.4-1.9 20.3-2.5 26.8-1.3 9.8 6.9 7.9 8.8 16 .5 2 2.5 2.8 4.3 2.8 3.8 0 7.2-1.8 11-.6 4.2 1.4 7.8 6 12.6 4.5 1.7-.5 3.2-1.6 4.7-2.7 6.4-4.7 12.4-9.9 18.4-15-3 3.4-5.6 7.3-8.8 10.6-2.9 2.9-5.8 5.9-9.2 8.2-2 1.4-5.1 2.6-7.6 2.4-2.8-.2-5.3-1.7-7.7-3.1-1.2-.7-2.5-1.1-3.9-1.1.3 0 .2 2.3.1 2.6-.1 1.1-.3 2.1-.7 3.1-1.2 3.4-3.8 6.2-6.3 8.5-1.1 1-2.3 1.9-3.6 2.7l-.2.1 11.7 4.6s-4.5 2.6-7.9 3.8c2.1 2.4 7.1 2.1 7.1 2.1l.6 17.9 8.4-9.8 49.4 58.2zm88-254.9c1 5.2-10.8 10.8-17.4 5.7 6.7.2 12-1.1 17.4-5.7zm-88.5-8.4c6.8.1 12.1-1.3 17.3-6-.4 1.9-2 3.6-4.2 4.9 0 0 .1 0 .1-.1l.4-.2c1.3-.7 2.5-1.6 3.7-2.7-.7 6.7-11.8 10.3-17.4 5.7 2.9.1 5.6-.1 8.1-.7.3-.1.6-.1.8-.2-3 .8-6.3.7-8.8-.7zm-35.7-53c-6.8-.2-12.1 1.1-17.4 5.7 1.5-7.9 12.1-9.8 17.4-5.7zm-15.4 10.7c.7-6.7 11.8-10.3 17.4-5.7-6.7-.2-12 1.1-17.4 5.7zm44.5 321.9l-23.2 12.8 25.4 13 6.2-3.2-.4-12.6zm19.7-280.7c2.1-1.3 3.8-3 4.2-4.9-5.2 4.7-10.5 6.1-17.3 6 2.5 1.4 5.8 1.4 8.8.6 1.5-.4 3-1 4.3-1.7z"/></svg>