<svg xmlns="http://www.w3.org/2000/svg" width="900" height="600" viewBox="0 0 900 600"><defs><style>.cls-1{fill:#231f20;}.cls-2{fill:none;}</style></defs><title>Artboard 1</title><path class="cls-1" d="M202.5 431l-17.9.4c-8.3.2-13.2 2.3-16.2 13.3h-3c.9-5.4 1-10.6 1.2-19 9.5.5 19.3.5 29 .5s19.8 0 29.7-.5l-42.8 65 22.5-1c11.1-.5 14.5-6.3 16.1-13.9h2.8c-.6 6.9-.8 14-1 21.1-10.3-.5-20.9-.5-31.4-.5s-21.5 0-32.2.5zm50.6 67.1c-15 0-23.4-10.1-23.4-24.8s10.5-25 24.7-25 23.4 10.1 23.4 24.8-10.1 25-24.7 25zm-.4-44.9c-7.9 0-10.3 8.9-10.3 15 0 8.5 4.3 22 13.6 22s9.1-8.5 9.1-15-3.1-22-12.4-22zm34.8 9.1c0-5.3-.3-6.1-5.5-6.1v-3a47.8 47.8 0 0 0 15.1-5h2.8v8.9c4.7-4.5 9.9-8.9 15.7-8.9s10.7 4.2 11.9 8.9c4.7-4.5 9.9-8.9 16-8.9 9.2 0 12.5 6.4 12.5 15.7v25.4c0 4.5 2.7 4.5 5.1 4.6v3a101 101 0 0 0-12.1-.5 86.9 86.9 0 0 0-11.5.5v-3c2.5-.1 5.1-.1 5.1-4.6v-25c0-3.2-.9-8.2-6.4-8.2-3 0-5.6 1.7-7.9 3.6v29.7c0 4.5 2.7 4.5 5.1 4.6v3a101 101 0 0 0-12.1-.5 86.9 86.9 0 0 0-11.5.5v-3c2.5-.1 5.1-.1 5.1-4.6v-25c0-7.6-4.9-8.2-7.5-8.2s-4.2 1.1-6.8 3.1v30.2c0 4.5 2.7 4.5 5.1 4.6v3a101 101 0 0 0-12.1-.5 86.9 86.9 0 0 0-11.5.5v-3c2.5-.1 5.1-.1 5.1-4.6zm81.6-26c0-5.3-.3-6.1-5.5-6.1v-3c5.9-.8 12.5-3.1 16.3-5.5h2.9c-.2 3.3-.4 6.6-.4 9.9v25h.2c4.4-5.1 8.8-8.4 15-8.4 12 0 16.5 12.5 16.5 22.6 0 13.8-6.4 27.3-22 27.3-5.1 0-8.1-.9-12-4.9a58.6 58.6 0 0 0-9.2 4.9h-1.9zm13.3 52.3c2.2 2.2 4.6 4 7.2 4 8.7 0 10.7-10.4 10.7-17.2 0-8.4-2.1-18.2-10.8-18.2-2.6 0-5 1.3-7.1 2.6zm57 .8c0 4.5 2.7 4.5 5.1 4.6v3a101 101 0 0 0-12.1-.5 86.9 86.9 0 0 0-11.5.5v-3c2.5-.1 5.1-.1 5.1-4.6v-27.1c0-5.3-.3-6.1-5.5-6.1v-3a59 59 0 0 0 16.3-5h2.9c-.2 3.3-.4 6.6-.4 9.9zm-7-49.3a7.2 7.2 0 0 1-7.3-7.4c0-4.9 2.8-8.2 7.7-8.2a7.2 7.2 0 0 1 7.3 7.4c0 4.8-2.8 8.2-7.7 8.2zm28.7 28.4c.4 8.6 5.5 18.1 14.9 18.1 5.4 0 9.9-2.5 13.4-7.1l2.5.8c-3.2 10-9.5 17.8-21.5 17.8-13.8 0-20.2-11.9-20.2-24.4s6.6-25.5 21.4-25.5c11.8 0 18.4 8.5 18.4 20.3zm15.6-4.2c-.3-5.4-.9-12-7.5-12s-8.1 7-8.1 12zm44.9 21.9c0 5.6 0 7.2 6.9 7.7v3c-5-.5-10.3-.5-15.5-.5s-10.1 0-15.2.5v-3c6.9-.5 6.9-2.1 6.9-7.7v-49.9c0-5.6 0-7.2-6.9-7.7v-3c5.9.5 10.3.5 15.5.5 7.1 0 13.3-.5 19.4-.5 12.2 0 21.5 5.5 21.5 19.1 0 16.8-13.1 22.5-27.8 22.5h-4.8zm0-23.2c12.2 0 14.9-4.2 14.9-15.4 0-8.3-2.2-17-11.9-17-1.5 0-3.1.2-3.1 1.9zm57.1 26.4c0 4.5 2.7 4.5 7 4.6v3c-6-.5-10.1-.5-14-.5a86.8 86.8 0 0 0-11.5.5v-3c2.5-.1 5.1-.1 5.1-4.6v-27.1c0-5.3-.3-6.1-5-6.1v-3a49.5 49.5 0 0 0 14.6-5h2.3v11.6h.2c3.4-5.5 6.8-11.6 12.2-11.6s6.5 4.6 6.5 9.5-.3 8.1-6.5 8.1c-3.9 0-5.5-.9-5.5-4.7 0-1.8-.8-2.1-1.5-2.1s-3 2.6-4 4zm44.7 8.7c-15 0-23.4-10.1-23.4-24.8s10.5-25 24.7-25 23.4 10.1 23.4 24.8-10 25-24.7 25zm-.4-44.9c-7.9 0-10.3 8.9-10.3 15 0 8.5 4.3 22 13.6 22s9.1-8.5 9.1-15-3.1-22-12.4-22zm53.6 44.9c-15 0-23.4-10.1-23.4-24.8s10.5-25 24.7-25 23.4 10.1 23.4 24.8-10.1 25-24.7 25zm-.4-44.9c-7.9 0-10.3 8.9-10.3 15 0 8.5 4.3 22 13.6 22s9.1-8.5 9.1-15-3.1-22-12.4-22zm35.8 1.4h-5.1v-4.2h5.1c.3-20.5 5.8-28.8 20.1-28.8 3.6 0 8.8 1.7 8.8 8.4 0 3.7-1.8 5.3-5.1 5.3s-4.4-2.9-4.4-5.9 0-3.7-2.8-3.7-3.7 4-3.7 8.6.3 10.5.3 16h8.2v4.2h-8.2v34.7c0 4.5 2.7 4.5 6.1 4.6v3a127.2 127.2 0 0 0-13.1-.5 86.8 86.8 0 0 0-11.5.5v-3c2.5-.1 5.1-.1 5.1-4.6zm-537.6 103.4h-10.3l-5 .3v-1.3h1.2c2.3 0 2.9-.5 2.9-3.2v-28.1c0-2.7-.6-3.2-2.9-3.2h-1.2v-1.2l2.2.2h13.3c8.9 0 10.4 5.3 10.4 7.9 0 4.7-2.4 7.5-8.1 8.7 5.6.4 10.4 3.1 10.4 9.5 0 9.1-9.7 10.4-12.9 10.4zm-3.3-34.9c-2 0-2.7 0-2.7 1v12.9c0 .9.2.9 1.4.9 5.2 0 9.5-1 9.5-7.1s-2.6-7.7-8.2-7.7zm-1.2 16.3c-1.2 0-1.5.1-1.5.5v14.2c0 2.3 2.5 2.4 4.1 2.4 5.5 0 9.2-2.6 9.2-7.4-.1-7.3-4.1-9.7-11.8-9.7zm21.6 17.6h.9c1.7 0 2.4-.5 2.4-3.2v-13.7c0-2.6-.4-3.4-3-3.4h-1.1v-1.2a18 18 0 0 0 7-2.5h1.6c-.1 1.6-.2 3.3-.2 5.1v1.6h.1c1.2-1.6 4.8-6.1 7-6.1s2.8 1.8 2.8 3.8-.5 2.1-2.3 2.1-2.1-.4-2.1-1.7-.1-1.1-.6-1.1-4.8 4-5 5.4v11.7c0 2.7.7 3.2 2.4 3.2h2.3v1.2l-6.7-.2-5.5.3zm34.3-17.9c0-3.4-1.3-4.5-4.2-4.5s-4.4.9-4.4 4 0 3.1-2.1 3.1-2.2-.7-2.2-2.1c0-4.6 4.1-6.5 8.4-6.5 6.1 0 8.8 1.9 8.8 8v13.3c0 1 .1 1.8.8 1.8a3.3 3.3 0 0 0 2.1-1l.5.8c-1.2 1.3-3.2 3-5.1 3s-2.5-2.2-2.5-3.5v-1.1c-2.3 2.4-5.1 4.7-8.6 4.7a5.8 5.8 0 0 1-5.8-6.1c0-5.5 4.2-8.2 14.4-10zm0 4.8c-3.3.9-9.8 3-9.8 7.5a3.9 3.9 0 0 0 3.8 4.1c2.3 0 4.2-1.2 6-2.4zm24.8-8.1h-5.3c-3.5 0-6.8.6-7.2 4.8h-1.2c.2-2.3.3-4.6.3-6.9l10.1.3c3.3 0 6.6-.1 10-.3l-15.4 22.6 6.6-.2c3.6-.1 6.1-.6 7.2-4.8h1.1c-.2 2.4-.4 4.7-.5 7.1l-10.5-.3-10.6.3zm9.3 21.2h.9c1.7 0 2.4-.5 2.4-3.2v-13.7c0-2.6-.4-3.4-3-3.4h-1.1v-1.2a18 18 0 0 0 7-2.5h1.6c-.1 1.6-.2 3.3-.2 5.1v15.7c0 2.7.7 3.2 2.4 3.2h.9v1.2l-5.5-.3-5.5.3zm5.2-29.8c-1.8 0-2.9-1.5-2.9-3.3a3.2 3.2 0 0 1 3.1-3.3c1.7 0 2.8 1.4 2.8 3.3a3.1 3.1 0 0 1-3 3.4zm9 29.8h.9c1.7 0 2.4-.5 2.4-3.2v-28c0-2.8-.8-3.3-2.9-3.3h-.6v-.9a24.9 24.9 0 0 0 6.8-2.3h1.2a38.8 38.8 0 0 0-.2 4.2v30.4c0 2.7.7 3.2 2.4 3.2h.9v1.2l-5.5-.3-5.5.3zm14.3 0h.9c1.7 0 2.4-.5 2.4-3.2v-13.7c0-2.6-.4-3.4-3-3.4h-1.1v-1.2a18 18 0 0 0 7-2.5h1.6c-.1 1.6-.2 3.3-.2 5.1v15.7c0 2.7.7 3.2 2.4 3.2h.9v1.2l-5.5-.3-5.5.3zm5.2-29.8c-1.8 0-2.9-1.5-2.9-3.3a3.2 3.2 0 0 1 3.1-3.3c1.7 0 2.8 1.4 2.8 3.3a3.1 3.1 0 0 1-3 3.4zm23.4 11.9c0-3.4-1.3-4.5-4.2-4.5s-4.4.9-4.4 4 0 3.1-2.1 3.1-2.2-.7-2.2-2.1c0-4.6 4.1-6.5 8.4-6.5 6.1 0 8.8 1.9 8.8 8v13.3c0 1 .1 1.8.8 1.8a3.3 3.3 0 0 0 2.1-1l.5.8c-1.2 1.3-3.2 3-5.1 3s-2.5-2.2-2.5-3.5v-1.1c-2.3 2.4-5.1 4.7-8.6 4.7a5.8 5.8 0 0 1-5.8-6.1c0-5.5 4.2-8.2 14.4-10zm0 4.8c-3.3.9-9.8 3-9.8 7.5a3.9 3.9 0 0 0 3.8 4.1c2.3 0 4.2-1.2 6-2.4zm9.7 13.1h.9c1.7 0 2.4-.5 2.4-3.2v-13.8c0-2.6-.4-3.4-3-3.4h-1v-1.2a18 18 0 0 0 7-2.5h1.2v4.9h.1c1.3-1.5 5-4.9 8.5-4.9s7.1 2.7 7.1 8.9v11.9c0 2.7.7 3.2 2.4 3.2h.9v1.2l-5.5-.3-5.5.3v-1.1h.9c1.7 0 2.4-.5 2.4-3.2v-12.1c0-3.2-1.4-5.3-4.7-5.3s-4.7 1.3-6.6 2.6v14.8c0 2.7.7 3.2 2.4 3.2h.9v1.2l-5.5-.3-5.5.3zm48.1-31.3c0-2.7-.6-3.2-2.9-3.2h-1.2v-1.2l6.9.3 6.5-.3v1.2h-1.2c-2.3 0-2.9.5-2.9 3.2v19.3c0 13-.1 17.9-9.6 22.5l-.8-.9c5-1.8 5.2-6.6 5.2-8.7zm11.5 31.3h.9c1.7 0 2.4-.5 2.4-3.2v-13.7c0-2.6-.4-3.4-3-3.4h-1.1v-1.2a18 18 0 0 0 7-2.5h1.6c-.1 1.6-.2 3.3-.2 5.1v15.7c0 2.7.7 3.2 2.4 3.2h.9v1.2l-5.5-.3-5.5.3zm5.2-29.8c-1.8 0-2.9-1.5-2.9-3.3a3.2 3.2 0 0 1 3.1-3.3c1.7 0 2.8 1.4 2.8 3.3a3.1 3.1 0 0 1-3 3.4zm27 27.6c-3.1 3.1-5.7 4.1-8.2 4.1-6.1 0-7.4-5.1-7.4-9.6v-9.2c0-2.6-.4-3.4-2.3-3.4h-1v-1.2a21.3 21.3 0 0 0 6.3-2.5h1.6c-.1 1.6-.2 3.3-.2 5.1v11.2c0 3.5 1.7 6.2 5.3 6.2a8 8 0 0 0 5.7-2.5v-12.9c0-2.6-.4-3.4-2.3-3.4h-1v-1.2a21.2 21.2 0 0 0 6.3-2.5h1.6c-.1 1.6-.2 3.3-.2 5.1v12.9c0 3.7.4 4.3 2 4.3h1.3v1.2a18.1 18.1 0 0 0-6 1.7h-1.4zm11.2-10.6h11.4v3.7h-11.4zm20.2-18.5c0-2.7-.6-3.2-2.9-3.2h-1.2v-1.2l6.9.3 6.5-.3v1.2h-1.2c-2.3 0-2.9.5-2.9 3.2v19.3c0 13-.1 17.9-9.6 22.5l-.8-.9c5-1.8 5.2-6.6 5.2-8.7zm11.5 31.3h.9c1.7 0 2.4-.5 2.4-3.2v-13.7c0-2.6-.4-3.4-3-3.4h-1.1v-1.2a18 18 0 0 0 7-2.5h1.6c-.1 1.6-.2 3.3-.2 5.1v15.7c0 2.7.7 3.2 2.4 3.2h.9v1.2l-5.5-.3-5.5.3zm5.2-29.8c-1.8 0-2.9-1.5-2.9-3.3a3.2 3.2 0 0 1 3.1-3.3c1.7 0 2.8 1.4 2.8 3.3a3.1 3.1 0 0 1-3 3.4zm12.4 9.7h-3.3v-1.2a12.8 12.8 0 0 0 6.5-9.2h1.1v8.9h5.9v1.5h-5.9v13.9c0 2.7.3 5 2.5 5a5.7 5.7 0 0 0 3.4-1.5l.5.9c-1.6 1.8-3.6 3.6-6.2 3.6s-4.5-3.1-4.5-6.1zm28.1 3.3a6 6 0 0 0-6.1-5.6c-2.2 0-4.2 1.1-4.2 3.4s.7 2.7 6 5.2c3.6 1.7 6.5 3.5 6.5 7.9s-3.4 7.8-8.1 7.8c-2.4 0-5.2-1.4-6.8-1.4h-.8a75.9 75.9 0 0 0 .2-8.4h1.2c.2 4.6 3 8.3 6.9 8.3 2.4 0 5-2 5-4.4s-3.2-4.4-6.5-5.9-6.6-3.3-6.6-7.3 3.3-6.7 7.1-6.7a17.7 17.7 0 0 1 2.9.3 18.2 18.2 0 0 0 2.9.3l1.4-.2c.1 2.4.3 4.6.3 6.8zm24.5 14.6c-3.1 3.1-5.7 4.1-8.2 4.1-6.1 0-7.4-5.1-7.4-9.6v-9.2c0-2.6-.4-3.4-2.3-3.4h-1v-1.2a21.3 21.3 0 0 0 6.3-2.5h1.6c-.1 1.6-.2 3.3-.2 5.1v11.2c0 3.5 1.7 6.2 5.3 6.2a8 8 0 0 0 5.7-2.5v-12.9c0-2.6-.4-3.4-2.3-3.4h-1v-1.2a21.3 21.3 0 0 0 6.3-2.5h1.6c-.1 1.6-.2 3.3-.2 5.1v12.9c0 3.7.4 4.3 2 4.3h1.2v1.2a18.1 18.1 0 0 0-6 1.7h-1.4zm50.6-17.8a44.9 44.9 0 0 0 5.2.4 56.1 56.1 0 0 0 5.9-.4v1.2c-2.7 0-3.7.9-5.1 2.8s-4.8 6.2-7.7 9.8c2.4 2.9 5.3 5.2 9.2 5.2a8.8 8.8 0 0 0 4.7-1.3l.7.9c-2.4 1.4-5.3 3.2-7.8 3.2-4.6 0-6.4-1.8-9.8-4.9-4.4 3.2-7 4.9-12.6 4.9a8.5 8.5 0 0 1-8.7-8.8c0-6.1 6.1-9.6 10.8-12.1a16.2 16.2 0 0 1-1.6-7.7c0-5.2 3.2-8.9 8.6-8.9 3.9 0 7.3 2.3 7.3 6.6s-5.4 7.3-9.4 9.3a106.9 106.9 0 0 0 7.7 12.5c2.1-2.5 5.3-7.3 5.3-9.9s-1.6-1.6-2.6-1.5zm-13.7 18.8a11.7 11.7 0 0 0 7.8-3.2 70.9 70.9 0 0 1-8.7-13.2c-3.6 2.3-6.3 4.4-6.3 9.1s2.7 7.3 7.1 7.3zm2.8-19.9c3.3-2 6.6-4.3 6.6-8.6 0-2.4-1.5-4.5-4.2-4.5s-4.7 2.6-4.7 5.5a17.9 17.9 0 0 0 2.2 7.6zm40.7 21.1h1.4c2.2 0 2.8-.7 2.9-2.4l.7-28.3c.1-2.8-.1-3.8-4.2-3.8v-1.2l5 .3 4.8-.3c4.2 9.6 8.3 18.7 11.8 28.6h.1c3.5-10 7.6-19.1 11.4-28.6l4.8.3 4.8-.3v1.2c-3.6 0-4.2.3-4.2 4.2l.1 3.9.4 23.6c.1 2.8 1.9 2.8 4.3 2.8v1.2l-6.9-.3c-2.8 0-3.9.1-6.8.3v-1.2c3.8 0 4.2-.7 4.2-3.2l-.2-28.2h-.1l-12.5 30.9c-.4.9-.7 1.7-.9 1.7s-.8-1.3-1.6-3.3l-12.2-29.3h-.1l-.2 29.8c0 1.6 2.4 1.6 4.3 1.6v1.2l-5.9-.3-5.2.3zm46.6 0h1.4c2.2 0 2.8-.7 2.9-2.4l.7-28.3c.1-2.8-.1-3.8-4.2-3.8v-1.2l5 .3 4.8-.3c4.2 9.6 8.3 18.7 11.8 28.6h.1c3.5-10 7.6-19.1 11.4-28.6l4.8.3 4.8-.3v1.2c-3.6 0-4.2.3-4.2 4.2l.1 3.9.4 23.6c.1 2.8 1.9 2.8 4.3 2.8v1.2l-6.9-.3c-2.8 0-3.9.1-6.8.3v-1.2c3.8 0 4.2-.7 4.2-3.2l-.2-28.2h-.1l-12.5 30.9c-.4.9-.7 1.7-.9 1.7s-.8-1.3-1.6-3.3l-12.2-29.3h-.1l-.2 29.8c0 1.6 2.4 1.6 4.3 1.6v1.2l-5.9-.3-5.2.3zm45.8 0c2.6 0 3.2-1.6 4.8-5.4l12.9-31c.2-.4.3-.6.5-.6s.4.2.5.6l12.9 32.1c1.4 3.3 2.2 4.4 4.3 4.4v1.2l-6.2-.3-6 .3v-1.3c1.1 0 2.9 0 2.9-1.3a9.6 9.6 0 0 0-.8-2.8l-2.7-7h-13.4l-2.9 7.2a6.4 6.4 0 0 0-.6 2.2c0 1.7 1.8 1.8 3.2 1.8v1.2l-5.1-.3-4.3.3zm16.6-28.2l-6.1 15.2h12z"/><path class="cls-2" d="M414.1 109c-4.2-3.5-12.5-.8-13.1 4.3 4-3.5 8-4.5 13.1-4.3zm25.2 37.1c4.3 3.5 12.5.8 13.1-4.2a17.5 17.5 0 0 1-2.8 2l-.3.2h-.1a12.3 12.3 0 0 1-3.2 1.3l-.6.2a21.7 21.7 0 0 1-6.1.5zm66.3 5.2c-4 3.5-8 4.4-13.1 4.3 5 3.8 13.8-.4 13.1-4.3zm-93.1-46c-4-3.1-11.9-1.7-13.1 4.3 4.1-3.6 8-4.5 13.1-4.3z"/><path class="cls-1" d="M418 123.6c-3.7.9-6.7 1.8-6.6 7.7s.7 9.4 1.6 12.1a5.3 5.3 0 0 0 5.4 3.9c.1-.4 2.7-7.1 2.7-7.1l.7 6.8.9 5.1a.9.9 0 0 0 1.4.6c1.9-1.2 5.8-4.5 7.1-11.6 1.7-9.6-1.6-15.6-3.4-16.9s-4.8-1.7-9.8-.6zm-168 242.8l17.8 49 12.5-4.8-18.5-48.7-11.8 4.5zm373.4-4.4l-18.2 50.4-135.1-55.9 7.3-48.6c51.7-15.4 90-61.7 91.9-117.7 2.4-70.4-53.9-129.4-125.7-131.8s-131.9 52.7-134.3 123.1c-1.9 57 34.6 106.5 86.7 124.6l35 44.1-19.8 10.8-123.2 46.7-19-48.5 79.6-30.1a169.2 169.2 0 1 1 184.6.8zm7.4 2.6l-17.8 51 16.1 6.7 17.9-51.9-16.2-5.8zm-202.5-289.9l-.4 11.2a9 9 0 0 1 4.1-4.5c1.6-.7 4.6.1 4.9.1l-7.4-7.3a.7.7 0 0 0-1.2.5zm-49.1 58.1c-6.1 1.4-12.2 7.1-15.2 10.2s-2.9 3.8-2.8 5.5 3.6 4.8 5.2 6 7.5 1.3 10.7-2.5 6.3-6.2 8.8-11.4l-4.9 1.6 4.8-5c.2-2.8-1.2-5.6-6.6-4.4zm85.6-.3c2.1-.4 7.7-1.2 12.2-5.3a38.6 38.6 0 0 0-4.9-3.6c-4.3 1.2-7.4 3.7-8.9 6.8s-.4 2.4 1.6 2.1zm47.4 37c-3.7-.7-7.8-1.6-10.7-4.2a4.3 4.3 0 0 0 .3 2.6 5.3 5.3 0 0 0 1.8 2.3 10.5 10.5 0 0 0 3.5 1.1l3.8.6a42.5 42.5 0 0 0 13.5-.1l3.6-.9a6 6 0 0 1 1.2-.4h-5.1a78.1 78.1 0 0 1-11.9-1zm26.7 25.6c-.9-2.8-1-19.5-1-19.5s-.6-5.8-4.2-4.3-9 2.4-10.9 2.7-14.5 1.1-19.6-1.8c.9 13 16.7 13.8 18.9 13.9h.2c.4 0 2.2.2 7.4-.9-3.1 2-10.2 2.1-10.8 2.2a1.3 1.3 0 0 0-.1.5 4.2 4.2 0 0 0 .2 1.2.6.6 0 0 0 .2.4h.2a11.2 11.2 0 0 0 2.3 1 24.2 24.2 0 0 0 5.9 1.1l-.8.3h-7.4a12.5 12.5 0 0 0-2.2-.2h-.5l-15.8 5-5 1.6c-.3.1-1.5-.9-1.7-1.1a14.8 14.8 0 0 1-3.4-3.6 11.4 11.4 0 0 1-1-10.5 88.5 88.5 0 0 1 9.2-16.5l.5-.7c2.8-3.3 6.6-8 13.7-8.8 3.2-.6 6.2-2 5.2-6.4s-1.2-6.6-1.7-9.5-3-2-4.7-3.2-7.8-7.3-6.5-17.4c.4-3.1 1.3-4.7-1.2-6.5a19.7 19.7 0 0 1-5.5-7.1c-1.5-3.5-5.3-4.1-7-.6-6.2 9.1-12 10.4-12 10.4s-2.8-.7-3.6.3l.3 2.7s-2.7-.9-3.4.4l1 2.6 4.7 3a1.1 1.1 0 0 1 .1 1.8 29.6 29.6 0 0 1-6.7 3.8c2.5 2.4 5.7 4.1 9.2 3.4a10.3 10.3 0 0 0 3.4-1.4 30.6 30.6 0 0 0 3.1-2.7 11.2 11.2 0 0 1 2-1.3l1-.5 1-.2c-1.7 1.1-3 3.1-4.1 4.8a16.2 16.2 0 0 0-1.1 1.8 12.4 12.4 0 0 0-.6 5.3c.1 3.7.4 7.7 4.6 9.2s7.7 2 10.9.7c-3.7 3.5-9.7 1.4-14.1 1.5s-4.8 2.5-5.2 5.5a33.9 33.9 0 0 1-1.8 9.6c-1.6 4.6-7 12.1-9.7 13.8s-7.2 3.1-12-1.2-4.8-11-4.1-14a37.7 37.7 0 0 1 8.7-17.2c3.4-3.4 2.4-7.2 0-10.7a38.5 38.5 0 0 1-5.2-14.3 30.9 30.9 0 0 1 1.2-15c.8-3.9 1.8-7-7.7-9.8-4.9-1.7-10.3-12.8-13.1-14.5s-7-3.3-9.7 3.5a23.3 23.3 0 0 0 1.7 19c2.7 4.5 7 6.6 12.1 6.9-1.9 1.1-7 .8-7 .8a13 13 0 0 1-.9 4.8l3.1-.4a2 2 0 0 1 2.3 1.8 5.7 5.7 0 0 1-3.3 5.9 6.7 6.7 0 0 0-2.4 1.5 2.6 2.6 0 0 0-.1 1.3 18.9 18.9 0 0 0 .3 2.1 45.9 45.9 0 0 0 1.1 4.8l.4 1.4c.1.4.7.6 1 .9l1.6.9a16.7 16.7 0 0 0 4.8 1.6 11.7 11.7 0 0 0 4.4-.1c-3.3 3-11.3 1.3-11.3 1.3-1.8 2-1.8 4.6 0 7.4-.2 1.8-1.9 15.8-4 19.9l-17 7.1s.7-2.9.8-3.2 1.7-2.7 2.1-4.2a5.7 5.7 0 0 0-.7-4.4 22.5 22.5 0 0 0-4-4.4c-2.7-2.7-2.1-14.1-2.1-14.1a26.5 26.5 0 0 1-2.7-20.3 6.9 6.9 0 0 1 1.2-2.6c1.6-1.9 6.1-2 8.4-2.4s2.4-.2 3.3-.9a4.1 4.1 0 0 0 .9-4.7 4.8 4.8 0 0 0-4.4-2 56.3 56.3 0 0 0-7.6.7c4.6-3 7.5-2.5 7.6-2.5s-1.4-3.4-.9-7.2c.2-2.1-.8-4.3-5.2-3.8a88.1 88.1 0 0 0-14.6 3.5c-4.8 1.6-4.4 4.5-3.8 7.2s1.4 6.6 1.3 9.9-3 8.9-3.3 13 4.5 10.3 4.5 13.5-3.5 7.6-4.2 11.4 2.1 8 1.4 12.7-3.2 6-6.3 7.6a38.7 38.7 0 0 1-19.1 4.2l-9.3-.3-4.5-.3c-1-.1-2.9-.6-3.8-.3 27.6-8.3 26.3-27.8 26.3-27.8l-1.1.7a13.2 13.2 0 0 1-2.6 1.3 13.5 13.5 0 0 1-6.6.5c-3-.6-4.9-2.9-6.5-5.5a4.9 4.9 0 0 0-5.1.8c-1.2 1-1.8 3.9-1.8 3.9l-.9 10.7-1.2-10.9a4.7 4.7 0 0 0-2.2.7c-1.8 1.2-1.5 4.3-1.9 6.1l.5 8.3-2.2-5.5a32.7 32.7 0 0 1-3.6 3.3 46.8 46.8 0 0 1-7.5 5.3 4.8 4.8 0 0 0-2.7 4.1c0 1.8 1.7 3.5 2.6 5.1a47.5 47.5 0 0 1 4.9 11.8c1.2 2.8 3.1 2.2 4.6 2l3.7-.5a26.8 26.8 0 0 0 7.4-2.8 13.4 13.4 0 0 1-5.5 5.5l3.7 5.6c1.1 1.7 1.4 3.1 7.8 2.5 2.1-.5 4-.8 5.9 2.6a22 22 0 0 0 1.9 2.9 4.4 4.4 0 0 0 2.8 1.8 6.4 6.4 0 0 0 3.3-.8c2.5-1.1 5.1-2.1 7.5-3.4-1.7 3.5-7.8 8-7.8 8a57.8 57.8 0 0 1 6 16.4c1.4 7.8-1.4 15.2-1.9 20.1-.9 7.3 5.2 5.9 6.6 12a3.1 3.1 0 0 0 3.2 2.1c2.9 0 5.4-1.4 8.3-.4s5.9 4.5 9.4 3.4a12 12 0 0 0 3.5-2c4.8-3.5 9.3-7.4 13.8-11.2-2.3 2.5-4.2 5.5-6.6 7.9a44.4 44.4 0 0 1-6.9 6.1 9.8 9.8 0 0 1-5.7 1.8 13.8 13.8 0 0 1-5.8-2.3 5.7 5.7 0 0 0-2.9-.8c.2 0 .1 1.7.1 1.9a8.5 8.5 0 0 1-.5 2.3 17.8 17.8 0 0 1-4.7 6.4 19.1 19.1 0 0 1-2.7 2.1h-.1l8.7 3.5a45.7 45.7 0 0 1-5.9 2.9c1.6 1.8 5.3 1.6 5.3 1.6l.5 13.5 6.3-7.4 37.3 43.4-1.6-53 10.1 6.4.7 61v10.5l16.5-8.4 5.5-49.1v-.3c0-2.3.1-10.2 2.8-16.5a15.2 15.2 0 0 1-3 .4 5.9 5.9 0 0 1-6.5-5.1l-.2-1.8a1.2 1.2 0 0 1 1-1.3l10.5-1.4c-5.5-2.3-7.9-8.5-8.3-11.3 8.4-3.5 8.8-3.8 9.1-10s1-11.4 4.5-17.2 7.7-7.6 12.3-9.1 3.5-.4 4.7-4.7 3.6-7.4 5.2-10.7 1.9-4.1 7.2-7.4 11.2-6.5 26.7-9.7c3.6-.3 4.5-2 2-8.5zm-33.4-43.9c.8 3.9-8.1 8.1-13.1 4.3 5.2.2 9.2-.8 13.2-4.2zm-93.1-46c-5.1-.2-9.1.8-13.1 4.3 1.4-5.9 9.3-7.4 13.2-4.2zm-11.5 8c.5-5 8.8-7.7 13.1-4.2-5-.2-9 .8-13 4.3zm38.2 32.9c6.4.7 12-2.5 13.1-4.2-.4 5-8.7 7.7-12.9 4.2zm-4.8 208.4l-17.3 9.6 19 9.7 4.6-2.4-.3-9.4-6-7.5z"/></svg>