<?xml version="1.0" encoding="utf-8"?>
<!-- Generator: Adobe Illustrator 20.1.0, SVG Export Plug-In . SVG Version: 6.00 Build 0)  -->
<!DOCTYPE svg PUBLIC "-//W3C//DTD SVG 1.1//EN" "http://www.w3.org/Graphics/SVG/1.1/DTD/svg11.dtd">
<svg version="1.1" id="Layer_1" xmlns="http://www.w3.org/2000/svg" xmlns:xlink="http://www.w3.org/1999/xlink" x="0px" y="0px"
	 width="900px" height="600px" viewBox="0 0 900 600" style="enable-background:new 0 0 900 600;" xml:space="preserve">
<style type="text/css">
	.st0{fill:none;}
</style>
<g>
	<g>
		<path d="M202.5,431l-17.9,0.4c-8.3,0.2-13.2,2.3-16.2,13.3h-3c0.9-5.4,1-10.6,1.2-19c9.5,0.5,19.3,0.5,29,0.5
			c9.9,0,19.8,0,29.7-0.5l-42.8,65l22.5-1c11.1-0.5,14.5-6.3,16.1-13.9h2.8c-0.6,6.9-0.8,14-1,21.1c-10.3-0.5-20.9-0.5-31.4-0.5
			c-10.8,0-21.5,0-32.2,0.5L202.5,431z"/>
		<path d="M253.1,498.1c-15,0-23.4-10.1-23.4-24.8c0-13.7,10.5-25,24.7-25c15,0,23.4,10.1,23.4,24.8
			C277.7,488.1,267.7,498.1,253.1,498.1z M252.7,453.2c-7.9,0-10.3,8.9-10.3,15c0,8.5,4.3,22,13.6,22c8,0,9.1-8.5,9.1-15
			C265,468.3,262,453.2,252.7,453.2z"/>
		<path d="M287.5,462.3c0-5.3-0.3-6.1-5.5-6.1v-3c5.8-0.8,10.8-2.8,15.1-5h2.8v8.9c4.7-4.5,9.9-8.9,15.7-8.9
			c6.8,0,10.7,4.2,11.9,8.9c4.7-4.5,9.9-8.9,16-8.9c9.2,0,12.5,6.4,12.5,15.7v25.4c0,4.5,2.7,4.5,5.1,4.6v3
			c-4.2-0.5-8.2-0.5-12.1-0.5s-7.9,0-11.5,0.5v-3c2.5-0.1,5.1-0.1,5.1-4.6v-25c0-3.2-0.9-8.2-6.4-8.2c-3,0-5.6,1.7-7.9,3.6v29.7
			c0,4.5,2.7,4.5,5.1,4.6v3c-4.2-0.5-8.2-0.5-12.1-0.5s-7.9,0-11.5,0.5v-3c2.5-0.1,5.1-0.1,5.1-4.6v-25c0-7.6-4.9-8.2-7.5-8.2
			c-1.9,0-4.2,1.1-6.8,3.1v30.2c0,4.5,2.7,4.5,5.1,4.6v3c-4.2-0.5-8.2-0.5-12.1-0.5c-3.9,0-7.9,0-11.5,0.5v-3
			c2.5-0.1,5.1-0.1,5.1-4.6V462.3z"/>
		<path d="M369.1,436.3c0-5.3-0.3-6.1-5.5-6.1v-3c5.9-0.8,12.5-3.1,16.3-5.5h2.9c-0.2,3.3-0.4,6.6-0.4,9.9v25h0.2
			c4.4-5.1,8.8-8.4,15-8.4c12,0,16.5,12.5,16.5,22.6c0,13.8-6.4,27.3-22,27.3c-5.1,0-8.1-0.9-12-4.9c-3.6,1.5-5.8,2.8-9.2,4.9h-1.9
			V436.3z M382.4,488.6c2.2,2.2,4.6,4,7.2,4c8.7,0,10.7-10.4,10.7-17.2c0-8.4-2.1-18.2-10.8-18.2c-2.6,0-5,1.3-7.1,2.6V488.6z"/>
		<path d="M439.4,489.4c0,4.5,2.7,4.5,5.1,4.6v3c-4.2-0.5-8.2-0.5-12.1-0.5s-7.9,0-11.5,0.5v-3c2.5-0.1,5.1-0.1,5.1-4.6v-27.1
			c0-5.3-0.3-6.1-5.5-6.1v-3c5.9-0.8,12.5-3.1,16.3-5h2.9c-0.2,3.3-0.4,6.6-0.4,9.9V489.4z M432.4,440.1c-4.5,0-7.3-3.4-7.3-7.4
			c0-4.9,2.8-8.2,7.7-8.2c4.5,0,7.3,3.4,7.3,7.4C440.1,436.7,437.3,440.1,432.4,440.1z"/>
		<path d="M461.1,468.5c0.4,8.6,5.5,18.1,14.9,18.1c5.4,0,9.9-2.5,13.4-7.1l2.5,0.8c-3.2,10-9.5,17.8-21.5,17.8
			c-13.8,0-20.2-11.9-20.2-24.4c0-13.3,6.6-25.5,21.4-25.5c11.8,0,18.4,8.5,18.4,20.3H461.1z M476.7,464.3c-0.3-5.4-0.9-12-7.5-12
			c-6.4,0-8.1,7-8.1,12H476.7z"/>
		<path d="M521.6,486.2c0,5.6,0,7.2,6.9,7.7v3c-5-0.5-10.3-0.5-15.5-0.5c-5,0-10.1,0-15.2,0.5v-3c6.9-0.5,6.9-2.1,6.9-7.7v-49.9
			c0-5.6,0-7.2-6.9-7.7v-3c5.9,0.5,10.3,0.5,15.5,0.5c7.1,0,13.3-0.5,19.4-0.5c12.2,0,21.5,5.5,21.5,19.1
			c0,16.8-13.1,22.5-27.8,22.5h-4.8V486.2z M521.6,463.1c12.2,0,14.9-4.2,14.9-15.4c0-8.3-2.2-17-11.9-17c-1.5,0-3.1,0.2-3.1,1.9
			V463.1z"/>
		<path d="M578.7,489.4c0,4.5,2.7,4.5,7,4.6v3c-6-0.5-10.1-0.5-14-0.5s-7.9,0-11.5,0.5v-3c2.5-0.1,5.1-0.1,5.1-4.6v-27.1
			c0-5.3-0.3-6.1-5-6.1v-3c5.2-0.8,10.2-2.8,14.6-5h2.3v11.6h0.2c3.4-5.5,6.8-11.6,12.2-11.6c5.9,0,6.5,4.6,6.5,9.5
			c0,5.3-0.3,8.1-6.5,8.1c-3.9,0-5.5-0.9-5.5-4.7c0-1.8-0.8-2.1-1.5-2.1c-1.2,0-3,2.6-4,4V489.4z"/>
		<path d="M623.4,498.1c-15,0-23.4-10.1-23.4-24.8c0-13.7,10.5-25,24.7-25c15,0,23.4,10.1,23.4,24.8
			C648.1,488.1,638.1,498.1,623.4,498.1z M623,453.2c-7.9,0-10.3,8.9-10.3,15c0,8.5,4.3,22,13.6,22c8,0,9.1-8.5,9.1-15
			C635.4,468.3,632.3,453.2,623,453.2z"/>
		<path d="M676.6,498.1c-15,0-23.4-10.1-23.4-24.8c0-13.7,10.5-25,24.7-25c15,0,23.4,10.1,23.4,24.8
			C701.2,488.1,691.2,498.1,676.6,498.1z M676.2,453.2c-7.9,0-10.3,8.9-10.3,15c0,8.5,4.3,22,13.6,22c8,0,9.1-8.5,9.1-15
			C688.6,468.3,685.5,453.2,676.2,453.2z"/>
		<path d="M712,454.6h-5.1v-4.2h5.1c0.3-20.5,5.8-28.8,20.1-28.8c3.6,0,8.8,1.7,8.8,8.4c0,3.7-1.8,5.3-5.1,5.3
			c-4.4,0-4.4-2.9-4.4-5.9c0-1.6,0-3.7-2.8-3.7c-3.7,0-3.7,4-3.7,8.6c0,5.2,0.3,10.5,0.3,16h8.2v4.2h-8.2v34.7
			c0,4.5,2.7,4.5,6.1,4.6v3c-5.1-0.5-9.2-0.5-13.1-0.5s-7.9,0-11.5,0.5v-3c2.5-0.1,5.1-0.1,5.1-4.6V454.6z"/>
		<path d="M174.4,558h-10.3c-1.9,0-3.8,0.1-5,0.3V557h1.2c2.3,0,2.9-0.5,2.9-3.2v-28.1c0-2.7-0.6-3.2-2.9-3.2h-1.2v-1.2
			c0.6,0.1,1.4,0.2,2.2,0.2c0.9,0,1.8,0.1,2.8,0.1h10.5c8.9,0,10.4,5.3,10.4,7.9c0,4.7-2.4,7.5-8.1,8.7v0.1
			c5.6,0.4,10.4,3.1,10.4,9.5C187.3,556.7,177.6,558,174.4,558z M171.1,523.1c-2,0-2.7,0-2.7,1v12.9c0,0.9,0.2,0.9,1.4,0.9
			c5.2,0,9.5-1,9.5-7.1C179.3,525.3,176.7,523.1,171.1,523.1z M169.9,539.4c-1.2,0-1.5,0.1-1.5,0.5v14.2c0,2.3,2.5,2.4,4.1,2.4
			c5.5,0,9.2-2.6,9.2-7.4C181.6,541.8,177.6,539.4,169.9,539.4z"/>
		<path d="M191.5,557h0.9c1.7,0,2.4-0.5,2.4-3.2v-13.7c0-2.6-0.4-3.4-3-3.4h-1.1v-1.2c2.5-0.3,4.9-1.2,7-2.5h1.6
			c-0.1,1.6-0.2,3.3-0.2,5.1v1.6h0.1c1.2-1.6,4.8-6.1,7-6.1c2.3,0,2.8,1.8,2.8,3.8c0,1.6-0.5,2.1-2.3,2.1c-1.5,0-2.1-0.4-2.1-1.7
			c0-0.4-0.1-1.1-0.6-1.1c-0.8,0-4.8,4-5,5.4v11.7c0,2.7,0.7,3.2,2.4,3.2h2.3v1.2c-2.9-0.2-4.9-0.3-6.8-0.3c-1.9,0-4,0.1-5.5,0.3
			V557z"/>
		<path d="M225.8,539.1c0-3.4-1.3-4.5-4.2-4.5c-2.3,0-4.4,0.9-4.4,4c0,2.4,0,3.1-2.1,3.1c-2,0-2.2-0.7-2.2-2.1
			c0-4.6,4.1-6.5,8.4-6.5c6.1,0,8.8,1.9,8.8,8v13.3c0,1,0.1,1.8,0.8,1.8s1.4-0.5,2.1-1l0.5,0.8c-1.2,1.3-3.2,3-5.1,3
			c-2.1,0-2.5-2.2-2.5-3.5v-1.1c-2.3,2.4-5.1,4.7-8.6,4.7c-3.4,0-5.8-2.6-5.8-6.1c0-5.5,4.2-8.2,14.4-10V539.1z M225.8,543.9
			c-3.3,0.9-9.8,3-9.8,7.5c0,2.3,1.5,4.1,3.8,4.1c2.3,0,4.2-1.2,6-2.4V543.9z"/>
		<path d="M250.6,535.8h-5.3c-3.5,0-6.8,0.6-7.2,4.8h-1.2c0.2-2.3,0.3-4.6,0.3-6.9c3.3,0.2,6.7,0.3,10.1,0.3c3.3,0,6.6-0.1,10-0.3
			l-15.4,22.6l6.6-0.2c3.6-0.1,6.1-0.6,7.2-4.8h1.1c-0.2,2.4-0.4,4.7-0.5,7.1c-3.5-0.2-7-0.3-10.5-0.3c-3.5,0-7,0.1-10.6,0.3
			L250.6,535.8z"/>
		<path d="M259.9,557h0.9c1.7,0,2.4-0.5,2.4-3.2v-13.7c0-2.6-0.4-3.4-3-3.4h-1.1v-1.2c2.5-0.3,4.9-1.2,7-2.5h1.6
			c-0.1,1.6-0.2,3.3-0.2,5.1v15.7c0,2.7,0.7,3.2,2.4,3.2h0.9v1.2c-1.5-0.2-3.5-0.3-5.5-0.3c-1.9,0-4,0.1-5.5,0.3V557z M265.1,527.3
			c-1.8,0-2.9-1.5-2.9-3.3c0-1.7,1.3-3.3,3.1-3.3c1.7,0,2.8,1.4,2.8,3.3C268.1,525.8,266.9,527.3,265.1,527.3z"/>
		<path d="M274.1,557h0.9c1.7,0,2.4-0.5,2.4-3.2v-28c0-2.8-0.8-3.3-2.9-3.3h-0.6v-0.9c2.1-0.4,5-1.3,6.8-2.3h1.2
			c-0.2,1.4-0.2,2.9-0.2,4.2v30.4c0,2.7,0.7,3.2,2.4,3.2h0.9v1.2c-1.5-0.2-3.5-0.3-5.5-0.3c-1.9,0-4,0.1-5.5,0.3V557z"/>
		<path d="M288.4,557h0.9c1.7,0,2.4-0.5,2.4-3.2v-13.7c0-2.6-0.4-3.4-3-3.4h-1.1v-1.2c2.5-0.3,4.9-1.2,7-2.5h1.6
			c-0.1,1.6-0.2,3.3-0.2,5.1v15.7c0,2.7,0.7,3.2,2.4,3.2h0.9v1.2c-1.5-0.2-3.5-0.3-5.5-0.3c-1.9,0-4,0.1-5.5,0.3V557z M293.6,527.3
			c-1.8,0-2.9-1.5-2.9-3.3c0-1.7,1.3-3.3,3.1-3.3c1.7,0,2.8,1.4,2.8,3.3C296.7,525.8,295.4,527.3,293.6,527.3z"/>
		<path d="M317,539.1c0-3.4-1.3-4.5-4.2-4.5c-2.3,0-4.4,0.9-4.4,4c0,2.4,0,3.1-2.1,3.1c-2,0-2.2-0.7-2.2-2.1c0-4.6,4.1-6.5,8.4-6.5
			c6.1,0,8.8,1.9,8.8,8v13.3c0,1,0.1,1.8,0.8,1.8s1.4-0.5,2.1-1l0.5,0.8c-1.2,1.3-3.2,3-5.1,3c-2.1,0-2.5-2.2-2.5-3.5v-1.1
			c-2.3,2.4-5.1,4.7-8.6,4.7c-3.4,0-5.8-2.6-5.8-6.1c0-5.5,4.2-8.2,14.4-10V539.1z M317,543.9c-3.3,0.9-9.8,3-9.8,7.5
			c0,2.3,1.5,4.1,3.8,4.1c2.3,0,4.2-1.2,6-2.4V543.9z"/>
		<path d="M326.7,557h0.9c1.7,0,2.4-0.5,2.4-3.2V540c0-2.6-0.4-3.4-3-3.4H326v-1.2c2.5-0.3,4.9-1.2,7-2.5h1.2v4.9h0.1
			c1.3-1.5,5-4.9,8.5-4.9c4.4,0,7.1,2.7,7.1,8.9v11.9c0,2.7,0.7,3.2,2.4,3.2h0.9v1.2c-1.5-0.2-3.5-0.3-5.5-0.3s-4,0.1-5.5,0.3V557
			h0.9c1.7,0,2.4-0.5,2.4-3.2v-12.1c0-3.2-1.4-5.3-4.7-5.3c-2.4,0-4.7,1.3-6.6,2.6v14.8c0,2.7,0.7,3.2,2.4,3.2h0.9v1.2
			c-1.5-0.2-3.5-0.3-5.5-0.3s-4,0.1-5.5,0.3V557z"/>
		<path d="M374.8,525.7c0-2.7-0.6-3.2-2.9-3.2h-1.2v-1.2c2.3,0.2,4.7,0.3,6.9,0.3c1.8,0,4.2-0.1,6.5-0.3v1.2h-1.2
			c-2.3,0-2.9,0.5-2.9,3.2V545c0,13-0.1,17.9-9.6,22.5l-0.8-0.9c5-1.8,5.2-6.6,5.2-8.7V525.7z"/>
		<path d="M386.3,557h0.9c1.7,0,2.4-0.5,2.4-3.2v-13.7c0-2.6-0.4-3.4-3-3.4h-1.1v-1.2c2.5-0.3,4.9-1.2,7-2.5h1.6
			c-0.1,1.6-0.2,3.3-0.2,5.1v15.7c0,2.7,0.7,3.2,2.4,3.2h0.9v1.2c-1.5-0.2-3.5-0.3-5.5-0.3c-1.9,0-4,0.1-5.5,0.3V557z M391.5,527.3
			c-1.8,0-2.9-1.5-2.9-3.3c0-1.7,1.3-3.3,3.1-3.3c1.7,0,2.8,1.4,2.8,3.3C394.5,525.8,393.3,527.3,391.5,527.3z"/>
		<path d="M418.5,554.8c-3.1,3.1-5.7,4.1-8.2,4.1c-6.1,0-7.4-5.1-7.4-9.6v-9.2c0-2.6-0.4-3.4-2.3-3.4h-1v-1.2
			c1.8-0.3,4.1-1.2,6.3-2.5h1.6c-0.1,1.6-0.2,3.3-0.2,5.1v11.2c0,3.5,1.7,6.2,5.3,6.2c2.7,0,4.7-1.4,5.7-2.5v-12.9
			c0-2.6-0.4-3.4-2.3-3.4h-1v-1.2c1.8-0.3,4.1-1.2,6.3-2.5h1.6c-0.1,1.6-0.2,3.3-0.2,5.1V551c0,3.7,0.4,4.3,2,4.3h1.3v1.2
			c-2.1,0.2-4.2,0.9-6,1.7h-1.4V554.8z"/>
		<path d="M429.7,544.2h11.4v3.7h-11.4V544.2z"/>
		<path d="M449.9,525.7c0-2.7-0.6-3.2-2.9-3.2h-1.2v-1.2c2.3,0.2,4.7,0.3,6.9,0.3c1.8,0,4.2-0.1,6.5-0.3v1.2H458
			c-2.3,0-2.9,0.5-2.9,3.2V545c0,13-0.1,17.9-9.6,22.5l-0.8-0.9c5-1.8,5.2-6.6,5.2-8.7V525.7z"/>
		<path d="M461.4,557h0.9c1.7,0,2.4-0.5,2.4-3.2v-13.7c0-2.6-0.4-3.4-3-3.4h-1.1v-1.2c2.5-0.3,4.9-1.2,7-2.5h1.6
			c-0.1,1.6-0.2,3.3-0.2,5.1v15.7c0,2.7,0.7,3.2,2.4,3.2h0.9v1.2c-1.5-0.2-3.5-0.3-5.5-0.3s-4,0.1-5.5,0.3V557z M466.6,527.3
			c-1.8,0-2.9-1.5-2.9-3.3c0-1.7,1.3-3.3,3.1-3.3c1.7,0,2.8,1.4,2.8,3.3C469.6,525.8,468.4,527.3,466.6,527.3z"/>
		<path d="M479,536.9h-3.3v-1.2c3.7-1.9,6-5.7,6.5-9.2h1.1v8.9h5.9v1.5h-5.9v13.9c0,2.7,0.3,5,2.5,5c1.2,0,2.5-0.7,3.4-1.5l0.5,0.9
			c-1.6,1.8-3.6,3.6-6.2,3.6c-3.7,0-4.5-3.1-4.5-6.1V536.9z"/>
		<path d="M507.1,540.2c-0.3-3.3-2.9-5.6-6.1-5.6c-2.2,0-4.2,1.1-4.2,3.4c0,2.2,0.7,2.7,6,5.2c3.6,1.7,6.5,3.5,6.5,7.9
			c0,4.9-3.4,7.8-8.1,7.8c-2.4,0-5.2-1.4-6.8-1.4h-0.8c0.2-2.9,0.3-5.5,0.2-8.4h1.2c0.2,4.6,3,8.3,6.9,8.3c2.4,0,5-2,5-4.4
			c0-3.1-3.2-4.4-6.5-5.9c-4-1.8-6.6-3.3-6.6-7.3c0-4.1,3.3-6.7,7.1-6.7c1,0,1.9,0.2,2.9,0.3c1,0.2,1.9,0.3,2.9,0.3
			c0.6,0,1-0.1,1.4-0.2c0.1,2.4,0.3,4.6,0.3,6.8H507.1z"/>
		<path d="M531.6,554.8c-3.1,3.1-5.7,4.1-8.2,4.1c-6.1,0-7.4-5.1-7.4-9.6v-9.2c0-2.6-0.4-3.4-2.3-3.4h-1v-1.2
			c1.8-0.3,4.1-1.2,6.3-2.5h1.6c-0.1,1.6-0.2,3.3-0.2,5.1v11.2c0,3.5,1.7,6.2,5.3,6.2c2.7,0,4.7-1.4,5.7-2.5v-12.9
			c0-2.6-0.4-3.4-2.3-3.4h-1v-1.2c1.8-0.3,4.1-1.2,6.3-2.5h1.6c-0.1,1.6-0.2,3.3-0.2,5.1V551c0,3.7,0.4,4.3,2,4.3h1.3v1.2
			c-2.1,0.2-4.2,0.9-6,1.7h-1.4V554.8z"/>
		<path d="M582.2,537c1.7,0.2,3.5,0.4,5.2,0.4c2,0,4-0.2,5.9-0.4v1.2c-2.7,0-3.7,0.9-5.1,2.8c-1.6,2.3-4.8,6.2-7.7,9.8
			c2.4,2.9,5.3,5.2,9.2,5.2c1.5,0,3.4-0.5,4.7-1.3l0.7,0.9c-2.4,1.4-5.3,3.2-7.8,3.2c-4.6,0-6.4-1.8-9.8-4.9
			c-4.4,3.2-7,4.9-12.6,4.9c-5.2,0-8.7-3.8-8.7-8.8c0-6.1,6.1-9.6,10.8-12.1c-1.3-3-1.6-4.5-1.6-7.7c0-5.2,3.2-8.9,8.6-8.9
			c3.9,0,7.3,2.3,7.3,6.6c0,4.5-5.4,7.3-9.4,9.3c2.4,4.3,4.8,8.6,7.7,12.5c2.1-2.5,5.3-7.3,5.3-9.9c0-1.3-1.6-1.6-2.6-1.5V537z
			 M568.4,555.8c3.3,0,5.8-1.5,7.8-3.2c-3.3-4.1-6.3-8.5-8.7-13.2c-3.6,2.3-6.3,4.4-6.3,9.1C561.3,552.4,564,555.8,568.4,555.8z
			 M571.2,535.9c3.3-2,6.6-4.3,6.6-8.6c0-2.4-1.5-4.5-4.2-4.5c-3.5,0-4.7,2.6-4.7,5.5C569,530.3,570,534,571.2,535.9z"/>
		<path d="M612,557h1.4c2.2,0,2.8-0.7,2.9-2.4l0.7-28.3c0.1-2.8-0.1-3.8-4.2-3.8v-1.2c1.6,0.2,3.3,0.3,5,0.3c1.6,0,3.3-0.1,4.8-0.3
			c4.2,9.6,8.3,18.7,11.8,28.6h0.1c3.5-10,7.6-19.1,11.4-28.6c1.6,0.2,3.2,0.3,4.8,0.3c1.6,0,3.2-0.1,4.8-0.3v1.2
			c-3.6,0-4.2,0.3-4.2,4.2c0,1.3,0.1,2.6,0.1,3.9l0.4,23.6c0.1,2.8,1.9,2.8,4.3,2.8v1.2c-2.3-0.2-4.6-0.3-6.9-0.3
			c-2.8,0-3.9,0.1-6.8,0.3V557c3.8,0,4.2-0.7,4.2-3.2l-0.2-28.2h-0.1l-12.5,30.9c-0.4,0.9-0.7,1.7-0.9,1.7c-0.3,0-0.8-1.3-1.6-3.3
			l-12.2-29.3H619l-0.2,29.8c0,1.6,2.4,1.6,4.3,1.6v1.2c-2-0.2-4-0.3-5.9-0.3c-1.7,0-3.5,0.1-5.2,0.3V557z"/>
		<path d="M658.6,557h1.4c2.2,0,2.8-0.7,2.9-2.4l0.7-28.3c0.1-2.8-0.1-3.8-4.2-3.8v-1.2c1.6,0.2,3.3,0.3,5,0.3
			c1.6,0,3.3-0.1,4.8-0.3c4.2,9.6,8.3,18.7,11.8,28.6h0.1c3.5-10,7.6-19.1,11.4-28.6c1.6,0.2,3.2,0.3,4.8,0.3c1.6,0,3.2-0.1,4.8-0.3
			v1.2c-3.6,0-4.2,0.3-4.2,4.2c0,1.3,0.1,2.6,0.1,3.9l0.4,23.6c0.1,2.8,1.9,2.8,4.3,2.8v1.2c-2.3-0.2-4.6-0.3-6.9-0.3
			c-2.8,0-3.9,0.1-6.8,0.3V557c3.8,0,4.2-0.7,4.2-3.2l-0.2-28.2h-0.1l-12.5,30.9c-0.4,0.9-0.7,1.7-0.9,1.7c-0.3,0-0.8-1.3-1.6-3.3
			l-12.2-29.3h-0.1l-0.2,29.8c0,1.6,2.4,1.6,4.3,1.6v1.2c-2-0.2-4-0.3-5.9-0.3c-1.7,0-3.5,0.1-5.2,0.3V557z"/>
		<path d="M704.4,557c2.6,0,3.2-1.6,4.8-5.4l12.9-31c0.2-0.4,0.3-0.6,0.5-0.6c0.2,0,0.4,0.2,0.5,0.6l12.9,32.1
			c1.4,3.3,2.2,4.4,4.3,4.4v1.2c-2.1-0.2-4.1-0.3-6.2-0.3c-2,0-4,0.1-6,0.3V557c1.1,0,2.9,0,2.9-1.3c0-0.8-0.5-1.9-0.8-2.8l-2.7-7
			h-13.5l-2.9,7.2c-0.4,1-0.6,1.7-0.6,2.2c0,1.7,1.8,1.8,3.2,1.8v1.2c-1.7-0.2-3.4-0.3-5.1-0.3c-1.4,0-2.8,0.1-4.3,0.3V557z
			 M721.1,528.8l-6.2,15.2h12L721.1,528.8z"/>
	</g>
	<g>
		<path class="st0" d="M414.1,109c-4.2-3.5-12.5-0.8-13.1,4.2C405,109.8,409,108.8,414.1,109z"/>
		<path class="st0" d="M439.3,146.1c4.2,3.5,12.5,0.8,13.1-4.2c-0.9,0.8-1.9,1.5-2.8,2c-0.1,0.1-0.2,0.1-0.3,0.2c0,0,0,0,0,0
			c0,0-0.1,0-0.1,0c-1,0.6-2.1,1-3.2,1.3c-0.2,0.1-0.4,0.1-0.6,0.2C443.4,146.1,441.4,146.2,439.3,146.1z"/>
		<path class="st0" d="M505.6,151.3c-4,3.5-8,4.4-13.1,4.2C497.5,159.4,506.3,155.2,505.6,151.3z"/>
		<path class="st0" d="M412.5,105.2c-4-3.1-11.9-1.7-13.1,4.2C403.5,106,407.4,105.1,412.5,105.2z"/>
		<path d="M418,123.6c-3.7,0.9-6.7,1.8-6.6,7.7c0.1,5.9,0.7,9.4,1.6,12.1c1,3,3.2,3.8,5.4,3.9c0.1-0.4,2.7-7.1,2.7-7.1l0.7,6.8
			l0.9,5.1c0.1,0.6,0.8,0.9,1.4,0.6c1.9-1.2,5.8-4.5,7.1-11.6c1.7-9.6-1.6-15.6-3.4-16.9C425.9,123,423,122.5,418,123.6z"/>
		<polygon points="250,366.4 267.8,415.3 280.3,410.6 261.8,361.9 		"/>
		<path d="M623.4,362l-18.2,50.4l-135.1-55.9l7.3-48.6c51.7-15.4,90-61.7,91.9-117.7c2.4-70.4-53.9-129.4-125.7-131.8
			c-71.8-2.4-131.9,52.7-134.3,123.1c-1.9,57,34.6,106.5,86.7,124.6l35,44.1L411.2,361l0,0L288,407.7l-19-48.5l79.6-30.1
			c-47.6-31.3-78.2-85.9-76.1-147c3.1-93.4,81.3-166.5,174.7-163.4S613.7,100,610.6,193.4c-1.9,57.6-32.4,107.5-77.4,136.5
			L623.4,362z"/>
		<polygon points="630.8,364.6 613,415.6 629.1,422.3 647,370.4 		"/>
		<path d="M428.3,74.7l-0.4,11.2c0,0,1.3-3.2,4.1-4.5c1.6-0.7,4.6,0.1,4.9,0.1l-7.4-7.3C429.1,73.8,428.4,74.1,428.3,74.7z"/>
		<path d="M379.2,132.8c-6.1,1.4-12.2,7.1-15.2,10.2c-3,3.1-2.9,3.8-2.8,5.5c0.1,1.7,3.6,4.8,5.2,6c1.6,1.3,7.5,1.3,10.7-2.5
			c2.2-2.3,6.3-6.2,8.8-11.4l-4.9,1.6l4.8-5C386,134.4,384.6,131.6,379.2,132.8z"/>
		<path d="M464.8,132.5c2.1-0.4,7.7-1.2,12.2-5.3c-1-1.1-3.5-2.6-4.9-3.6c-4.3,1.2-7.4,3.7-8.9,6.8
			C462.4,132.1,462.8,132.8,464.8,132.5z"/>
		<path d="M512.2,169.5c-3.7-0.7-7.8-1.6-10.7-4.2c-0.2,0.9-0.1,1.8,0.3,2.6c0.4,0.9,1,1.8,1.8,2.3c1,0.7,2.4,0.9,3.5,1.1
			c1.3,0.3,2.5,0.4,3.8,0.6c4.5,0.6,9,0.7,13.5-0.1c1.2-0.2,2.4-0.5,3.6-0.9c0.4-0.1,0.9-0.4,1.2-0.4c-1.7,0.1-3.4,0.1-5.1,0
			C520.2,170.5,516.1,170.2,512.2,169.5z"/>
		<path d="M538.9,195.1c-0.9-2.8-1-19.5-1-19.5s-0.6-5.8-4.2-4.3c-3.6,1.5-9,2.4-10.9,2.7c-2,0.4-14.5,1.1-19.6-1.8
			c0.9,13,16.7,13.8,18.9,13.9c0.1,0,0.2,0,0.2,0s0,0,0.1,0c0.4,0,2.2,0.2,7.4-0.9c-3.1,2-10.2,2.1-10.8,2.2
			c-0.1,0.2-0.1,0.3-0.1,0.5c0,0.4,0,0.8,0.2,1.2c0,0.2,0.1,0.3,0.2,0.4c0.1,0,0.1,0.1,0.2,0.1c0.7,0.4,1.5,0.7,2.3,1
			c1.9,0.6,3.9,1,5.9,1.1c-0.2,0.1-0.6,0.2-0.8,0.3c-0.2,0-0.5,0.1-0.7,0.1c-0.5,0-1,0.1-1.4,0.1c-1,0-2,0.1-3,0
			c-0.7-0.1-1.5-0.1-2.2-0.1c-0.7,0-1.5-0.2-2.2-0.2c-0.2,0-0.3,0.1-0.5,0.1c-5.3,1.7-10.5,3.3-15.8,5c-1.7,0.5-3.4,1.1-5,1.6
			c-0.3,0.1-1.5-0.9-1.7-1.1c-1.3-1-2.4-2.2-3.4-3.6c-2.1-3-2.4-7.1-1-10.5c2.4-5.9,5.6-11.2,9.2-16.5c0.2-0.2,0.3-0.5,0.5-0.7
			c2.8-3.3,6.6-8,13.7-8.8c3.2-0.6,6.2-2,5.2-6.4c-0.6-3-1.2-6.6-1.7-9.5c-0.5-2.6-3-2-4.7-3.2c-1.8-1.2-7.8-7.3-6.5-17.4
			c0.4-3.1,1.3-4.7-1.2-6.5c-1.5-1.3-4-3.6-5.5-7.1c-1.5-3.5-5.3-4.1-7-0.6c-6.2,9.1-12,10.4-12,10.4s-2.8-0.7-3.6,0.3
			c-0.8,1,0.3,2.7,0.3,2.7s-2.7-0.9-3.4,0.4c-0.7,1.3,1,2.6,1,2.6l4.7,3c0.7,0.4,0.7,1.4,0.1,1.8c-1.5,1.1-4,2.8-6.7,3.8
			c2.5,2.4,5.7,4.1,9.2,3.4c1.2-0.2,2.3-0.7,3.4-1.4c1.2-0.8,2.1-1.8,3.1-2.7c0.6-0.5,1.3-0.9,2-1.3c0.3-0.2,0.7-0.3,1-0.5
			c0.3-0.1,0.8-0.1,1-0.2c-1.7,1.1-3,3.1-4.1,4.8c-0.4,0.6-0.8,1.2-1.1,1.8c-0.7,1.6-0.7,3.6-0.6,5.3c0.1,3.7,0.4,7.7,4.6,9.2
			c3,1.1,7.7,2,10.9,0.7c-3.7,3.5-9.7,1.4-14.1,1.5c-3.4,0.1-4.8,2.5-5.2,5.5c-0.3,2.5-0.2,5-1.8,9.6c-1.6,4.6-7,12.1-9.7,13.8
			c-2.8,1.6-7.2,3.1-12-1.2c-6-5.4-4.8-11-4.1-14c0.7-3,2.6-10.4,8.7-17.2c3.4-3.4,2.4-7.2,0-10.7c-2.8-4.2-4.4-9.4-5.2-14.3
			c-0.9-5.3-0.4-9.9,1.2-15c0.8-3.9,1.8-7-7.7-9.8c-4.9-1.7-10.3-12.8-13.1-14.5c-2.8-1.7-7-3.3-9.7,3.5c-2.2,5.7-1.5,13.7,1.7,19
			c2.7,4.5,7,6.6,12.1,6.9c-1.9,1.1-7,0.8-7,0.8c0.1,2.4-0.9,4.8-0.9,4.8l3.1-0.4c1.1-0.1,2.1,0.7,2.3,1.8c0.3,2.5-1,4.8-3.3,5.9
			c-1.2,0.5-2.2,1.1-2.4,1.5c-0.2,0.4-0.1,0.9-0.1,1.3c0,0.7,0.2,1.4,0.3,2.1c0.3,1.6,0.7,3.2,1.1,4.8c0.1,0.4,0.3,0.9,0.4,1.4
			c0.1,0.4,0.7,0.6,1,0.9c0.5,0.3,1,0.6,1.6,0.9c1.5,0.7,3.1,1.3,4.8,1.6c1.5,0.2,2.9,0.2,4.4-0.1c-3.3,3-11.3,1.3-11.3,1.3
			c-1.8,2-1.8,4.6,0,7.4c-0.2,1.8-1.9,15.8-4,19.9c-2.2,4.1-17,7.1-17,7.1c0.1,0,0.7-2.9,0.8-3.2c0.5-1.5,1.7-2.7,2.1-4.2
			c0.4-1.5,0-3.1-0.7-4.4c-1-1.8-2.6-3-4-4.4c-2.7-2.7-2.1-14.1-2.1-14.1c-3.5-6.1-4.6-13.5-2.7-20.3c0.2-0.9,0.6-1.8,1.2-2.6
			c1.6-1.9,6.1-2,8.4-2.4c1-0.2,2.4-0.2,3.3-0.9c1.2-1,1.7-3.3,0.9-4.7c-0.9-1.5-2.8-2-4.4-2c-2.5,0.1-5.1,0.2-7.6,0.7
			c4.6-3,7.5-2.5,7.6-2.5c-0.7-1.4-1.4-3.4-0.9-7.2c0.2-2.1-0.8-4.3-5.2-3.8c-4.4,0.6-9.7,1.9-14.6,3.5c-4.8,1.6-4.4,4.5-3.8,7.2
			c0.6,2.7,1.4,6.6,1.3,9.9c-0.1,3.3-3,8.9-3.3,13c-0.2,4.1,4.5,10.3,4.5,13.5c0,3.2-3.5,7.6-4.2,11.4c-0.7,3.8,2.1,8,1.4,12.7
			c-0.5,3.6-3.2,6-6.3,7.6c-6,3.2-12.4,4.3-19.1,4.2c-3.1,0-6.2-0.2-9.3-0.3c-1.5-0.1-3-0.2-4.5-0.3c-1-0.1-2.9-0.6-3.8-0.3
			c27.6-8.3,26.3-27.8,26.3-27.8s-1,0.6-1.1,0.7c-0.8,0.5-1.7,1-2.6,1.2c-2,0.7-4.6,0.9-6.6,0.5c-3-0.6-4.9-2.9-6.5-5.5
			c-1.7-0.9-3.9-0.2-5.1,0.8c-1.2,1-1.8,3.9-1.8,3.9l-0.9,10.7c0,0-1.1-10-1.2-10.9c-0.7,0-1.6,0.2-2.2,0.7
			c-1.8,1.2-1.5,4.3-1.9,6.1c0,0.8,0.5,8.3,0.5,8.3l-2.2-5.5c-1.1,1.2-2.5,2.4-3.6,3.3c-2.4,2-4.8,3.8-7.5,5.3
			c-1.5,0.8-2.7,2.3-2.7,4.1c0,1.8,1.7,3.5,2.6,5.1c2.1,3.7,3.8,7.7,4.9,11.8c1.2,2.8,3.1,2.2,4.6,2c1.3-0.2,3.5-0.5,3.7-0.5
			c0,0,3.5-0.6,7.4-2.8c-1.6,3.3-5.1,5.4-5.5,5.5c1.4,2.1,3,4.5,3.7,5.6c1.1,1.7,1.4,3.1,7.8,2.5c2.1-0.5,4-0.8,5.9,2.6
			c0.5,1,1.2,2,1.9,2.9c0.7,0.9,1.7,1.7,2.8,1.8c1.1,0.1,2.2-0.3,3.3-0.8c2.5-1.1,5.1-2.1,7.5-3.4c-1.7,3.5-7.8,8-7.8,8
			c1.8,3.3,4.6,8.9,6,16.4c1.4,7.8-1.4,15.2-1.9,20.1c-0.9,7.3,5.2,5.9,6.6,12c0.3,1.5,1.9,2.1,3.2,2.1c2.9,0,5.4-1.4,8.2-0.4
			c3.1,1,5.9,4.5,9.4,3.4c1.3-0.4,2.4-1.2,3.5-2c4.8-3.5,9.3-7.4,13.8-11.2c-2.3,2.5-4.2,5.5-6.6,7.9c-2.2,2.2-4.3,4.4-6.9,6.1
			c-1.5,1-3.8,2-5.7,1.8c-2.1-0.2-4-1.3-5.8-2.3c-0.9-0.5-1.9-0.8-2.9-0.8c0.2,0,0.1,1.7,0.1,1.9c-0.1,0.8-0.2,1.6-0.5,2.3
			c-0.9,2.5-2.9,4.7-4.7,6.4c-0.8,0.8-1.7,1.4-2.7,2.1c0,0-0.1,0.1-0.1,0.1l8.7,3.5c0,0-3.4,2-5.9,2.9c1.6,1.8,5.3,1.6,5.3,1.6
			l0.5,13.5l6.3-7.4l37.3,43.4l-1.6-53l10.1,6.4l0.7,61l0.1,10.5c0,0,16.5-8.4,16.5-8.4l5.5-49.1l0-0.3c0-2.3,0.1-10.2,2.8-16.5
			c-1.4,0.3-3,0.4-3,0.4c-3.2,0.4-6.1-1.9-6.5-5.1l-0.2-1.8c-0.1-0.6,0.4-1.2,1-1.3l10.5-1.4c-5.5-2.3-7.9-8.5-8.3-11.3
			c8.4-3.5,8.8-3.8,9.1-10c0.2-6.2,1-11.4,4.5-17.2c3.5-5.9,7.7-7.6,12.3-9.1c3.2-1.1,3.5-0.4,4.7-4.7c1.2-4.3,3.6-7.4,5.2-10.7
			c1.6-3.3,1.9-4.1,7.2-7.4c5.2-3.2,11.2-6.5,26.7-9.7C540.5,203.3,541.4,201.6,538.9,195.1z M505.6,151.3c0.8,3.9-8.1,8.1-13.1,4.2
			C497.6,155.7,501.6,154.7,505.6,151.3z M412.5,105.2c-5.1-0.2-9.1,0.8-13.1,4.2C400.7,103.6,408.6,102.1,412.5,105.2z M401,113.3
			c0.5-5,8.8-7.7,13.1-4.2C409,108.8,405,109.8,401,113.3z M439.3,146.1c6.4,0.7,12-2.5,13.1-4.2
			C451.8,146.9,443.5,149.6,439.3,146.1z"/>
		<polygon points="434.3,354.5 417,364 436,373.8 440.6,371.5 440.3,362 		"/>
	</g>
</g>
<g>
</g>
<g>
</g>
<g>
</g>
<g>
</g>
<g>
</g>
<g>
</g>
</svg>
